M48
; DRILL file {KiCad 5.1.5-52549c5~84~ubuntu18.04.1} date to. 12. des. 2019 kl. 20.34 +0100
; FORMAT={-:-/ absolute / inch / decimal}
; #@! TF.CreationDate,2019-12-12T20:34:09+01:00
; #@! TF.GenerationSoftware,Kicad,Pcbnew,5.1.5-52549c5~84~ubuntu18.04.1
; #@! TF.FileFunction,Plated,1,2,PTH
FMAT,2
INCH
T1C0.0157
T2C0.0295
T3C0.0315
T4C0.0394
T5C0.0591
%
G90
G05
T1
X3.26Y-5.615
X3.285Y-3.425
X3.29Y-3.005
X3.295Y-2.58
X3.3Y-4.5
X3.31Y-4.915
X3.31Y-5.365
X3.315Y-5.9
X3.37Y-4.04
X3.44Y-4.275
X3.48Y-5.73
X3.535Y-4.705
X3.555Y-3.75
X3.56Y-5.35
X3.575Y-3.37
X3.58Y-5.53
X3.585Y-5.15
X3.605Y-4.0
X3.61Y-2.43
X3.67Y-4.755
X3.71Y-3.075
X3.73Y-4.91
X3.73Y-5.82
X3.765Y-4.35
X3.78Y-4.635
X3.805Y-5.52
X3.83Y-3.52
X3.86Y-2.65
X3.885Y-4.435
X3.895Y-4.775
X3.9Y-3.08
X3.905Y-5.105
X3.97Y-5.0
X3.985Y-5.17
X4.0Y-3.945
X4.01Y-5.445
X4.01Y-5.68
X4.025Y-4.275
X4.06Y-3.21
X4.07Y-4.15
X4.095Y-4.74
X4.11Y-5.905
X4.15Y-4.925
X4.155Y-4.54
X4.165Y-3.61
X4.19Y-3.37
X4.21Y-5.745
X4.225Y-2.42
X4.23Y-5.44
X4.28Y-4.705
X4.29Y-3.605
X4.295Y-3.815
X4.335Y-4.12
X4.345Y-3.11
X4.365Y-5.125
X4.37Y-3.55
X4.38Y-4.855
X4.415Y-5.47
X4.46Y-4.255
X4.48Y-5.9
X4.485Y-2.67
X4.505Y-4.375
X4.51Y-4.75
X4.515Y-3.815
X4.54Y-3.08
X4.57Y-4.935
X4.59Y-3.395
X4.645Y-5.51
X4.655Y-4.08
X4.695Y-4.445
X4.695Y-5.915
X4.74Y-3.63
X4.74Y-5.045
X4.775Y-4.705
X4.785Y-4.825
X4.825Y-3.765
X4.84Y-2.42
X4.845Y-3.55
X4.87Y-2.77
X4.87Y-3.365
X4.88Y-3.125
X4.89Y-4.255
X4.895Y-5.24
X4.91Y-5.47
X4.99Y-3.915
X5.08Y-4.46
X5.135Y-2.575
X5.135Y-5.12
X5.15Y-4.07
X5.165Y-2.385
X5.175Y-4.81
X5.185Y-5.36
X5.2Y-3.18
X5.215Y-3.56
X5.225Y-5.585
X5.23Y-2.88
X5.27Y-3.925
X5.27Y-5.89
X5.28Y-4.62
X5.32Y-4.36
X5.36Y-5.035
X5.41Y-2.68
X5.49Y-3.68
X5.54Y-3.275
X5.54Y-4.09
X5.545Y-2.38
X5.55Y-5.88
X5.58Y-5.25
X5.61Y-4.415
X5.635Y-4.675
X5.655Y-5.565
X5.71Y-3.15
X5.76Y-2.895
X5.77Y-2.555
X5.875Y-4.905
X5.88Y-4.065
X5.89Y-4.355
X5.91Y-2.365
X5.91Y-3.385
X5.955Y-2.76
X6.025Y-5.595
X6.085Y-3.11
X6.225Y-4.67
X6.225Y-5.84
X6.23Y-4.1
X6.23Y-5.225
X6.28Y-2.57
X6.33Y-2.37
X6.35Y-2.71
X6.37Y-3.195
X6.41Y-4.275
X6.42Y-3.69
X6.575Y-5.685
X6.575Y-5.84
X6.605Y-2.925
X6.635Y-3.345
X6.72Y-5.13
X6.735Y-2.415
X6.855Y-2.93
X6.86Y-4.59
X6.87Y-4.075
X6.885Y-5.485
X6.91Y-4.9
X6.92Y-3.345
X6.93Y-2.65
X6.975Y-4.39
T2
X4.09Y-5.055
X4.14Y-5.055
X4.19Y-5.055
X3.68Y-5.055
X3.73Y-5.055
X3.78Y-5.055
X4.51Y-5.06
X4.56Y-5.06
X4.61Y-5.06
T3
X5.86Y-2.65
X5.86Y-2.95
X5.96Y-2.65
X5.96Y-2.95
X6.06Y-2.65
X6.06Y-2.95
X6.16Y-2.65
X6.16Y-2.95
X6.76Y-3.925
X6.76Y-4.225
X4.91Y-2.95
X4.91Y-3.25
X5.71Y-5.06
X5.71Y-5.1584
X4.88Y-4.9416
X4.88Y-5.04
X4.56Y-5.27
X4.56Y-5.57
X4.33Y-4.22
X4.33Y-4.52
X5.41Y-3.28
X5.41Y-3.4769
X3.9Y-4.22
X3.9Y-4.52
X5.75Y-4.0431
X5.75Y-4.24
X4.14Y-5.27
X4.14Y-5.57
X6.865Y-3.5916
X6.865Y-3.69
X5.43Y-5.6122
X5.43Y-5.75
X5.19Y-4.24
X5.49Y-4.24
X4.99Y-4.73
X5.29Y-4.73
X5.41Y-4.73
X5.5084Y-4.73
X5.75Y-3.58
X5.75Y-3.88
X6.07Y-4.26
X6.2669Y-4.26
X3.52Y-2.56
X3.6184Y-2.56
X6.145Y-3.54
X6.145Y-3.84
X6.245Y-3.54
X6.245Y-3.84
X6.345Y-3.54
X6.345Y-3.84
X6.445Y-3.54
X6.445Y-3.84
X4.14Y-4.22
X4.14Y-4.3184
X6.08Y-2.46
X6.1784Y-2.46
X3.69Y-4.1513
X3.69Y-4.23
X4.17Y-2.56
X4.2684Y-2.56
X3.68Y-3.46
X3.7587Y-3.46
X6.44Y-2.55
X6.5384Y-2.55
X3.71Y-5.27
X3.71Y-5.57
X6.07Y-4.06
X6.37Y-4.06
X6.44Y-2.81
X6.44Y-3.11
X4.27Y-2.95
X4.27Y-3.25
X3.63Y-2.95
X3.63Y-3.25
X4.74Y-5.27
X4.74Y-5.57
X5.8416Y-2.46
X5.94Y-2.46
X4.32Y-3.46
X4.3987Y-3.46
X5.975Y-3.54
X5.975Y-3.6384
X4.32Y-5.27
X4.32Y-5.57
X5.05Y-4.94
X5.05Y-5.24
X5.15Y-4.94
X5.15Y-5.24
X5.25Y-4.94
X5.25Y-5.24
X5.35Y-4.94
X5.35Y-5.24
X3.89Y-5.27
X3.89Y-5.57
X6.64Y-3.485
X6.64Y-3.785
X5.88Y-5.06
X5.88Y-5.36
X5.98Y-5.06
X5.98Y-5.36
X6.08Y-5.06
X6.08Y-5.36
X6.18Y-5.06
X6.18Y-5.36
X6.28Y-5.06
X6.28Y-5.36
X6.38Y-5.06
X6.38Y-5.36
X6.48Y-5.06
X6.48Y-5.36
X6.61Y-3.11
X6.7084Y-3.11
X4.75Y-4.22
X4.75Y-4.52
X3.9Y-4.635
X3.9Y-4.935
X4.82Y-2.56
X4.9184Y-2.56
X3.77Y-3.73
X3.77Y-3.8284
X5.41Y-2.55
X5.41Y-2.85
X4.56Y-4.22
X4.56Y-4.3184
X6.55Y-4.0581
X6.55Y-4.255
X3.94Y-3.73
X3.94Y-4.03
X4.04Y-3.73
X4.04Y-4.03
X4.14Y-3.73
X4.14Y-4.03
X4.24Y-3.73
X4.24Y-4.03
X4.34Y-3.73
X4.34Y-4.03
X4.44Y-3.73
X4.44Y-4.03
X4.54Y-3.73
X4.54Y-4.03
X5.75Y-4.55
X5.75Y-4.85
X4.45Y-2.95
X4.45Y-3.25
X3.81Y-2.95
X3.81Y-3.25
X4.96Y-3.46
X5.0387Y-3.46
T4
X6.18Y-5.59
X6.28Y-5.59
X6.38Y-5.59
X5.98Y-4.83
X6.08Y-4.83
X6.18Y-4.83
X6.28Y-4.83
X6.38Y-4.83
X6.48Y-4.83
X6.245Y-3.315
X6.345Y-3.315
X6.445Y-3.315
T5
X4.4Y-2.81
X4.08Y-4.45
X4.08Y-4.65
X4.08Y-4.85
X5.04Y-2.81
X6.02Y-4.53
X6.22Y-4.53
X6.42Y-4.53
X5.665Y-2.55
X5.665Y-2.75
X5.665Y-2.95
X3.98Y-3.11
X3.98Y-3.31
X3.98Y-3.51
X3.37Y-5.695
X3.57Y-5.695
X3.77Y-5.695
X3.94Y-5.77
X5.145Y-3.9
X4.65Y-5.695
X4.85Y-5.695
X5.05Y-5.695
X3.34Y-3.11
X3.34Y-3.31
X3.34Y-3.51
X3.44Y-5.53
X6.76Y-2.55
X6.76Y-2.75
X6.76Y-4.39
X6.76Y-4.59
X6.76Y-4.79
X4.5Y-4.45
X4.5Y-4.65
X4.5Y-4.85
X3.65Y-4.45
X3.65Y-4.65
X3.65Y-4.85
X3.44Y-2.765
X3.44Y-2.965
X5.0Y-5.555
X4.99Y-4.445
X5.19Y-4.445
X5.39Y-4.445
X4.72Y-2.765
X4.72Y-2.965
X4.11Y-5.695
X4.31Y-5.695
X4.51Y-5.695
X5.72Y-5.75
X5.92Y-5.75
X4.62Y-3.11
X4.62Y-3.31
X4.62Y-3.51
X4.08Y-2.765
X4.08Y-2.965
X3.76Y-2.81
T0
M30
