G04 #@! TF.GenerationSoftware,KiCad,Pcbnew,5.1.5-52549c5~84~ubuntu18.04.1*
G04 #@! TF.CreationDate,2019-12-12T20:34:07+01:00*
G04 #@! TF.ProjectId,Sustainer,53757374-6169-46e6-9572-2e6b69636164,rev?*
G04 #@! TF.SameCoordinates,Original*
G04 #@! TF.FileFunction,Soldermask,Top*
G04 #@! TF.FilePolarity,Negative*
%FSLAX46Y46*%
G04 Gerber Fmt 4.6, Leading zero omitted, Abs format (unit mm)*
G04 Created by KiCad (PCBNEW 5.1.5-52549c5~84~ubuntu18.04.1) date 2019-12-12 20:34:07*
%MOMM*%
%LPD*%
G04 APERTURE LIST*
%ADD10C,0.100000*%
G04 APERTURE END LIST*
D10*
G36*
X176778256Y-146473298D02*
G01*
X176884579Y-146494447D01*
X177185042Y-146618903D01*
X177455451Y-146799585D01*
X177685415Y-147029549D01*
X177866097Y-147299958D01*
X177990553Y-147600421D01*
X178054000Y-147919391D01*
X178054000Y-148244609D01*
X177990553Y-148563579D01*
X177866097Y-148864042D01*
X177685415Y-149134451D01*
X177455451Y-149364415D01*
X177185042Y-149545097D01*
X176884579Y-149669553D01*
X176778256Y-149690702D01*
X176565611Y-149733000D01*
X176240389Y-149733000D01*
X176027744Y-149690702D01*
X175921421Y-149669553D01*
X175620958Y-149545097D01*
X175350549Y-149364415D01*
X175120585Y-149134451D01*
X174939903Y-148864042D01*
X174815447Y-148563579D01*
X174752000Y-148244609D01*
X174752000Y-147919391D01*
X174815447Y-147600421D01*
X174939903Y-147299958D01*
X175120585Y-147029549D01*
X175350549Y-146799585D01*
X175620958Y-146618903D01*
X175921421Y-146494447D01*
X176027744Y-146473298D01*
X176240389Y-146431000D01*
X176565611Y-146431000D01*
X176778256Y-146473298D01*
G37*
G36*
X100382564Y-145547389D02*
G01*
X100471880Y-145584385D01*
X100573835Y-145626616D01*
X100629200Y-145663610D01*
X100745973Y-145741635D01*
X100892365Y-145888027D01*
X101007385Y-146060167D01*
X101086611Y-146251436D01*
X101127000Y-146454484D01*
X101127000Y-146661516D01*
X101086611Y-146864564D01*
X101038222Y-146981385D01*
X101007384Y-147055835D01*
X100892365Y-147227973D01*
X100745973Y-147374365D01*
X100573835Y-147489384D01*
X100573834Y-147489385D01*
X100573833Y-147489385D01*
X100382564Y-147568611D01*
X100179516Y-147609000D01*
X99972484Y-147609000D01*
X99769436Y-147568611D01*
X99578167Y-147489385D01*
X99578166Y-147489385D01*
X99578165Y-147489384D01*
X99406027Y-147374365D01*
X99259635Y-147227973D01*
X99144616Y-147055835D01*
X99113778Y-146981385D01*
X99065389Y-146864564D01*
X99025000Y-146661516D01*
X99025000Y-146454484D01*
X99065389Y-146251436D01*
X99144615Y-146060167D01*
X99259635Y-145888027D01*
X99406027Y-145741635D01*
X99522800Y-145663610D01*
X99578165Y-145626616D01*
X99680120Y-145584385D01*
X99769436Y-145547389D01*
X99972484Y-145507000D01*
X100179516Y-145507000D01*
X100382564Y-145547389D01*
G37*
G36*
X150674564Y-145039389D02*
G01*
X150865833Y-145118615D01*
X150865835Y-145118616D01*
X151037973Y-145233635D01*
X151184365Y-145380027D01*
X151296193Y-145547389D01*
X151299385Y-145552167D01*
X151378611Y-145743436D01*
X151419000Y-145946484D01*
X151419000Y-146153516D01*
X151378611Y-146356564D01*
X151338051Y-146454484D01*
X151299384Y-146547835D01*
X151184365Y-146719973D01*
X151037973Y-146866365D01*
X150865835Y-146981384D01*
X150865834Y-146981385D01*
X150865833Y-146981385D01*
X150674564Y-147060611D01*
X150471516Y-147101000D01*
X150264484Y-147101000D01*
X150061436Y-147060611D01*
X149870167Y-146981385D01*
X149870166Y-146981385D01*
X149870165Y-146981384D01*
X149698027Y-146866365D01*
X149551635Y-146719973D01*
X149436616Y-146547835D01*
X149397949Y-146454484D01*
X149357389Y-146356564D01*
X149317000Y-146153516D01*
X149317000Y-145946484D01*
X149357389Y-145743436D01*
X149436615Y-145552167D01*
X149439808Y-145547389D01*
X149551635Y-145380027D01*
X149698027Y-145233635D01*
X149870165Y-145118616D01*
X149870167Y-145118615D01*
X150061436Y-145039389D01*
X150264484Y-144999000D01*
X150471516Y-144999000D01*
X150674564Y-145039389D01*
G37*
G36*
X145594564Y-145039389D02*
G01*
X145785833Y-145118615D01*
X145785835Y-145118616D01*
X145957973Y-145233635D01*
X146104365Y-145380027D01*
X146216193Y-145547389D01*
X146219385Y-145552167D01*
X146298611Y-145743436D01*
X146339000Y-145946484D01*
X146339000Y-146153516D01*
X146298611Y-146356564D01*
X146258051Y-146454484D01*
X146219384Y-146547835D01*
X146104365Y-146719973D01*
X145957973Y-146866365D01*
X145785835Y-146981384D01*
X145785834Y-146981385D01*
X145785833Y-146981385D01*
X145594564Y-147060611D01*
X145391516Y-147101000D01*
X145184484Y-147101000D01*
X144981436Y-147060611D01*
X144790167Y-146981385D01*
X144790166Y-146981385D01*
X144790165Y-146981384D01*
X144618027Y-146866365D01*
X144471635Y-146719973D01*
X144356616Y-146547835D01*
X144317949Y-146454484D01*
X144277389Y-146356564D01*
X144237000Y-146153516D01*
X144237000Y-145946484D01*
X144277389Y-145743436D01*
X144356615Y-145552167D01*
X144359808Y-145547389D01*
X144471635Y-145380027D01*
X144618027Y-145233635D01*
X144790165Y-145118616D01*
X144790167Y-145118615D01*
X144981436Y-145039389D01*
X145184484Y-144999000D01*
X145391516Y-144999000D01*
X145594564Y-145039389D01*
G37*
G36*
X138773000Y-146901000D02*
G01*
X137071000Y-146901000D01*
X137071000Y-145199000D01*
X138773000Y-145199000D01*
X138773000Y-146901000D01*
G37*
G36*
X123496564Y-143642389D02*
G01*
X123687833Y-143721615D01*
X123687835Y-143721616D01*
X123859973Y-143836635D01*
X124006365Y-143983027D01*
X124121385Y-144155167D01*
X124200611Y-144346436D01*
X124241000Y-144549484D01*
X124241000Y-144756516D01*
X124200611Y-144959564D01*
X124121385Y-145150833D01*
X124121384Y-145150835D01*
X124006365Y-145322973D01*
X123859973Y-145469365D01*
X123687835Y-145584384D01*
X123687834Y-145584385D01*
X123687833Y-145584385D01*
X123496564Y-145663611D01*
X123293516Y-145704000D01*
X123086484Y-145704000D01*
X122883436Y-145663611D01*
X122692167Y-145584385D01*
X122692166Y-145584385D01*
X122692165Y-145584384D01*
X122520027Y-145469365D01*
X122373635Y-145322973D01*
X122258616Y-145150835D01*
X122258615Y-145150833D01*
X122179389Y-144959564D01*
X122139000Y-144756516D01*
X122139000Y-144549484D01*
X122179389Y-144346436D01*
X122258615Y-144155167D01*
X122373635Y-143983027D01*
X122520027Y-143836635D01*
X122692165Y-143721616D01*
X122692167Y-143721615D01*
X122883436Y-143642389D01*
X123086484Y-143602000D01*
X123293516Y-143602000D01*
X123496564Y-143642389D01*
G37*
G36*
X128576564Y-143642389D02*
G01*
X128767833Y-143721615D01*
X128767835Y-143721616D01*
X128939973Y-143836635D01*
X129086365Y-143983027D01*
X129201385Y-144155167D01*
X129280611Y-144346436D01*
X129321000Y-144549484D01*
X129321000Y-144756516D01*
X129280611Y-144959564D01*
X129201385Y-145150833D01*
X129201384Y-145150835D01*
X129086365Y-145322973D01*
X128939973Y-145469365D01*
X128767835Y-145584384D01*
X128767834Y-145584385D01*
X128767833Y-145584385D01*
X128576564Y-145663611D01*
X128373516Y-145704000D01*
X128166484Y-145704000D01*
X127963436Y-145663611D01*
X127772167Y-145584385D01*
X127772166Y-145584385D01*
X127772165Y-145584384D01*
X127600027Y-145469365D01*
X127453635Y-145322973D01*
X127338616Y-145150835D01*
X127338615Y-145150833D01*
X127259389Y-144959564D01*
X127219000Y-144756516D01*
X127219000Y-144549484D01*
X127259389Y-144346436D01*
X127338615Y-144155167D01*
X127453635Y-143983027D01*
X127600027Y-143836635D01*
X127772165Y-143721616D01*
X127772167Y-143721615D01*
X127963436Y-143642389D01*
X128166484Y-143602000D01*
X128373516Y-143602000D01*
X128576564Y-143642389D01*
G37*
G36*
X104700564Y-143642389D02*
G01*
X104891833Y-143721615D01*
X104891835Y-143721616D01*
X105063973Y-143836635D01*
X105210365Y-143983027D01*
X105325385Y-144155167D01*
X105404611Y-144346436D01*
X105445000Y-144549484D01*
X105445000Y-144756516D01*
X105404611Y-144959564D01*
X105325385Y-145150833D01*
X105325384Y-145150835D01*
X105210365Y-145322973D01*
X105063973Y-145469365D01*
X104891835Y-145584384D01*
X104891834Y-145584385D01*
X104891833Y-145584385D01*
X104700564Y-145663611D01*
X104497516Y-145704000D01*
X104290484Y-145704000D01*
X104087436Y-145663611D01*
X103896167Y-145584385D01*
X103896166Y-145584385D01*
X103896165Y-145584384D01*
X103724027Y-145469365D01*
X103577635Y-145322973D01*
X103462616Y-145150835D01*
X103462615Y-145150833D01*
X103383389Y-144959564D01*
X103343000Y-144756516D01*
X103343000Y-144549484D01*
X103383389Y-144346436D01*
X103462615Y-144155167D01*
X103577635Y-143983027D01*
X103724027Y-143836635D01*
X103896165Y-143721616D01*
X103896167Y-143721615D01*
X104087436Y-143642389D01*
X104290484Y-143602000D01*
X104497516Y-143602000D01*
X104700564Y-143642389D01*
G37*
G36*
X109780564Y-143642389D02*
G01*
X109971833Y-143721615D01*
X109971835Y-143721616D01*
X110143973Y-143836635D01*
X110290365Y-143983027D01*
X110405385Y-144155167D01*
X110484611Y-144346436D01*
X110525000Y-144549484D01*
X110525000Y-144756516D01*
X110484611Y-144959564D01*
X110405385Y-145150833D01*
X110405384Y-145150835D01*
X110290365Y-145322973D01*
X110143973Y-145469365D01*
X109971835Y-145584384D01*
X109971834Y-145584385D01*
X109971833Y-145584385D01*
X109780564Y-145663611D01*
X109577516Y-145704000D01*
X109370484Y-145704000D01*
X109167436Y-145663611D01*
X108976167Y-145584385D01*
X108976166Y-145584385D01*
X108976165Y-145584384D01*
X108804027Y-145469365D01*
X108657635Y-145322973D01*
X108542616Y-145150835D01*
X108542615Y-145150833D01*
X108463389Y-144959564D01*
X108423000Y-144756516D01*
X108423000Y-144549484D01*
X108463389Y-144346436D01*
X108542615Y-144155167D01*
X108657635Y-143983027D01*
X108804027Y-143836635D01*
X108976165Y-143721616D01*
X108976167Y-143721615D01*
X109167436Y-143642389D01*
X109370484Y-143602000D01*
X109577516Y-143602000D01*
X109780564Y-143642389D01*
G37*
G36*
X114860564Y-143642389D02*
G01*
X115051833Y-143721615D01*
X115051835Y-143721616D01*
X115223973Y-143836635D01*
X115370365Y-143983027D01*
X115485385Y-144155167D01*
X115564611Y-144346436D01*
X115605000Y-144549484D01*
X115605000Y-144756516D01*
X115564611Y-144959564D01*
X115485385Y-145150833D01*
X115485384Y-145150835D01*
X115370365Y-145322973D01*
X115223973Y-145469365D01*
X115051835Y-145584384D01*
X115051834Y-145584385D01*
X115051833Y-145584385D01*
X114860564Y-145663611D01*
X114657516Y-145704000D01*
X114450484Y-145704000D01*
X114247436Y-145663611D01*
X114056167Y-145584385D01*
X114056166Y-145584385D01*
X114056165Y-145584384D01*
X113884027Y-145469365D01*
X113737635Y-145322973D01*
X113622616Y-145150835D01*
X113622615Y-145150833D01*
X113543389Y-144959564D01*
X113503000Y-144756516D01*
X113503000Y-144549484D01*
X113543389Y-144346436D01*
X113622615Y-144155167D01*
X113737635Y-143983027D01*
X113884027Y-143836635D01*
X114056165Y-143721616D01*
X114056167Y-143721615D01*
X114247436Y-143642389D01*
X114450484Y-143602000D01*
X114657516Y-143602000D01*
X114860564Y-143642389D01*
G37*
G36*
X85904564Y-143642389D02*
G01*
X86095833Y-143721615D01*
X86095835Y-143721616D01*
X86267973Y-143836635D01*
X86414365Y-143983027D01*
X86529385Y-144155167D01*
X86608611Y-144346436D01*
X86649000Y-144549484D01*
X86649000Y-144756516D01*
X86608611Y-144959564D01*
X86529385Y-145150833D01*
X86529384Y-145150835D01*
X86414365Y-145322973D01*
X86267973Y-145469365D01*
X86095835Y-145584384D01*
X86095834Y-145584385D01*
X86095833Y-145584385D01*
X85904564Y-145663611D01*
X85701516Y-145704000D01*
X85494484Y-145704000D01*
X85291436Y-145663611D01*
X85100167Y-145584385D01*
X85100166Y-145584385D01*
X85100165Y-145584384D01*
X84928027Y-145469365D01*
X84781635Y-145322973D01*
X84666616Y-145150835D01*
X84666615Y-145150833D01*
X84587389Y-144959564D01*
X84547000Y-144756516D01*
X84547000Y-144549484D01*
X84587389Y-144346436D01*
X84666615Y-144155167D01*
X84781635Y-143983027D01*
X84928027Y-143836635D01*
X85100165Y-143721616D01*
X85100167Y-143721615D01*
X85291436Y-143642389D01*
X85494484Y-143602000D01*
X85701516Y-143602000D01*
X85904564Y-143642389D01*
G37*
G36*
X90984564Y-143642389D02*
G01*
X91175833Y-143721615D01*
X91175835Y-143721616D01*
X91347973Y-143836635D01*
X91494365Y-143983027D01*
X91609385Y-144155167D01*
X91688611Y-144346436D01*
X91729000Y-144549484D01*
X91729000Y-144756516D01*
X91688611Y-144959564D01*
X91609385Y-145150833D01*
X91609384Y-145150835D01*
X91494365Y-145322973D01*
X91347973Y-145469365D01*
X91175835Y-145584384D01*
X91175834Y-145584385D01*
X91175833Y-145584385D01*
X90984564Y-145663611D01*
X90781516Y-145704000D01*
X90574484Y-145704000D01*
X90371436Y-145663611D01*
X90180167Y-145584385D01*
X90180166Y-145584385D01*
X90180165Y-145584384D01*
X90008027Y-145469365D01*
X89861635Y-145322973D01*
X89746616Y-145150835D01*
X89746615Y-145150833D01*
X89667389Y-144959564D01*
X89627000Y-144756516D01*
X89627000Y-144549484D01*
X89667389Y-144346436D01*
X89746615Y-144155167D01*
X89861635Y-143983027D01*
X90008027Y-143836635D01*
X90180165Y-143721616D01*
X90180167Y-143721615D01*
X90371436Y-143642389D01*
X90574484Y-143602000D01*
X90781516Y-143602000D01*
X90984564Y-143642389D01*
G37*
G36*
X96064564Y-143642389D02*
G01*
X96255833Y-143721615D01*
X96255835Y-143721616D01*
X96427973Y-143836635D01*
X96574365Y-143983027D01*
X96689385Y-144155167D01*
X96768611Y-144346436D01*
X96809000Y-144549484D01*
X96809000Y-144756516D01*
X96768611Y-144959564D01*
X96689385Y-145150833D01*
X96689384Y-145150835D01*
X96574365Y-145322973D01*
X96427973Y-145469365D01*
X96255835Y-145584384D01*
X96255834Y-145584385D01*
X96255833Y-145584385D01*
X96064564Y-145663611D01*
X95861516Y-145704000D01*
X95654484Y-145704000D01*
X95451436Y-145663611D01*
X95260167Y-145584385D01*
X95260166Y-145584385D01*
X95260165Y-145584384D01*
X95088027Y-145469365D01*
X94941635Y-145322973D01*
X94826616Y-145150835D01*
X94826615Y-145150833D01*
X94747389Y-144959564D01*
X94707000Y-144756516D01*
X94707000Y-144549484D01*
X94747389Y-144346436D01*
X94826615Y-144155167D01*
X94941635Y-143983027D01*
X95088027Y-143836635D01*
X95260165Y-143721616D01*
X95260167Y-143721615D01*
X95451436Y-143642389D01*
X95654484Y-143602000D01*
X95861516Y-143602000D01*
X96064564Y-143642389D01*
G37*
G36*
X118416564Y-143642389D02*
G01*
X118607833Y-143721615D01*
X118607835Y-143721616D01*
X118779973Y-143836635D01*
X118926365Y-143983027D01*
X119041385Y-144155167D01*
X119120611Y-144346436D01*
X119161000Y-144549484D01*
X119161000Y-144756516D01*
X119120611Y-144959564D01*
X119041385Y-145150833D01*
X119041384Y-145150835D01*
X118926365Y-145322973D01*
X118779973Y-145469365D01*
X118607835Y-145584384D01*
X118607834Y-145584385D01*
X118607833Y-145584385D01*
X118416564Y-145663611D01*
X118213516Y-145704000D01*
X118006484Y-145704000D01*
X117803436Y-145663611D01*
X117612167Y-145584385D01*
X117612166Y-145584385D01*
X117612165Y-145584384D01*
X117440027Y-145469365D01*
X117293635Y-145322973D01*
X117178616Y-145150835D01*
X117178615Y-145150833D01*
X117099389Y-144959564D01*
X117059000Y-144756516D01*
X117059000Y-144549484D01*
X117099389Y-144346436D01*
X117178615Y-144155167D01*
X117293635Y-143983027D01*
X117440027Y-143836635D01*
X117612165Y-143721616D01*
X117612167Y-143721615D01*
X117803436Y-143642389D01*
X118006484Y-143602000D01*
X118213516Y-143602000D01*
X118416564Y-143642389D01*
G37*
G36*
X138170228Y-141731703D02*
G01*
X138325100Y-141795853D01*
X138464481Y-141888985D01*
X138583015Y-142007519D01*
X138676147Y-142146900D01*
X138740297Y-142301772D01*
X138773000Y-142466184D01*
X138773000Y-142633816D01*
X138740297Y-142798228D01*
X138676147Y-142953100D01*
X138583015Y-143092481D01*
X138464481Y-143211015D01*
X138325100Y-143304147D01*
X138170228Y-143368297D01*
X138005816Y-143401000D01*
X137838184Y-143401000D01*
X137673772Y-143368297D01*
X137518900Y-143304147D01*
X137379519Y-143211015D01*
X137260985Y-143092481D01*
X137167853Y-142953100D01*
X137103703Y-142798228D01*
X137071000Y-142633816D01*
X137071000Y-142466184D01*
X137103703Y-142301772D01*
X137167853Y-142146900D01*
X137260985Y-142007519D01*
X137379519Y-141888985D01*
X137518900Y-141795853D01*
X137673772Y-141731703D01*
X137838184Y-141699000D01*
X138005816Y-141699000D01*
X138170228Y-141731703D01*
G37*
G36*
X159625512Y-141089927D02*
G01*
X159774812Y-141119624D01*
X159938784Y-141187544D01*
X160086354Y-141286147D01*
X160211853Y-141411646D01*
X160310456Y-141559216D01*
X160378376Y-141723188D01*
X160413000Y-141897259D01*
X160413000Y-142074741D01*
X160378376Y-142248812D01*
X160310456Y-142412784D01*
X160211853Y-142560354D01*
X160086354Y-142685853D01*
X159938784Y-142784456D01*
X159774812Y-142852376D01*
X159625512Y-142882073D01*
X159600742Y-142887000D01*
X159423258Y-142887000D01*
X159398488Y-142882073D01*
X159249188Y-142852376D01*
X159085216Y-142784456D01*
X158937646Y-142685853D01*
X158812147Y-142560354D01*
X158713544Y-142412784D01*
X158645624Y-142248812D01*
X158611000Y-142074741D01*
X158611000Y-141897259D01*
X158645624Y-141723188D01*
X158713544Y-141559216D01*
X158812147Y-141411646D01*
X158937646Y-141286147D01*
X159085216Y-141187544D01*
X159249188Y-141119624D01*
X159398488Y-141089927D01*
X159423258Y-141085000D01*
X159600742Y-141085000D01*
X159625512Y-141089927D01*
G37*
G36*
X157873000Y-142887000D02*
G01*
X156071000Y-142887000D01*
X156071000Y-141085000D01*
X157873000Y-141085000D01*
X157873000Y-142887000D01*
G37*
G36*
X162165512Y-141089927D02*
G01*
X162314812Y-141119624D01*
X162478784Y-141187544D01*
X162626354Y-141286147D01*
X162751853Y-141411646D01*
X162850456Y-141559216D01*
X162918376Y-141723188D01*
X162953000Y-141897259D01*
X162953000Y-142074741D01*
X162918376Y-142248812D01*
X162850456Y-142412784D01*
X162751853Y-142560354D01*
X162626354Y-142685853D01*
X162478784Y-142784456D01*
X162314812Y-142852376D01*
X162165512Y-142882073D01*
X162140742Y-142887000D01*
X161963258Y-142887000D01*
X161938488Y-142882073D01*
X161789188Y-142852376D01*
X161625216Y-142784456D01*
X161477646Y-142685853D01*
X161352147Y-142560354D01*
X161253544Y-142412784D01*
X161185624Y-142248812D01*
X161151000Y-142074741D01*
X161151000Y-141897259D01*
X161185624Y-141723188D01*
X161253544Y-141559216D01*
X161352147Y-141411646D01*
X161477646Y-141286147D01*
X161625216Y-141187544D01*
X161789188Y-141119624D01*
X161938488Y-141089927D01*
X161963258Y-141085000D01*
X162140742Y-141085000D01*
X162165512Y-141089927D01*
G37*
G36*
X120644228Y-140659703D02*
G01*
X120799100Y-140723853D01*
X120938481Y-140816985D01*
X121057015Y-140935519D01*
X121150147Y-141074900D01*
X121214297Y-141229772D01*
X121247000Y-141394184D01*
X121247000Y-141561816D01*
X121214297Y-141726228D01*
X121150147Y-141881100D01*
X121057015Y-142020481D01*
X120938481Y-142139015D01*
X120799100Y-142232147D01*
X120644228Y-142296297D01*
X120479816Y-142329000D01*
X120312184Y-142329000D01*
X120147772Y-142296297D01*
X119992900Y-142232147D01*
X119853519Y-142139015D01*
X119734985Y-142020481D01*
X119641853Y-141881100D01*
X119577703Y-141726228D01*
X119545000Y-141561816D01*
X119545000Y-141394184D01*
X119577703Y-141229772D01*
X119641853Y-141074900D01*
X119734985Y-140935519D01*
X119853519Y-140816985D01*
X119992900Y-140723853D01*
X120147772Y-140659703D01*
X120312184Y-140627000D01*
X120479816Y-140627000D01*
X120644228Y-140659703D01*
G37*
G36*
X109976228Y-140659703D02*
G01*
X110131100Y-140723853D01*
X110270481Y-140816985D01*
X110389015Y-140935519D01*
X110482147Y-141074900D01*
X110546297Y-141229772D01*
X110579000Y-141394184D01*
X110579000Y-141561816D01*
X110546297Y-141726228D01*
X110482147Y-141881100D01*
X110389015Y-142020481D01*
X110270481Y-142139015D01*
X110131100Y-142232147D01*
X109976228Y-142296297D01*
X109811816Y-142329000D01*
X109644184Y-142329000D01*
X109479772Y-142296297D01*
X109324900Y-142232147D01*
X109185519Y-142139015D01*
X109066985Y-142020481D01*
X108973853Y-141881100D01*
X108909703Y-141726228D01*
X108877000Y-141561816D01*
X108877000Y-141394184D01*
X108909703Y-141229772D01*
X108973853Y-141074900D01*
X109066985Y-140935519D01*
X109185519Y-140816985D01*
X109324900Y-140723853D01*
X109479772Y-140659703D01*
X109644184Y-140627000D01*
X109811816Y-140627000D01*
X109976228Y-140659703D01*
G37*
G36*
X116072228Y-140659703D02*
G01*
X116227100Y-140723853D01*
X116366481Y-140816985D01*
X116485015Y-140935519D01*
X116578147Y-141074900D01*
X116642297Y-141229772D01*
X116675000Y-141394184D01*
X116675000Y-141561816D01*
X116642297Y-141726228D01*
X116578147Y-141881100D01*
X116485015Y-142020481D01*
X116366481Y-142139015D01*
X116227100Y-142232147D01*
X116072228Y-142296297D01*
X115907816Y-142329000D01*
X115740184Y-142329000D01*
X115575772Y-142296297D01*
X115420900Y-142232147D01*
X115281519Y-142139015D01*
X115162985Y-142020481D01*
X115069853Y-141881100D01*
X115005703Y-141726228D01*
X114973000Y-141561816D01*
X114973000Y-141394184D01*
X115005703Y-141229772D01*
X115069853Y-141074900D01*
X115162985Y-140935519D01*
X115281519Y-140816985D01*
X115420900Y-140723853D01*
X115575772Y-140659703D01*
X115740184Y-140627000D01*
X115907816Y-140627000D01*
X116072228Y-140659703D01*
G37*
G36*
X99054228Y-140659703D02*
G01*
X99209100Y-140723853D01*
X99348481Y-140816985D01*
X99467015Y-140935519D01*
X99560147Y-141074900D01*
X99624297Y-141229772D01*
X99657000Y-141394184D01*
X99657000Y-141561816D01*
X99624297Y-141726228D01*
X99560147Y-141881100D01*
X99467015Y-142020481D01*
X99348481Y-142139015D01*
X99209100Y-142232147D01*
X99054228Y-142296297D01*
X98889816Y-142329000D01*
X98722184Y-142329000D01*
X98557772Y-142296297D01*
X98402900Y-142232147D01*
X98263519Y-142139015D01*
X98144985Y-142020481D01*
X98051853Y-141881100D01*
X97987703Y-141726228D01*
X97955000Y-141561816D01*
X97955000Y-141394184D01*
X97987703Y-141229772D01*
X98051853Y-141074900D01*
X98144985Y-140935519D01*
X98263519Y-140816985D01*
X98402900Y-140723853D01*
X98557772Y-140659703D01*
X98722184Y-140627000D01*
X98889816Y-140627000D01*
X99054228Y-140659703D01*
G37*
G36*
X94482228Y-140659703D02*
G01*
X94637100Y-140723853D01*
X94776481Y-140816985D01*
X94895015Y-140935519D01*
X94988147Y-141074900D01*
X95052297Y-141229772D01*
X95085000Y-141394184D01*
X95085000Y-141561816D01*
X95052297Y-141726228D01*
X94988147Y-141881100D01*
X94895015Y-142020481D01*
X94776481Y-142139015D01*
X94637100Y-142232147D01*
X94482228Y-142296297D01*
X94317816Y-142329000D01*
X94150184Y-142329000D01*
X93985772Y-142296297D01*
X93830900Y-142232147D01*
X93691519Y-142139015D01*
X93572985Y-142020481D01*
X93479853Y-141881100D01*
X93415703Y-141726228D01*
X93383000Y-141561816D01*
X93383000Y-141394184D01*
X93415703Y-141229772D01*
X93479853Y-141074900D01*
X93572985Y-140935519D01*
X93691519Y-140816985D01*
X93830900Y-140723853D01*
X93985772Y-140659703D01*
X94150184Y-140627000D01*
X94317816Y-140627000D01*
X94482228Y-140659703D01*
G37*
G36*
X105404228Y-140659703D02*
G01*
X105559100Y-140723853D01*
X105698481Y-140816985D01*
X105817015Y-140935519D01*
X105910147Y-141074900D01*
X105974297Y-141229772D01*
X106007000Y-141394184D01*
X106007000Y-141561816D01*
X105974297Y-141726228D01*
X105910147Y-141881100D01*
X105817015Y-142020481D01*
X105698481Y-142139015D01*
X105559100Y-142232147D01*
X105404228Y-142296297D01*
X105239816Y-142329000D01*
X105072184Y-142329000D01*
X104907772Y-142296297D01*
X104752900Y-142232147D01*
X104613519Y-142139015D01*
X104494985Y-142020481D01*
X104401853Y-141881100D01*
X104337703Y-141726228D01*
X104305000Y-141561816D01*
X104305000Y-141394184D01*
X104337703Y-141229772D01*
X104401853Y-141074900D01*
X104494985Y-140935519D01*
X104613519Y-140816985D01*
X104752900Y-140723853D01*
X104907772Y-140659703D01*
X105072184Y-140627000D01*
X105239816Y-140627000D01*
X105404228Y-140659703D01*
G37*
G36*
X127306564Y-140086389D02*
G01*
X127497833Y-140165615D01*
X127497835Y-140165616D01*
X127669973Y-140280635D01*
X127816365Y-140427027D01*
X127931385Y-140599167D01*
X128010611Y-140790436D01*
X128051000Y-140993484D01*
X128051000Y-141200516D01*
X128010611Y-141403564D01*
X127965281Y-141513000D01*
X127931384Y-141594835D01*
X127816365Y-141766973D01*
X127669973Y-141913365D01*
X127497835Y-142028384D01*
X127497834Y-142028385D01*
X127497833Y-142028385D01*
X127306564Y-142107611D01*
X127103516Y-142148000D01*
X126896484Y-142148000D01*
X126693436Y-142107611D01*
X126502167Y-142028385D01*
X126502166Y-142028385D01*
X126502165Y-142028384D01*
X126330027Y-141913365D01*
X126183635Y-141766973D01*
X126068616Y-141594835D01*
X126034719Y-141513000D01*
X125989389Y-141403564D01*
X125949000Y-141200516D01*
X125949000Y-140993484D01*
X125989389Y-140790436D01*
X126068615Y-140599167D01*
X126183635Y-140427027D01*
X126330027Y-140280635D01*
X126502165Y-140165616D01*
X126502167Y-140165615D01*
X126693436Y-140086389D01*
X126896484Y-140046000D01*
X127103516Y-140046000D01*
X127306564Y-140086389D01*
G37*
G36*
X87682564Y-139451389D02*
G01*
X87873833Y-139530615D01*
X87873835Y-139530616D01*
X88045973Y-139645635D01*
X88192365Y-139792027D01*
X88307385Y-139964167D01*
X88386611Y-140155436D01*
X88427000Y-140358484D01*
X88427000Y-140565516D01*
X88386611Y-140768564D01*
X88377551Y-140790436D01*
X88307384Y-140959835D01*
X88192365Y-141131973D01*
X88045973Y-141278365D01*
X87873835Y-141393384D01*
X87873834Y-141393385D01*
X87873833Y-141393385D01*
X87682564Y-141472611D01*
X87479516Y-141513000D01*
X87272484Y-141513000D01*
X87069436Y-141472611D01*
X86878167Y-141393385D01*
X86878166Y-141393385D01*
X86878165Y-141393384D01*
X86706027Y-141278365D01*
X86559635Y-141131973D01*
X86444616Y-140959835D01*
X86374449Y-140790436D01*
X86365389Y-140768564D01*
X86325000Y-140565516D01*
X86325000Y-140358484D01*
X86365389Y-140155436D01*
X86444615Y-139964167D01*
X86559635Y-139792027D01*
X86706027Y-139645635D01*
X86878165Y-139530616D01*
X86878167Y-139530615D01*
X87069436Y-139451389D01*
X87272484Y-139411000D01*
X87479516Y-139411000D01*
X87682564Y-139451389D01*
G37*
G36*
X164840228Y-135325703D02*
G01*
X164995100Y-135389853D01*
X165134481Y-135482985D01*
X165253015Y-135601519D01*
X165346147Y-135740900D01*
X165410297Y-135895772D01*
X165443000Y-136060184D01*
X165443000Y-136227816D01*
X165410297Y-136392228D01*
X165346147Y-136547100D01*
X165253015Y-136686481D01*
X165134481Y-136805015D01*
X164995100Y-136898147D01*
X164840228Y-136962297D01*
X164675816Y-136995000D01*
X164508184Y-136995000D01*
X164343772Y-136962297D01*
X164188900Y-136898147D01*
X164049519Y-136805015D01*
X163930985Y-136686481D01*
X163837853Y-136547100D01*
X163773703Y-136392228D01*
X163741000Y-136227816D01*
X163741000Y-136060184D01*
X163773703Y-135895772D01*
X163837853Y-135740900D01*
X163930985Y-135601519D01*
X164049519Y-135482985D01*
X164188900Y-135389853D01*
X164343772Y-135325703D01*
X164508184Y-135293000D01*
X164675816Y-135293000D01*
X164840228Y-135325703D01*
G37*
G36*
X162300228Y-135325703D02*
G01*
X162455100Y-135389853D01*
X162594481Y-135482985D01*
X162713015Y-135601519D01*
X162806147Y-135740900D01*
X162870297Y-135895772D01*
X162903000Y-136060184D01*
X162903000Y-136227816D01*
X162870297Y-136392228D01*
X162806147Y-136547100D01*
X162713015Y-136686481D01*
X162594481Y-136805015D01*
X162455100Y-136898147D01*
X162300228Y-136962297D01*
X162135816Y-136995000D01*
X161968184Y-136995000D01*
X161803772Y-136962297D01*
X161648900Y-136898147D01*
X161509519Y-136805015D01*
X161390985Y-136686481D01*
X161297853Y-136547100D01*
X161233703Y-136392228D01*
X161201000Y-136227816D01*
X161201000Y-136060184D01*
X161233703Y-135895772D01*
X161297853Y-135740900D01*
X161390985Y-135601519D01*
X161509519Y-135482985D01*
X161648900Y-135389853D01*
X161803772Y-135325703D01*
X161968184Y-135293000D01*
X162135816Y-135293000D01*
X162300228Y-135325703D01*
G37*
G36*
X150203000Y-136995000D02*
G01*
X148501000Y-136995000D01*
X148501000Y-135293000D01*
X150203000Y-135293000D01*
X150203000Y-136995000D01*
G37*
G36*
X157220228Y-135325703D02*
G01*
X157375100Y-135389853D01*
X157514481Y-135482985D01*
X157633015Y-135601519D01*
X157726147Y-135740900D01*
X157790297Y-135895772D01*
X157823000Y-136060184D01*
X157823000Y-136227816D01*
X157790297Y-136392228D01*
X157726147Y-136547100D01*
X157633015Y-136686481D01*
X157514481Y-136805015D01*
X157375100Y-136898147D01*
X157220228Y-136962297D01*
X157055816Y-136995000D01*
X156888184Y-136995000D01*
X156723772Y-136962297D01*
X156568900Y-136898147D01*
X156429519Y-136805015D01*
X156310985Y-136686481D01*
X156217853Y-136547100D01*
X156153703Y-136392228D01*
X156121000Y-136227816D01*
X156121000Y-136060184D01*
X156153703Y-135895772D01*
X156217853Y-135740900D01*
X156310985Y-135601519D01*
X156429519Y-135482985D01*
X156568900Y-135389853D01*
X156723772Y-135325703D01*
X156888184Y-135293000D01*
X157055816Y-135293000D01*
X157220228Y-135325703D01*
G37*
G36*
X152140228Y-135325703D02*
G01*
X152295100Y-135389853D01*
X152434481Y-135482985D01*
X152553015Y-135601519D01*
X152646147Y-135740900D01*
X152710297Y-135895772D01*
X152743000Y-136060184D01*
X152743000Y-136227816D01*
X152710297Y-136392228D01*
X152646147Y-136547100D01*
X152553015Y-136686481D01*
X152434481Y-136805015D01*
X152295100Y-136898147D01*
X152140228Y-136962297D01*
X151975816Y-136995000D01*
X151808184Y-136995000D01*
X151643772Y-136962297D01*
X151488900Y-136898147D01*
X151349519Y-136805015D01*
X151230985Y-136686481D01*
X151137853Y-136547100D01*
X151073703Y-136392228D01*
X151041000Y-136227816D01*
X151041000Y-136060184D01*
X151073703Y-135895772D01*
X151137853Y-135740900D01*
X151230985Y-135601519D01*
X151349519Y-135482985D01*
X151488900Y-135389853D01*
X151643772Y-135325703D01*
X151808184Y-135293000D01*
X151975816Y-135293000D01*
X152140228Y-135325703D01*
G37*
G36*
X154680228Y-135325703D02*
G01*
X154835100Y-135389853D01*
X154974481Y-135482985D01*
X155093015Y-135601519D01*
X155186147Y-135740900D01*
X155250297Y-135895772D01*
X155283000Y-136060184D01*
X155283000Y-136227816D01*
X155250297Y-136392228D01*
X155186147Y-136547100D01*
X155093015Y-136686481D01*
X154974481Y-136805015D01*
X154835100Y-136898147D01*
X154680228Y-136962297D01*
X154515816Y-136995000D01*
X154348184Y-136995000D01*
X154183772Y-136962297D01*
X154028900Y-136898147D01*
X153889519Y-136805015D01*
X153770985Y-136686481D01*
X153677853Y-136547100D01*
X153613703Y-136392228D01*
X153581000Y-136227816D01*
X153581000Y-136060184D01*
X153613703Y-135895772D01*
X153677853Y-135740900D01*
X153770985Y-135601519D01*
X153889519Y-135482985D01*
X154028900Y-135389853D01*
X154183772Y-135325703D01*
X154348184Y-135293000D01*
X154515816Y-135293000D01*
X154680228Y-135325703D01*
G37*
G36*
X159760228Y-135325703D02*
G01*
X159915100Y-135389853D01*
X160054481Y-135482985D01*
X160173015Y-135601519D01*
X160266147Y-135740900D01*
X160330297Y-135895772D01*
X160363000Y-136060184D01*
X160363000Y-136227816D01*
X160330297Y-136392228D01*
X160266147Y-136547100D01*
X160173015Y-136686481D01*
X160054481Y-136805015D01*
X159915100Y-136898147D01*
X159760228Y-136962297D01*
X159595816Y-136995000D01*
X159428184Y-136995000D01*
X159263772Y-136962297D01*
X159108900Y-136898147D01*
X158969519Y-136805015D01*
X158850985Y-136686481D01*
X158757853Y-136547100D01*
X158693703Y-136392228D01*
X158661000Y-136227816D01*
X158661000Y-136060184D01*
X158693703Y-135895772D01*
X158757853Y-135740900D01*
X158850985Y-135601519D01*
X158969519Y-135482985D01*
X159108900Y-135389853D01*
X159263772Y-135325703D01*
X159428184Y-135293000D01*
X159595816Y-135293000D01*
X159760228Y-135325703D01*
G37*
G36*
X105404228Y-133039703D02*
G01*
X105559100Y-133103853D01*
X105698481Y-133196985D01*
X105817015Y-133315519D01*
X105910147Y-133454900D01*
X105974297Y-133609772D01*
X106007000Y-133774184D01*
X106007000Y-133941816D01*
X105974297Y-134106228D01*
X105910147Y-134261100D01*
X105817015Y-134400481D01*
X105698481Y-134519015D01*
X105559100Y-134612147D01*
X105404228Y-134676297D01*
X105239816Y-134709000D01*
X105072184Y-134709000D01*
X104907772Y-134676297D01*
X104752900Y-134612147D01*
X104613519Y-134519015D01*
X104494985Y-134400481D01*
X104401853Y-134261100D01*
X104337703Y-134106228D01*
X104305000Y-133941816D01*
X104305000Y-133774184D01*
X104337703Y-133609772D01*
X104401853Y-133454900D01*
X104494985Y-133315519D01*
X104613519Y-133196985D01*
X104752900Y-133103853D01*
X104907772Y-133039703D01*
X105072184Y-133007000D01*
X105239816Y-133007000D01*
X105404228Y-133039703D01*
G37*
G36*
X109976228Y-133039703D02*
G01*
X110131100Y-133103853D01*
X110270481Y-133196985D01*
X110389015Y-133315519D01*
X110482147Y-133454900D01*
X110546297Y-133609772D01*
X110579000Y-133774184D01*
X110579000Y-133941816D01*
X110546297Y-134106228D01*
X110482147Y-134261100D01*
X110389015Y-134400481D01*
X110270481Y-134519015D01*
X110131100Y-134612147D01*
X109976228Y-134676297D01*
X109811816Y-134709000D01*
X109644184Y-134709000D01*
X109479772Y-134676297D01*
X109324900Y-134612147D01*
X109185519Y-134519015D01*
X109066985Y-134400481D01*
X108973853Y-134261100D01*
X108909703Y-134106228D01*
X108877000Y-133941816D01*
X108877000Y-133774184D01*
X108909703Y-133609772D01*
X108973853Y-133454900D01*
X109066985Y-133315519D01*
X109185519Y-133196985D01*
X109324900Y-133103853D01*
X109479772Y-133039703D01*
X109644184Y-133007000D01*
X109811816Y-133007000D01*
X109976228Y-133039703D01*
G37*
G36*
X94482228Y-133039703D02*
G01*
X94637100Y-133103853D01*
X94776481Y-133196985D01*
X94895015Y-133315519D01*
X94988147Y-133454900D01*
X95052297Y-133609772D01*
X95085000Y-133774184D01*
X95085000Y-133941816D01*
X95052297Y-134106228D01*
X94988147Y-134261100D01*
X94895015Y-134400481D01*
X94776481Y-134519015D01*
X94637100Y-134612147D01*
X94482228Y-134676297D01*
X94317816Y-134709000D01*
X94150184Y-134709000D01*
X93985772Y-134676297D01*
X93830900Y-134612147D01*
X93691519Y-134519015D01*
X93572985Y-134400481D01*
X93479853Y-134261100D01*
X93415703Y-134106228D01*
X93383000Y-133941816D01*
X93383000Y-133774184D01*
X93415703Y-133609772D01*
X93479853Y-133454900D01*
X93572985Y-133315519D01*
X93691519Y-133196985D01*
X93830900Y-133103853D01*
X93985772Y-133039703D01*
X94150184Y-133007000D01*
X94317816Y-133007000D01*
X94482228Y-133039703D01*
G37*
G36*
X116072228Y-133039703D02*
G01*
X116227100Y-133103853D01*
X116366481Y-133196985D01*
X116485015Y-133315519D01*
X116578147Y-133454900D01*
X116642297Y-133609772D01*
X116675000Y-133774184D01*
X116675000Y-133941816D01*
X116642297Y-134106228D01*
X116578147Y-134261100D01*
X116485015Y-134400481D01*
X116366481Y-134519015D01*
X116227100Y-134612147D01*
X116072228Y-134676297D01*
X115907816Y-134709000D01*
X115740184Y-134709000D01*
X115575772Y-134676297D01*
X115420900Y-134612147D01*
X115281519Y-134519015D01*
X115162985Y-134400481D01*
X115069853Y-134261100D01*
X115005703Y-134106228D01*
X114973000Y-133941816D01*
X114973000Y-133774184D01*
X115005703Y-133609772D01*
X115069853Y-133454900D01*
X115162985Y-133315519D01*
X115281519Y-133196985D01*
X115420900Y-133103853D01*
X115575772Y-133039703D01*
X115740184Y-133007000D01*
X115907816Y-133007000D01*
X116072228Y-133039703D01*
G37*
G36*
X120644228Y-133039703D02*
G01*
X120799100Y-133103853D01*
X120938481Y-133196985D01*
X121057015Y-133315519D01*
X121150147Y-133454900D01*
X121214297Y-133609772D01*
X121247000Y-133774184D01*
X121247000Y-133941816D01*
X121214297Y-134106228D01*
X121150147Y-134261100D01*
X121057015Y-134400481D01*
X120938481Y-134519015D01*
X120799100Y-134612147D01*
X120644228Y-134676297D01*
X120479816Y-134709000D01*
X120312184Y-134709000D01*
X120147772Y-134676297D01*
X119992900Y-134612147D01*
X119853519Y-134519015D01*
X119734985Y-134400481D01*
X119641853Y-134261100D01*
X119577703Y-134106228D01*
X119545000Y-133941816D01*
X119545000Y-133774184D01*
X119577703Y-133609772D01*
X119641853Y-133454900D01*
X119734985Y-133315519D01*
X119853519Y-133196985D01*
X119992900Y-133103853D01*
X120147772Y-133039703D01*
X120312184Y-133007000D01*
X120479816Y-133007000D01*
X120644228Y-133039703D01*
G37*
G36*
X99054228Y-133039703D02*
G01*
X99209100Y-133103853D01*
X99348481Y-133196985D01*
X99467015Y-133315519D01*
X99560147Y-133454900D01*
X99624297Y-133609772D01*
X99657000Y-133774184D01*
X99657000Y-133941816D01*
X99624297Y-134106228D01*
X99560147Y-134261100D01*
X99467015Y-134400481D01*
X99348481Y-134519015D01*
X99209100Y-134612147D01*
X99054228Y-134676297D01*
X98889816Y-134709000D01*
X98722184Y-134709000D01*
X98557772Y-134676297D01*
X98402900Y-134612147D01*
X98263519Y-134519015D01*
X98144985Y-134400481D01*
X98051853Y-134261100D01*
X97987703Y-134106228D01*
X97955000Y-133941816D01*
X97955000Y-133774184D01*
X97987703Y-133609772D01*
X98051853Y-133454900D01*
X98144985Y-133315519D01*
X98263519Y-133196985D01*
X98402900Y-133103853D01*
X98557772Y-133039703D01*
X98722184Y-133007000D01*
X98889816Y-133007000D01*
X99054228Y-133039703D01*
G37*
G36*
X85719256Y-130725298D02*
G01*
X85825579Y-130746447D01*
X86126042Y-130870903D01*
X86396451Y-131051585D01*
X86626415Y-131281549D01*
X86807097Y-131551958D01*
X86931553Y-131852421D01*
X86995000Y-132171391D01*
X86995000Y-132496609D01*
X86931553Y-132815579D01*
X86807097Y-133116042D01*
X86626415Y-133386451D01*
X86396451Y-133616415D01*
X86126042Y-133797097D01*
X85825579Y-133921553D01*
X85723715Y-133941815D01*
X85506611Y-133985000D01*
X85181389Y-133985000D01*
X84964285Y-133941815D01*
X84862421Y-133921553D01*
X84561958Y-133797097D01*
X84291549Y-133616415D01*
X84061585Y-133386451D01*
X83880903Y-133116042D01*
X83756447Y-132815579D01*
X83693000Y-132496609D01*
X83693000Y-132171391D01*
X83756447Y-131852421D01*
X83880903Y-131551958D01*
X84061585Y-131281549D01*
X84291549Y-131051585D01*
X84561958Y-130870903D01*
X84862421Y-130746447D01*
X84968744Y-130725298D01*
X85181389Y-130683000D01*
X85506611Y-130683000D01*
X85719256Y-130725298D01*
G37*
G36*
X136138228Y-132277703D02*
G01*
X136293100Y-132341853D01*
X136432481Y-132434985D01*
X136551015Y-132553519D01*
X136644147Y-132692900D01*
X136708297Y-132847772D01*
X136741000Y-133012184D01*
X136741000Y-133179816D01*
X136708297Y-133344228D01*
X136644147Y-133499100D01*
X136551015Y-133638481D01*
X136432481Y-133757015D01*
X136293100Y-133850147D01*
X136138228Y-133914297D01*
X135973816Y-133947000D01*
X135806184Y-133947000D01*
X135641772Y-133914297D01*
X135486900Y-133850147D01*
X135347519Y-133757015D01*
X135228985Y-133638481D01*
X135135853Y-133499100D01*
X135071703Y-133344228D01*
X135039000Y-133179816D01*
X135039000Y-133012184D01*
X135071703Y-132847772D01*
X135135853Y-132692900D01*
X135228985Y-132553519D01*
X135347519Y-132434985D01*
X135486900Y-132341853D01*
X135641772Y-132277703D01*
X135806184Y-132245000D01*
X135973816Y-132245000D01*
X136138228Y-132277703D01*
G37*
G36*
X133598228Y-132277703D02*
G01*
X133753100Y-132341853D01*
X133892481Y-132434985D01*
X134011015Y-132553519D01*
X134104147Y-132692900D01*
X134168297Y-132847772D01*
X134201000Y-133012184D01*
X134201000Y-133179816D01*
X134168297Y-133344228D01*
X134104147Y-133499100D01*
X134011015Y-133638481D01*
X133892481Y-133757015D01*
X133753100Y-133850147D01*
X133598228Y-133914297D01*
X133433816Y-133947000D01*
X133266184Y-133947000D01*
X133101772Y-133914297D01*
X132946900Y-133850147D01*
X132807519Y-133757015D01*
X132688985Y-133638481D01*
X132595853Y-133499100D01*
X132531703Y-133344228D01*
X132499000Y-133179816D01*
X132499000Y-133012184D01*
X132531703Y-132847772D01*
X132595853Y-132692900D01*
X132688985Y-132553519D01*
X132807519Y-132434985D01*
X132946900Y-132341853D01*
X133101772Y-132277703D01*
X133266184Y-132245000D01*
X133433816Y-132245000D01*
X133598228Y-132277703D01*
G37*
G36*
X131058228Y-132277703D02*
G01*
X131213100Y-132341853D01*
X131352481Y-132434985D01*
X131471015Y-132553519D01*
X131564147Y-132692900D01*
X131628297Y-132847772D01*
X131661000Y-133012184D01*
X131661000Y-133179816D01*
X131628297Y-133344228D01*
X131564147Y-133499100D01*
X131471015Y-133638481D01*
X131352481Y-133757015D01*
X131213100Y-133850147D01*
X131058228Y-133914297D01*
X130893816Y-133947000D01*
X130726184Y-133947000D01*
X130561772Y-133914297D01*
X130406900Y-133850147D01*
X130267519Y-133757015D01*
X130148985Y-133638481D01*
X130055853Y-133499100D01*
X129991703Y-133344228D01*
X129959000Y-133179816D01*
X129959000Y-133012184D01*
X129991703Y-132847772D01*
X130055853Y-132692900D01*
X130148985Y-132553519D01*
X130267519Y-132434985D01*
X130406900Y-132341853D01*
X130561772Y-132277703D01*
X130726184Y-132245000D01*
X130893816Y-132245000D01*
X131058228Y-132277703D01*
G37*
G36*
X129121000Y-133947000D02*
G01*
X127419000Y-133947000D01*
X127419000Y-132245000D01*
X129121000Y-132245000D01*
X129121000Y-133947000D01*
G37*
G36*
X145282228Y-130205703D02*
G01*
X145437100Y-130269853D01*
X145576481Y-130362985D01*
X145695015Y-130481519D01*
X145788147Y-130620900D01*
X145852297Y-130775772D01*
X145885000Y-130940184D01*
X145885000Y-131107816D01*
X145852297Y-131272228D01*
X145788147Y-131427100D01*
X145695015Y-131566481D01*
X145576481Y-131685015D01*
X145437100Y-131778147D01*
X145282228Y-131842297D01*
X145117816Y-131875000D01*
X144950184Y-131875000D01*
X144785772Y-131842297D01*
X144630900Y-131778147D01*
X144491519Y-131685015D01*
X144372985Y-131566481D01*
X144279853Y-131427100D01*
X144215703Y-131272228D01*
X144183000Y-131107816D01*
X144183000Y-130940184D01*
X144215703Y-130775772D01*
X144279853Y-130620900D01*
X144372985Y-130481519D01*
X144491519Y-130362985D01*
X144630900Y-130269853D01*
X144785772Y-130205703D01*
X144950184Y-130173000D01*
X145117816Y-130173000D01*
X145282228Y-130205703D01*
G37*
G36*
X149600228Y-127705703D02*
G01*
X149755100Y-127769853D01*
X149894481Y-127862985D01*
X150013015Y-127981519D01*
X150106147Y-128120900D01*
X150170297Y-128275772D01*
X150203000Y-128440184D01*
X150203000Y-128607816D01*
X150170297Y-128772228D01*
X150106147Y-128927100D01*
X150013015Y-129066481D01*
X149894481Y-129185015D01*
X149755100Y-129278147D01*
X149600228Y-129342297D01*
X149435816Y-129375000D01*
X149268184Y-129375000D01*
X149103772Y-129342297D01*
X148948900Y-129278147D01*
X148809519Y-129185015D01*
X148690985Y-129066481D01*
X148597853Y-128927100D01*
X148533703Y-128772228D01*
X148501000Y-128607816D01*
X148501000Y-128440184D01*
X148533703Y-128275772D01*
X148597853Y-128120900D01*
X148690985Y-127981519D01*
X148809519Y-127862985D01*
X148948900Y-127769853D01*
X149103772Y-127705703D01*
X149268184Y-127673000D01*
X149435816Y-127673000D01*
X149600228Y-127705703D01*
G37*
G36*
X152140228Y-127705703D02*
G01*
X152295100Y-127769853D01*
X152434481Y-127862985D01*
X152553015Y-127981519D01*
X152646147Y-128120900D01*
X152710297Y-128275772D01*
X152743000Y-128440184D01*
X152743000Y-128607816D01*
X152710297Y-128772228D01*
X152646147Y-128927100D01*
X152553015Y-129066481D01*
X152434481Y-129185015D01*
X152295100Y-129278147D01*
X152140228Y-129342297D01*
X151975816Y-129375000D01*
X151808184Y-129375000D01*
X151643772Y-129342297D01*
X151488900Y-129278147D01*
X151349519Y-129185015D01*
X151230985Y-129066481D01*
X151137853Y-128927100D01*
X151073703Y-128772228D01*
X151041000Y-128607816D01*
X151041000Y-128440184D01*
X151073703Y-128275772D01*
X151137853Y-128120900D01*
X151230985Y-127981519D01*
X151349519Y-127862985D01*
X151488900Y-127769853D01*
X151643772Y-127705703D01*
X151808184Y-127673000D01*
X151975816Y-127673000D01*
X152140228Y-127705703D01*
G37*
G36*
X154680228Y-127705703D02*
G01*
X154835100Y-127769853D01*
X154974481Y-127862985D01*
X155093015Y-127981519D01*
X155186147Y-128120900D01*
X155250297Y-128275772D01*
X155283000Y-128440184D01*
X155283000Y-128607816D01*
X155250297Y-128772228D01*
X155186147Y-128927100D01*
X155093015Y-129066481D01*
X154974481Y-129185015D01*
X154835100Y-129278147D01*
X154680228Y-129342297D01*
X154515816Y-129375000D01*
X154348184Y-129375000D01*
X154183772Y-129342297D01*
X154028900Y-129278147D01*
X153889519Y-129185015D01*
X153770985Y-129066481D01*
X153677853Y-128927100D01*
X153613703Y-128772228D01*
X153581000Y-128607816D01*
X153581000Y-128440184D01*
X153613703Y-128275772D01*
X153677853Y-128120900D01*
X153770985Y-127981519D01*
X153889519Y-127862985D01*
X154028900Y-127769853D01*
X154183772Y-127705703D01*
X154348184Y-127673000D01*
X154515816Y-127673000D01*
X154680228Y-127705703D01*
G37*
G36*
X157220228Y-127705703D02*
G01*
X157375100Y-127769853D01*
X157514481Y-127862985D01*
X157633015Y-127981519D01*
X157726147Y-128120900D01*
X157790297Y-128275772D01*
X157823000Y-128440184D01*
X157823000Y-128607816D01*
X157790297Y-128772228D01*
X157726147Y-128927100D01*
X157633015Y-129066481D01*
X157514481Y-129185015D01*
X157375100Y-129278147D01*
X157220228Y-129342297D01*
X157055816Y-129375000D01*
X156888184Y-129375000D01*
X156723772Y-129342297D01*
X156568900Y-129278147D01*
X156429519Y-129185015D01*
X156310985Y-129066481D01*
X156217853Y-128927100D01*
X156153703Y-128772228D01*
X156121000Y-128607816D01*
X156121000Y-128440184D01*
X156153703Y-128275772D01*
X156217853Y-128120900D01*
X156310985Y-127981519D01*
X156429519Y-127862985D01*
X156568900Y-127769853D01*
X156723772Y-127705703D01*
X156888184Y-127673000D01*
X157055816Y-127673000D01*
X157220228Y-127705703D01*
G37*
G36*
X159760228Y-127705703D02*
G01*
X159915100Y-127769853D01*
X160054481Y-127862985D01*
X160173015Y-127981519D01*
X160266147Y-128120900D01*
X160330297Y-128275772D01*
X160363000Y-128440184D01*
X160363000Y-128607816D01*
X160330297Y-128772228D01*
X160266147Y-128927100D01*
X160173015Y-129066481D01*
X160054481Y-129185015D01*
X159915100Y-129278147D01*
X159760228Y-129342297D01*
X159595816Y-129375000D01*
X159428184Y-129375000D01*
X159263772Y-129342297D01*
X159108900Y-129278147D01*
X158969519Y-129185015D01*
X158850985Y-129066481D01*
X158757853Y-128927100D01*
X158693703Y-128772228D01*
X158661000Y-128607816D01*
X158661000Y-128440184D01*
X158693703Y-128275772D01*
X158757853Y-128120900D01*
X158850985Y-127981519D01*
X158969519Y-127862985D01*
X159108900Y-127769853D01*
X159263772Y-127705703D01*
X159428184Y-127673000D01*
X159595816Y-127673000D01*
X159760228Y-127705703D01*
G37*
G36*
X162300228Y-127705703D02*
G01*
X162455100Y-127769853D01*
X162594481Y-127862985D01*
X162713015Y-127981519D01*
X162806147Y-128120900D01*
X162870297Y-128275772D01*
X162903000Y-128440184D01*
X162903000Y-128607816D01*
X162870297Y-128772228D01*
X162806147Y-128927100D01*
X162713015Y-129066481D01*
X162594481Y-129185015D01*
X162455100Y-129278147D01*
X162300228Y-129342297D01*
X162135816Y-129375000D01*
X161968184Y-129375000D01*
X161803772Y-129342297D01*
X161648900Y-129278147D01*
X161509519Y-129185015D01*
X161390985Y-129066481D01*
X161297853Y-128927100D01*
X161233703Y-128772228D01*
X161201000Y-128607816D01*
X161201000Y-128440184D01*
X161233703Y-128275772D01*
X161297853Y-128120900D01*
X161390985Y-127981519D01*
X161509519Y-127862985D01*
X161648900Y-127769853D01*
X161803772Y-127705703D01*
X161968184Y-127673000D01*
X162135816Y-127673000D01*
X162300228Y-127705703D01*
G37*
G36*
X164840228Y-127705703D02*
G01*
X164995100Y-127769853D01*
X165134481Y-127862985D01*
X165253015Y-127981519D01*
X165346147Y-128120900D01*
X165410297Y-128275772D01*
X165443000Y-128440184D01*
X165443000Y-128607816D01*
X165410297Y-128772228D01*
X165346147Y-128927100D01*
X165253015Y-129066481D01*
X165134481Y-129185015D01*
X164995100Y-129278147D01*
X164840228Y-129342297D01*
X164675816Y-129375000D01*
X164508184Y-129375000D01*
X164343772Y-129342297D01*
X164188900Y-129278147D01*
X164049519Y-129185015D01*
X163930985Y-129066481D01*
X163837853Y-128927100D01*
X163773703Y-128772228D01*
X163741000Y-128607816D01*
X163741000Y-128440184D01*
X163773703Y-128275772D01*
X163837853Y-128120900D01*
X163930985Y-127981519D01*
X164049519Y-127862985D01*
X164188900Y-127769853D01*
X164343772Y-127705703D01*
X164508184Y-127673000D01*
X164675816Y-127673000D01*
X164840228Y-127705703D01*
G37*
G36*
X145282228Y-127705703D02*
G01*
X145437100Y-127769853D01*
X145576481Y-127862985D01*
X145695015Y-127981519D01*
X145788147Y-128120900D01*
X145852297Y-128275772D01*
X145885000Y-128440184D01*
X145885000Y-128607816D01*
X145852297Y-128772228D01*
X145788147Y-128927100D01*
X145695015Y-129066481D01*
X145576481Y-129185015D01*
X145437100Y-129278147D01*
X145282228Y-129342297D01*
X145117816Y-129375000D01*
X144950184Y-129375000D01*
X144785772Y-129342297D01*
X144630900Y-129278147D01*
X144491519Y-129185015D01*
X144372985Y-129066481D01*
X144279853Y-128927100D01*
X144215703Y-128772228D01*
X144183000Y-128607816D01*
X144183000Y-128440184D01*
X144215703Y-128275772D01*
X144279853Y-128120900D01*
X144372985Y-127981519D01*
X144491519Y-127862985D01*
X144630900Y-127769853D01*
X144785772Y-127705703D01*
X144950184Y-127673000D01*
X145117816Y-127673000D01*
X145282228Y-127705703D01*
G37*
G36*
X117206915Y-127731334D02*
G01*
X117310434Y-127762737D01*
X117315494Y-127764272D01*
X117351600Y-127783571D01*
X117415556Y-127817756D01*
X117503264Y-127889736D01*
X117575244Y-127977443D01*
X117609429Y-128041399D01*
X117628728Y-128077505D01*
X117628729Y-128077508D01*
X117661666Y-128186084D01*
X117670000Y-128270702D01*
X117670000Y-128777297D01*
X117661666Y-128861916D01*
X117629252Y-128968767D01*
X117628728Y-128970495D01*
X117626461Y-128974736D01*
X117575244Y-129070557D01*
X117503264Y-129158264D01*
X117415557Y-129230244D01*
X117351601Y-129264429D01*
X117315495Y-129283728D01*
X117315492Y-129283729D01*
X117206916Y-129316666D01*
X117094000Y-129327787D01*
X116981085Y-129316666D01*
X116872509Y-129283729D01*
X116872506Y-129283728D01*
X116836400Y-129264429D01*
X116772444Y-129230244D01*
X116684737Y-129158264D01*
X116612757Y-129070557D01*
X116569239Y-128989141D01*
X116555625Y-128968766D01*
X116538298Y-128951439D01*
X116517924Y-128937826D01*
X116495285Y-128928448D01*
X116471252Y-128923668D01*
X116446748Y-128923668D01*
X116422715Y-128928448D01*
X116400076Y-128937826D01*
X116379701Y-128951440D01*
X116362374Y-128968767D01*
X116348761Y-128989141D01*
X116305244Y-129070557D01*
X116233264Y-129158264D01*
X116145557Y-129230244D01*
X116081601Y-129264429D01*
X116045495Y-129283728D01*
X116045492Y-129283729D01*
X115936916Y-129316666D01*
X115824000Y-129327787D01*
X115711085Y-129316666D01*
X115602509Y-129283729D01*
X115602506Y-129283728D01*
X115566400Y-129264429D01*
X115502444Y-129230244D01*
X115414737Y-129158264D01*
X115351622Y-129081359D01*
X115334297Y-129064034D01*
X115313923Y-129050420D01*
X115291284Y-129041043D01*
X115267250Y-129036263D01*
X115242746Y-129036263D01*
X115218713Y-129041044D01*
X115196074Y-129050421D01*
X115175700Y-129064035D01*
X115158373Y-129081362D01*
X115144759Y-129101736D01*
X115135382Y-129124375D01*
X115130000Y-129160660D01*
X115130000Y-129325000D01*
X113978000Y-129325000D01*
X113978000Y-127723000D01*
X115130000Y-127723000D01*
X115130000Y-127887341D01*
X115132402Y-127911727D01*
X115139515Y-127935176D01*
X115151066Y-127956787D01*
X115166611Y-127975729D01*
X115185553Y-127991274D01*
X115207164Y-128002825D01*
X115230613Y-128009938D01*
X115254999Y-128012340D01*
X115279385Y-128009938D01*
X115302834Y-128002825D01*
X115324445Y-127991274D01*
X115343387Y-127975729D01*
X115351608Y-127966657D01*
X115414736Y-127889736D01*
X115502443Y-127817756D01*
X115566399Y-127783571D01*
X115602505Y-127764272D01*
X115607565Y-127762737D01*
X115711084Y-127731334D01*
X115824000Y-127720213D01*
X115936915Y-127731334D01*
X116040434Y-127762737D01*
X116045494Y-127764272D01*
X116081600Y-127783571D01*
X116145556Y-127817756D01*
X116233264Y-127889736D01*
X116305244Y-127977443D01*
X116348761Y-128058859D01*
X116362375Y-128079234D01*
X116379702Y-128096561D01*
X116400076Y-128110174D01*
X116422715Y-128119552D01*
X116446748Y-128124332D01*
X116471252Y-128124332D01*
X116495285Y-128119552D01*
X116517924Y-128110174D01*
X116538299Y-128096560D01*
X116555626Y-128079233D01*
X116569239Y-128058860D01*
X116612756Y-127977444D01*
X116684736Y-127889736D01*
X116772443Y-127817756D01*
X116836399Y-127783571D01*
X116872505Y-127764272D01*
X116877565Y-127762737D01*
X116981084Y-127731334D01*
X117094000Y-127720213D01*
X117206915Y-127731334D01*
G37*
G36*
X96124915Y-127604334D02*
G01*
X96233491Y-127637271D01*
X96233494Y-127637272D01*
X96269600Y-127656571D01*
X96333556Y-127690756D01*
X96421264Y-127762736D01*
X96493244Y-127850443D01*
X96526000Y-127911727D01*
X96546728Y-127950505D01*
X96546729Y-127950508D01*
X96579666Y-128059084D01*
X96588000Y-128143702D01*
X96588000Y-128650297D01*
X96579666Y-128734916D01*
X96547252Y-128841767D01*
X96546728Y-128843495D01*
X96536761Y-128862141D01*
X96493244Y-128943557D01*
X96421264Y-129031264D01*
X96333557Y-129103244D01*
X96269601Y-129137429D01*
X96233495Y-129156728D01*
X96233492Y-129156729D01*
X96124916Y-129189666D01*
X96012000Y-129200787D01*
X95899085Y-129189666D01*
X95790509Y-129156729D01*
X95790506Y-129156728D01*
X95754400Y-129137429D01*
X95690444Y-129103244D01*
X95602737Y-129031264D01*
X95530757Y-128943557D01*
X95487239Y-128862141D01*
X95473625Y-128841766D01*
X95456298Y-128824439D01*
X95435924Y-128810826D01*
X95413285Y-128801448D01*
X95389252Y-128796668D01*
X95364748Y-128796668D01*
X95340715Y-128801448D01*
X95318076Y-128810826D01*
X95297701Y-128824440D01*
X95280374Y-128841767D01*
X95266761Y-128862141D01*
X95223244Y-128943557D01*
X95151264Y-129031264D01*
X95063557Y-129103244D01*
X94999601Y-129137429D01*
X94963495Y-129156728D01*
X94963492Y-129156729D01*
X94854916Y-129189666D01*
X94742000Y-129200787D01*
X94629085Y-129189666D01*
X94520509Y-129156729D01*
X94520506Y-129156728D01*
X94484400Y-129137429D01*
X94420444Y-129103244D01*
X94332737Y-129031264D01*
X94269622Y-128954359D01*
X94252297Y-128937034D01*
X94231923Y-128923420D01*
X94209284Y-128914043D01*
X94185250Y-128909263D01*
X94160746Y-128909263D01*
X94136713Y-128914044D01*
X94114074Y-128923421D01*
X94093700Y-128937035D01*
X94076373Y-128954362D01*
X94062759Y-128974736D01*
X94053382Y-128997375D01*
X94048000Y-129033660D01*
X94048000Y-129198000D01*
X92896000Y-129198000D01*
X92896000Y-127596000D01*
X94048000Y-127596000D01*
X94048000Y-127760341D01*
X94050402Y-127784727D01*
X94057515Y-127808176D01*
X94069066Y-127829787D01*
X94084611Y-127848729D01*
X94103553Y-127864274D01*
X94125164Y-127875825D01*
X94148613Y-127882938D01*
X94172999Y-127885340D01*
X94197385Y-127882938D01*
X94220834Y-127875825D01*
X94242445Y-127864274D01*
X94261387Y-127848729D01*
X94269608Y-127839657D01*
X94332736Y-127762736D01*
X94420443Y-127690756D01*
X94484399Y-127656571D01*
X94520505Y-127637272D01*
X94520508Y-127637271D01*
X94629084Y-127604334D01*
X94742000Y-127593213D01*
X94854915Y-127604334D01*
X94963491Y-127637271D01*
X94963494Y-127637272D01*
X94999600Y-127656571D01*
X95063556Y-127690756D01*
X95151264Y-127762736D01*
X95223244Y-127850443D01*
X95256000Y-127911727D01*
X95266761Y-127931859D01*
X95280375Y-127952234D01*
X95297702Y-127969561D01*
X95318076Y-127983174D01*
X95340715Y-127992552D01*
X95364748Y-127997332D01*
X95389252Y-127997332D01*
X95413285Y-127992552D01*
X95435924Y-127983174D01*
X95456299Y-127969560D01*
X95473626Y-127952233D01*
X95487239Y-127931860D01*
X95530756Y-127850444D01*
X95602736Y-127762736D01*
X95690443Y-127690756D01*
X95754399Y-127656571D01*
X95790505Y-127637272D01*
X95790508Y-127637271D01*
X95899084Y-127604334D01*
X96012000Y-127593213D01*
X96124915Y-127604334D01*
G37*
G36*
X106538915Y-127604334D02*
G01*
X106647491Y-127637271D01*
X106647494Y-127637272D01*
X106683600Y-127656571D01*
X106747556Y-127690756D01*
X106835264Y-127762736D01*
X106907244Y-127850443D01*
X106940000Y-127911727D01*
X106960728Y-127950505D01*
X106960729Y-127950508D01*
X106993666Y-128059084D01*
X107002000Y-128143702D01*
X107002000Y-128650297D01*
X106993666Y-128734916D01*
X106961252Y-128841767D01*
X106960728Y-128843495D01*
X106950761Y-128862141D01*
X106907244Y-128943557D01*
X106835264Y-129031264D01*
X106747557Y-129103244D01*
X106683601Y-129137429D01*
X106647495Y-129156728D01*
X106647492Y-129156729D01*
X106538916Y-129189666D01*
X106426000Y-129200787D01*
X106313085Y-129189666D01*
X106204509Y-129156729D01*
X106204506Y-129156728D01*
X106168400Y-129137429D01*
X106104444Y-129103244D01*
X106016737Y-129031264D01*
X105944757Y-128943557D01*
X105901239Y-128862141D01*
X105887625Y-128841766D01*
X105870298Y-128824439D01*
X105849924Y-128810826D01*
X105827285Y-128801448D01*
X105803252Y-128796668D01*
X105778748Y-128796668D01*
X105754715Y-128801448D01*
X105732076Y-128810826D01*
X105711701Y-128824440D01*
X105694374Y-128841767D01*
X105680761Y-128862141D01*
X105637244Y-128943557D01*
X105565264Y-129031264D01*
X105477557Y-129103244D01*
X105413601Y-129137429D01*
X105377495Y-129156728D01*
X105377492Y-129156729D01*
X105268916Y-129189666D01*
X105156000Y-129200787D01*
X105043085Y-129189666D01*
X104934509Y-129156729D01*
X104934506Y-129156728D01*
X104898400Y-129137429D01*
X104834444Y-129103244D01*
X104746737Y-129031264D01*
X104683622Y-128954359D01*
X104666297Y-128937034D01*
X104645923Y-128923420D01*
X104623284Y-128914043D01*
X104599250Y-128909263D01*
X104574746Y-128909263D01*
X104550713Y-128914044D01*
X104528074Y-128923421D01*
X104507700Y-128937035D01*
X104490373Y-128954362D01*
X104476759Y-128974736D01*
X104467382Y-128997375D01*
X104462000Y-129033660D01*
X104462000Y-129198000D01*
X103310000Y-129198000D01*
X103310000Y-127596000D01*
X104462000Y-127596000D01*
X104462000Y-127760341D01*
X104464402Y-127784727D01*
X104471515Y-127808176D01*
X104483066Y-127829787D01*
X104498611Y-127848729D01*
X104517553Y-127864274D01*
X104539164Y-127875825D01*
X104562613Y-127882938D01*
X104586999Y-127885340D01*
X104611385Y-127882938D01*
X104634834Y-127875825D01*
X104656445Y-127864274D01*
X104675387Y-127848729D01*
X104683608Y-127839657D01*
X104746736Y-127762736D01*
X104834443Y-127690756D01*
X104898399Y-127656571D01*
X104934505Y-127637272D01*
X104934508Y-127637271D01*
X105043084Y-127604334D01*
X105156000Y-127593213D01*
X105268915Y-127604334D01*
X105377491Y-127637271D01*
X105377494Y-127637272D01*
X105413600Y-127656571D01*
X105477556Y-127690756D01*
X105565264Y-127762736D01*
X105637244Y-127850443D01*
X105670000Y-127911727D01*
X105680761Y-127931859D01*
X105694375Y-127952234D01*
X105711702Y-127969561D01*
X105732076Y-127983174D01*
X105754715Y-127992552D01*
X105778748Y-127997332D01*
X105803252Y-127997332D01*
X105827285Y-127992552D01*
X105849924Y-127983174D01*
X105870299Y-127969560D01*
X105887626Y-127952233D01*
X105901239Y-127931860D01*
X105944756Y-127850444D01*
X106016736Y-127762736D01*
X106104443Y-127690756D01*
X106168399Y-127656571D01*
X106204505Y-127637272D01*
X106204508Y-127637271D01*
X106313084Y-127604334D01*
X106426000Y-127593213D01*
X106538915Y-127604334D01*
G37*
G36*
X124200228Y-127197703D02*
G01*
X124355100Y-127261853D01*
X124494481Y-127354985D01*
X124613015Y-127473519D01*
X124706147Y-127612900D01*
X124770297Y-127767772D01*
X124803000Y-127932184D01*
X124803000Y-128099816D01*
X124770297Y-128264228D01*
X124706147Y-128419100D01*
X124613015Y-128558481D01*
X124494481Y-128677015D01*
X124355100Y-128770147D01*
X124200228Y-128834297D01*
X124035816Y-128867000D01*
X123868184Y-128867000D01*
X123703772Y-128834297D01*
X123548900Y-128770147D01*
X123409519Y-128677015D01*
X123290985Y-128558481D01*
X123197853Y-128419100D01*
X123133703Y-128264228D01*
X123101000Y-128099816D01*
X123101000Y-127932184D01*
X123133703Y-127767772D01*
X123197853Y-127612900D01*
X123290985Y-127473519D01*
X123409519Y-127354985D01*
X123548900Y-127261853D01*
X123703772Y-127197703D01*
X123868184Y-127165000D01*
X124035816Y-127165000D01*
X124200228Y-127197703D01*
G37*
G36*
X124200228Y-124697703D02*
G01*
X124355100Y-124761853D01*
X124494481Y-124854985D01*
X124613015Y-124973519D01*
X124706147Y-125112900D01*
X124770297Y-125267772D01*
X124803000Y-125432184D01*
X124803000Y-125599816D01*
X124770297Y-125764228D01*
X124706147Y-125919100D01*
X124613015Y-126058481D01*
X124494481Y-126177015D01*
X124355100Y-126270147D01*
X124200228Y-126334297D01*
X124035816Y-126367000D01*
X123868184Y-126367000D01*
X123703772Y-126334297D01*
X123548900Y-126270147D01*
X123409519Y-126177015D01*
X123290985Y-126058481D01*
X123197853Y-125919100D01*
X123133703Y-125764228D01*
X123101000Y-125599816D01*
X123101000Y-125432184D01*
X123133703Y-125267772D01*
X123197853Y-125112900D01*
X123290985Y-124973519D01*
X123409519Y-124854985D01*
X123548900Y-124761853D01*
X123703772Y-124697703D01*
X123868184Y-124665000D01*
X124035816Y-124665000D01*
X124200228Y-124697703D01*
G37*
G36*
X131058228Y-124657703D02*
G01*
X131213100Y-124721853D01*
X131352481Y-124814985D01*
X131471015Y-124933519D01*
X131564147Y-125072900D01*
X131628297Y-125227772D01*
X131661000Y-125392184D01*
X131661000Y-125559816D01*
X131628297Y-125724228D01*
X131564147Y-125879100D01*
X131471015Y-126018481D01*
X131352481Y-126137015D01*
X131213100Y-126230147D01*
X131058228Y-126294297D01*
X130893816Y-126327000D01*
X130726184Y-126327000D01*
X130561772Y-126294297D01*
X130406900Y-126230147D01*
X130267519Y-126137015D01*
X130148985Y-126018481D01*
X130055853Y-125879100D01*
X129991703Y-125724228D01*
X129959000Y-125559816D01*
X129959000Y-125392184D01*
X129991703Y-125227772D01*
X130055853Y-125072900D01*
X130148985Y-124933519D01*
X130267519Y-124814985D01*
X130406900Y-124721853D01*
X130561772Y-124657703D01*
X130726184Y-124625000D01*
X130893816Y-124625000D01*
X131058228Y-124657703D01*
G37*
G36*
X128518228Y-124657703D02*
G01*
X128673100Y-124721853D01*
X128812481Y-124814985D01*
X128931015Y-124933519D01*
X129024147Y-125072900D01*
X129088297Y-125227772D01*
X129121000Y-125392184D01*
X129121000Y-125559816D01*
X129088297Y-125724228D01*
X129024147Y-125879100D01*
X128931015Y-126018481D01*
X128812481Y-126137015D01*
X128673100Y-126230147D01*
X128518228Y-126294297D01*
X128353816Y-126327000D01*
X128186184Y-126327000D01*
X128021772Y-126294297D01*
X127866900Y-126230147D01*
X127727519Y-126137015D01*
X127608985Y-126018481D01*
X127515853Y-125879100D01*
X127451703Y-125724228D01*
X127419000Y-125559816D01*
X127419000Y-125392184D01*
X127451703Y-125227772D01*
X127515853Y-125072900D01*
X127608985Y-124933519D01*
X127727519Y-124814985D01*
X127866900Y-124721853D01*
X128021772Y-124657703D01*
X128186184Y-124625000D01*
X128353816Y-124625000D01*
X128518228Y-124657703D01*
G37*
G36*
X133598228Y-124657703D02*
G01*
X133753100Y-124721853D01*
X133892481Y-124814985D01*
X134011015Y-124933519D01*
X134104147Y-125072900D01*
X134168297Y-125227772D01*
X134201000Y-125392184D01*
X134201000Y-125559816D01*
X134168297Y-125724228D01*
X134104147Y-125879100D01*
X134011015Y-126018481D01*
X133892481Y-126137015D01*
X133753100Y-126230147D01*
X133598228Y-126294297D01*
X133433816Y-126327000D01*
X133266184Y-126327000D01*
X133101772Y-126294297D01*
X132946900Y-126230147D01*
X132807519Y-126137015D01*
X132688985Y-126018481D01*
X132595853Y-125879100D01*
X132531703Y-125724228D01*
X132499000Y-125559816D01*
X132499000Y-125392184D01*
X132531703Y-125227772D01*
X132595853Y-125072900D01*
X132688985Y-124933519D01*
X132807519Y-124814985D01*
X132946900Y-124721853D01*
X133101772Y-124657703D01*
X133266184Y-124625000D01*
X133433816Y-124625000D01*
X133598228Y-124657703D01*
G37*
G36*
X136138228Y-124657703D02*
G01*
X136293100Y-124721853D01*
X136432481Y-124814985D01*
X136551015Y-124933519D01*
X136644147Y-125072900D01*
X136708297Y-125227772D01*
X136741000Y-125392184D01*
X136741000Y-125559816D01*
X136708297Y-125724228D01*
X136644147Y-125879100D01*
X136551015Y-126018481D01*
X136432481Y-126137015D01*
X136293100Y-126230147D01*
X136138228Y-126294297D01*
X135973816Y-126327000D01*
X135806184Y-126327000D01*
X135641772Y-126294297D01*
X135486900Y-126230147D01*
X135347519Y-126137015D01*
X135228985Y-126018481D01*
X135135853Y-125879100D01*
X135071703Y-125724228D01*
X135039000Y-125559816D01*
X135039000Y-125392184D01*
X135071703Y-125227772D01*
X135135853Y-125072900D01*
X135228985Y-124933519D01*
X135347519Y-124814985D01*
X135486900Y-124721853D01*
X135641772Y-124657703D01*
X135806184Y-124625000D01*
X135973816Y-124625000D01*
X136138228Y-124657703D01*
G37*
G36*
X99911000Y-126200000D02*
G01*
X98209000Y-126200000D01*
X98209000Y-124498000D01*
X99911000Y-124498000D01*
X99911000Y-126200000D01*
G37*
G36*
X114606564Y-122179389D02*
G01*
X114797833Y-122258615D01*
X114797835Y-122258616D01*
X114913608Y-122335973D01*
X114969973Y-122373635D01*
X115116365Y-122520027D01*
X115231385Y-122692167D01*
X115310611Y-122883436D01*
X115351000Y-123086484D01*
X115351000Y-123293516D01*
X115310611Y-123496564D01*
X115231385Y-123687833D01*
X115231384Y-123687835D01*
X115116365Y-123859973D01*
X114969973Y-124006365D01*
X114797835Y-124121384D01*
X114797834Y-124121385D01*
X114797833Y-124121385D01*
X114606564Y-124200611D01*
X114403516Y-124241000D01*
X114196484Y-124241000D01*
X113993436Y-124200611D01*
X113802167Y-124121385D01*
X113802166Y-124121385D01*
X113802165Y-124121384D01*
X113630027Y-124006365D01*
X113483635Y-123859973D01*
X113368616Y-123687835D01*
X113368615Y-123687833D01*
X113289389Y-123496564D01*
X113249000Y-123293516D01*
X113249000Y-123086484D01*
X113289389Y-122883436D01*
X113368615Y-122692167D01*
X113483635Y-122520027D01*
X113630027Y-122373635D01*
X113686392Y-122335973D01*
X113802165Y-122258616D01*
X113802167Y-122258615D01*
X113993436Y-122179389D01*
X114196484Y-122139000D01*
X114403516Y-122139000D01*
X114606564Y-122179389D01*
G37*
G36*
X93016564Y-122179389D02*
G01*
X93207833Y-122258615D01*
X93207835Y-122258616D01*
X93323608Y-122335973D01*
X93379973Y-122373635D01*
X93526365Y-122520027D01*
X93641385Y-122692167D01*
X93720611Y-122883436D01*
X93761000Y-123086484D01*
X93761000Y-123293516D01*
X93720611Y-123496564D01*
X93641385Y-123687833D01*
X93641384Y-123687835D01*
X93526365Y-123859973D01*
X93379973Y-124006365D01*
X93207835Y-124121384D01*
X93207834Y-124121385D01*
X93207833Y-124121385D01*
X93016564Y-124200611D01*
X92813516Y-124241000D01*
X92606484Y-124241000D01*
X92403436Y-124200611D01*
X92212167Y-124121385D01*
X92212166Y-124121385D01*
X92212165Y-124121384D01*
X92040027Y-124006365D01*
X91893635Y-123859973D01*
X91778616Y-123687835D01*
X91778615Y-123687833D01*
X91699389Y-123496564D01*
X91659000Y-123293516D01*
X91659000Y-123086484D01*
X91699389Y-122883436D01*
X91778615Y-122692167D01*
X91893635Y-122520027D01*
X92040027Y-122373635D01*
X92096392Y-122335973D01*
X92212165Y-122258616D01*
X92212167Y-122258615D01*
X92403436Y-122179389D01*
X92606484Y-122139000D01*
X92813516Y-122139000D01*
X93016564Y-122179389D01*
G37*
G36*
X103938564Y-122179389D02*
G01*
X104129833Y-122258615D01*
X104129835Y-122258616D01*
X104245608Y-122335973D01*
X104301973Y-122373635D01*
X104448365Y-122520027D01*
X104563385Y-122692167D01*
X104642611Y-122883436D01*
X104683000Y-123086484D01*
X104683000Y-123293516D01*
X104642611Y-123496564D01*
X104563385Y-123687833D01*
X104563384Y-123687835D01*
X104448365Y-123859973D01*
X104301973Y-124006365D01*
X104129835Y-124121384D01*
X104129834Y-124121385D01*
X104129833Y-124121385D01*
X103938564Y-124200611D01*
X103735516Y-124241000D01*
X103528484Y-124241000D01*
X103325436Y-124200611D01*
X103134167Y-124121385D01*
X103134166Y-124121385D01*
X103134165Y-124121384D01*
X102962027Y-124006365D01*
X102815635Y-123859973D01*
X102700616Y-123687835D01*
X102700615Y-123687833D01*
X102621389Y-123496564D01*
X102581000Y-123293516D01*
X102581000Y-123086484D01*
X102621389Y-122883436D01*
X102700615Y-122692167D01*
X102815635Y-122520027D01*
X102962027Y-122373635D01*
X103018392Y-122335973D01*
X103134165Y-122258616D01*
X103134167Y-122258615D01*
X103325436Y-122179389D01*
X103528484Y-122139000D01*
X103735516Y-122139000D01*
X103938564Y-122179389D01*
G37*
G36*
X146298228Y-122371703D02*
G01*
X146453100Y-122435853D01*
X146592481Y-122528985D01*
X146711015Y-122647519D01*
X146804147Y-122786900D01*
X146868297Y-122941772D01*
X146901000Y-123106184D01*
X146901000Y-123273816D01*
X146868297Y-123438228D01*
X146804147Y-123593100D01*
X146711015Y-123732481D01*
X146592481Y-123851015D01*
X146453100Y-123944147D01*
X146298228Y-124008297D01*
X146133816Y-124041000D01*
X145966184Y-124041000D01*
X145801772Y-124008297D01*
X145646900Y-123944147D01*
X145507519Y-123851015D01*
X145388985Y-123732481D01*
X145295853Y-123593100D01*
X145231703Y-123438228D01*
X145199000Y-123273816D01*
X145199000Y-123106184D01*
X145231703Y-122941772D01*
X145295853Y-122786900D01*
X145388985Y-122647519D01*
X145507519Y-122528985D01*
X145646900Y-122435853D01*
X145801772Y-122371703D01*
X145966184Y-122339000D01*
X146133816Y-122339000D01*
X146298228Y-122371703D01*
G37*
G36*
X152793000Y-123583000D02*
G01*
X150991000Y-123583000D01*
X150991000Y-121781000D01*
X152793000Y-121781000D01*
X152793000Y-123583000D01*
G37*
G36*
X157085512Y-121785927D02*
G01*
X157234812Y-121815624D01*
X157398784Y-121883544D01*
X157546354Y-121982147D01*
X157671853Y-122107646D01*
X157770456Y-122255216D01*
X157838376Y-122419188D01*
X157873000Y-122593259D01*
X157873000Y-122770741D01*
X157838376Y-122944812D01*
X157770456Y-123108784D01*
X157671853Y-123256354D01*
X157546354Y-123381853D01*
X157398784Y-123480456D01*
X157234812Y-123548376D01*
X157085512Y-123578073D01*
X157060742Y-123583000D01*
X156883258Y-123583000D01*
X156858488Y-123578073D01*
X156709188Y-123548376D01*
X156545216Y-123480456D01*
X156397646Y-123381853D01*
X156272147Y-123256354D01*
X156173544Y-123108784D01*
X156105624Y-122944812D01*
X156071000Y-122770741D01*
X156071000Y-122593259D01*
X156105624Y-122419188D01*
X156173544Y-122255216D01*
X156272147Y-122107646D01*
X156397646Y-121982147D01*
X156545216Y-121883544D01*
X156709188Y-121815624D01*
X156858488Y-121785927D01*
X156883258Y-121781000D01*
X157060742Y-121781000D01*
X157085512Y-121785927D01*
G37*
G36*
X159625512Y-121785927D02*
G01*
X159774812Y-121815624D01*
X159938784Y-121883544D01*
X160086354Y-121982147D01*
X160211853Y-122107646D01*
X160310456Y-122255216D01*
X160378376Y-122419188D01*
X160413000Y-122593259D01*
X160413000Y-122770741D01*
X160378376Y-122944812D01*
X160310456Y-123108784D01*
X160211853Y-123256354D01*
X160086354Y-123381853D01*
X159938784Y-123480456D01*
X159774812Y-123548376D01*
X159625512Y-123578073D01*
X159600742Y-123583000D01*
X159423258Y-123583000D01*
X159398488Y-123578073D01*
X159249188Y-123548376D01*
X159085216Y-123480456D01*
X158937646Y-123381853D01*
X158812147Y-123256354D01*
X158713544Y-123108784D01*
X158645624Y-122944812D01*
X158611000Y-122770741D01*
X158611000Y-122593259D01*
X158645624Y-122419188D01*
X158713544Y-122255216D01*
X158812147Y-122107646D01*
X158937646Y-121982147D01*
X159085216Y-121883544D01*
X159249188Y-121815624D01*
X159398488Y-121785927D01*
X159423258Y-121781000D01*
X159600742Y-121781000D01*
X159625512Y-121785927D01*
G37*
G36*
X162165512Y-121785927D02*
G01*
X162314812Y-121815624D01*
X162478784Y-121883544D01*
X162626354Y-121982147D01*
X162751853Y-122107646D01*
X162850456Y-122255216D01*
X162918376Y-122419188D01*
X162953000Y-122593259D01*
X162953000Y-122770741D01*
X162918376Y-122944812D01*
X162850456Y-123108784D01*
X162751853Y-123256354D01*
X162626354Y-123381853D01*
X162478784Y-123480456D01*
X162314812Y-123548376D01*
X162165512Y-123578073D01*
X162140742Y-123583000D01*
X161963258Y-123583000D01*
X161938488Y-123578073D01*
X161789188Y-123548376D01*
X161625216Y-123480456D01*
X161477646Y-123381853D01*
X161352147Y-123256354D01*
X161253544Y-123108784D01*
X161185624Y-122944812D01*
X161151000Y-122770741D01*
X161151000Y-122593259D01*
X161185624Y-122419188D01*
X161253544Y-122255216D01*
X161352147Y-122107646D01*
X161477646Y-121982147D01*
X161625216Y-121883544D01*
X161789188Y-121815624D01*
X161938488Y-121785927D01*
X161963258Y-121781000D01*
X162140742Y-121781000D01*
X162165512Y-121785927D01*
G37*
G36*
X164705512Y-121785927D02*
G01*
X164854812Y-121815624D01*
X165018784Y-121883544D01*
X165166354Y-121982147D01*
X165291853Y-122107646D01*
X165390456Y-122255216D01*
X165458376Y-122419188D01*
X165493000Y-122593259D01*
X165493000Y-122770741D01*
X165458376Y-122944812D01*
X165390456Y-123108784D01*
X165291853Y-123256354D01*
X165166354Y-123381853D01*
X165018784Y-123480456D01*
X164854812Y-123548376D01*
X164705512Y-123578073D01*
X164680742Y-123583000D01*
X164503258Y-123583000D01*
X164478488Y-123578073D01*
X164329188Y-123548376D01*
X164165216Y-123480456D01*
X164017646Y-123381853D01*
X163892147Y-123256354D01*
X163793544Y-123108784D01*
X163725624Y-122944812D01*
X163691000Y-122770741D01*
X163691000Y-122593259D01*
X163725624Y-122419188D01*
X163793544Y-122255216D01*
X163892147Y-122107646D01*
X164017646Y-121982147D01*
X164165216Y-121883544D01*
X164329188Y-121815624D01*
X164478488Y-121785927D01*
X164503258Y-121781000D01*
X164680742Y-121781000D01*
X164705512Y-121785927D01*
G37*
G36*
X154545512Y-121785927D02*
G01*
X154694812Y-121815624D01*
X154858784Y-121883544D01*
X155006354Y-121982147D01*
X155131853Y-122107646D01*
X155230456Y-122255216D01*
X155298376Y-122419188D01*
X155333000Y-122593259D01*
X155333000Y-122770741D01*
X155298376Y-122944812D01*
X155230456Y-123108784D01*
X155131853Y-123256354D01*
X155006354Y-123381853D01*
X154858784Y-123480456D01*
X154694812Y-123548376D01*
X154545512Y-123578073D01*
X154520742Y-123583000D01*
X154343258Y-123583000D01*
X154318488Y-123578073D01*
X154169188Y-123548376D01*
X154005216Y-123480456D01*
X153857646Y-123381853D01*
X153732147Y-123256354D01*
X153633544Y-123108784D01*
X153565624Y-122944812D01*
X153531000Y-122770741D01*
X153531000Y-122593259D01*
X153565624Y-122419188D01*
X153633544Y-122255216D01*
X153732147Y-122107646D01*
X153857646Y-121982147D01*
X154005216Y-121883544D01*
X154169188Y-121815624D01*
X154318488Y-121785927D01*
X154343258Y-121781000D01*
X154520742Y-121781000D01*
X154545512Y-121785927D01*
G37*
G36*
X172010564Y-120655389D02*
G01*
X172201833Y-120734615D01*
X172201835Y-120734616D01*
X172304201Y-120803015D01*
X172373973Y-120849635D01*
X172520365Y-120996027D01*
X172635385Y-121168167D01*
X172714611Y-121359436D01*
X172755000Y-121562484D01*
X172755000Y-121769516D01*
X172714611Y-121972564D01*
X172710641Y-121982148D01*
X172635384Y-122163835D01*
X172520365Y-122335973D01*
X172373973Y-122482365D01*
X172201835Y-122597384D01*
X172201834Y-122597385D01*
X172201833Y-122597385D01*
X172010564Y-122676611D01*
X171807516Y-122717000D01*
X171600484Y-122717000D01*
X171397436Y-122676611D01*
X171206167Y-122597385D01*
X171206166Y-122597385D01*
X171206165Y-122597384D01*
X171034027Y-122482365D01*
X170887635Y-122335973D01*
X170772616Y-122163835D01*
X170697359Y-121982148D01*
X170693389Y-121972564D01*
X170653000Y-121769516D01*
X170653000Y-121562484D01*
X170693389Y-121359436D01*
X170772615Y-121168167D01*
X170887635Y-120996027D01*
X171034027Y-120849635D01*
X171103799Y-120803015D01*
X171206165Y-120734616D01*
X171206167Y-120734615D01*
X171397436Y-120655389D01*
X171600484Y-120615000D01*
X171807516Y-120615000D01*
X172010564Y-120655389D01*
G37*
G36*
X134614228Y-119323703D02*
G01*
X134769100Y-119387853D01*
X134908481Y-119480985D01*
X135027015Y-119599519D01*
X135120147Y-119738900D01*
X135184297Y-119893772D01*
X135217000Y-120058184D01*
X135217000Y-120225816D01*
X135184297Y-120390228D01*
X135120147Y-120545100D01*
X135027015Y-120684481D01*
X134908481Y-120803015D01*
X134769100Y-120896147D01*
X134614228Y-120960297D01*
X134449816Y-120993000D01*
X134282184Y-120993000D01*
X134117772Y-120960297D01*
X133962900Y-120896147D01*
X133823519Y-120803015D01*
X133704985Y-120684481D01*
X133611853Y-120545100D01*
X133547703Y-120390228D01*
X133515000Y-120225816D01*
X133515000Y-120058184D01*
X133547703Y-119893772D01*
X133611853Y-119738900D01*
X133704985Y-119599519D01*
X133823519Y-119480985D01*
X133962900Y-119387853D01*
X134117772Y-119323703D01*
X134282184Y-119291000D01*
X134449816Y-119291000D01*
X134614228Y-119323703D01*
G37*
G36*
X126994228Y-119323703D02*
G01*
X127149100Y-119387853D01*
X127288481Y-119480985D01*
X127407015Y-119599519D01*
X127500147Y-119738900D01*
X127564297Y-119893772D01*
X127597000Y-120058184D01*
X127597000Y-120225816D01*
X127564297Y-120390228D01*
X127500147Y-120545100D01*
X127407015Y-120684481D01*
X127288481Y-120803015D01*
X127149100Y-120896147D01*
X126994228Y-120960297D01*
X126829816Y-120993000D01*
X126662184Y-120993000D01*
X126497772Y-120960297D01*
X126342900Y-120896147D01*
X126203519Y-120803015D01*
X126084985Y-120684481D01*
X125991853Y-120545100D01*
X125927703Y-120390228D01*
X125895000Y-120225816D01*
X125895000Y-120058184D01*
X125927703Y-119893772D01*
X125991853Y-119738900D01*
X126084985Y-119599519D01*
X126203519Y-119480985D01*
X126342900Y-119387853D01*
X126497772Y-119323703D01*
X126662184Y-119291000D01*
X126829816Y-119291000D01*
X126994228Y-119323703D01*
G37*
G36*
X140162228Y-119323703D02*
G01*
X140317100Y-119387853D01*
X140456481Y-119480985D01*
X140575015Y-119599519D01*
X140668147Y-119738900D01*
X140732297Y-119893772D01*
X140765000Y-120058184D01*
X140765000Y-120225816D01*
X140732297Y-120390228D01*
X140668147Y-120545100D01*
X140575015Y-120684481D01*
X140456481Y-120803015D01*
X140317100Y-120896147D01*
X140162228Y-120960297D01*
X139997816Y-120993000D01*
X139830184Y-120993000D01*
X139665772Y-120960297D01*
X139510900Y-120896147D01*
X139371519Y-120803015D01*
X139252985Y-120684481D01*
X139159853Y-120545100D01*
X139095703Y-120390228D01*
X139063000Y-120225816D01*
X139063000Y-120058184D01*
X139095703Y-119893772D01*
X139159853Y-119738900D01*
X139252985Y-119599519D01*
X139371519Y-119480985D01*
X139510900Y-119387853D01*
X139665772Y-119323703D01*
X139830184Y-119291000D01*
X139997816Y-119291000D01*
X140162228Y-119323703D01*
G37*
G36*
X137662228Y-119323703D02*
G01*
X137817100Y-119387853D01*
X137956481Y-119480985D01*
X138075015Y-119599519D01*
X138168147Y-119738900D01*
X138232297Y-119893772D01*
X138265000Y-120058184D01*
X138265000Y-120225816D01*
X138232297Y-120390228D01*
X138168147Y-120545100D01*
X138075015Y-120684481D01*
X137956481Y-120803015D01*
X137817100Y-120896147D01*
X137662228Y-120960297D01*
X137497816Y-120993000D01*
X137330184Y-120993000D01*
X137165772Y-120960297D01*
X137010900Y-120896147D01*
X136871519Y-120803015D01*
X136752985Y-120684481D01*
X136659853Y-120545100D01*
X136595703Y-120390228D01*
X136563000Y-120225816D01*
X136563000Y-120058184D01*
X136595703Y-119893772D01*
X136659853Y-119738900D01*
X136752985Y-119599519D01*
X136871519Y-119480985D01*
X137010900Y-119387853D01*
X137165772Y-119323703D01*
X137330184Y-119291000D01*
X137497816Y-119291000D01*
X137662228Y-119323703D01*
G37*
G36*
X114606564Y-117099389D02*
G01*
X114797833Y-117178615D01*
X114797835Y-117178616D01*
X114809664Y-117186520D01*
X114969973Y-117293635D01*
X115116365Y-117440027D01*
X115231385Y-117612167D01*
X115310611Y-117803436D01*
X115351000Y-118006484D01*
X115351000Y-118213516D01*
X115310611Y-118416564D01*
X115242914Y-118580000D01*
X115231384Y-118607835D01*
X115116365Y-118779973D01*
X114969973Y-118926365D01*
X114797835Y-119041384D01*
X114797834Y-119041385D01*
X114797833Y-119041385D01*
X114606564Y-119120611D01*
X114403516Y-119161000D01*
X114196484Y-119161000D01*
X113993436Y-119120611D01*
X113802167Y-119041385D01*
X113802166Y-119041385D01*
X113802165Y-119041384D01*
X113630027Y-118926365D01*
X113483635Y-118779973D01*
X113368616Y-118607835D01*
X113357086Y-118580000D01*
X113289389Y-118416564D01*
X113249000Y-118213516D01*
X113249000Y-118006484D01*
X113289389Y-117803436D01*
X113368615Y-117612167D01*
X113483635Y-117440027D01*
X113630027Y-117293635D01*
X113790336Y-117186520D01*
X113802165Y-117178616D01*
X113802167Y-117178615D01*
X113993436Y-117099389D01*
X114196484Y-117059000D01*
X114403516Y-117059000D01*
X114606564Y-117099389D01*
G37*
G36*
X103938564Y-117099389D02*
G01*
X104129833Y-117178615D01*
X104129835Y-117178616D01*
X104141664Y-117186520D01*
X104301973Y-117293635D01*
X104448365Y-117440027D01*
X104563385Y-117612167D01*
X104642611Y-117803436D01*
X104683000Y-118006484D01*
X104683000Y-118213516D01*
X104642611Y-118416564D01*
X104574914Y-118580000D01*
X104563384Y-118607835D01*
X104448365Y-118779973D01*
X104301973Y-118926365D01*
X104129835Y-119041384D01*
X104129834Y-119041385D01*
X104129833Y-119041385D01*
X103938564Y-119120611D01*
X103735516Y-119161000D01*
X103528484Y-119161000D01*
X103325436Y-119120611D01*
X103134167Y-119041385D01*
X103134166Y-119041385D01*
X103134165Y-119041384D01*
X102962027Y-118926365D01*
X102815635Y-118779973D01*
X102700616Y-118607835D01*
X102689086Y-118580000D01*
X102621389Y-118416564D01*
X102581000Y-118213516D01*
X102581000Y-118006484D01*
X102621389Y-117803436D01*
X102700615Y-117612167D01*
X102815635Y-117440027D01*
X102962027Y-117293635D01*
X103122336Y-117186520D01*
X103134165Y-117178616D01*
X103134167Y-117178615D01*
X103325436Y-117099389D01*
X103528484Y-117059000D01*
X103735516Y-117059000D01*
X103938564Y-117099389D01*
G37*
G36*
X93016564Y-117099389D02*
G01*
X93207833Y-117178615D01*
X93207835Y-117178616D01*
X93219664Y-117186520D01*
X93379973Y-117293635D01*
X93526365Y-117440027D01*
X93641385Y-117612167D01*
X93720611Y-117803436D01*
X93761000Y-118006484D01*
X93761000Y-118213516D01*
X93720611Y-118416564D01*
X93652914Y-118580000D01*
X93641384Y-118607835D01*
X93526365Y-118779973D01*
X93379973Y-118926365D01*
X93207835Y-119041384D01*
X93207834Y-119041385D01*
X93207833Y-119041385D01*
X93016564Y-119120611D01*
X92813516Y-119161000D01*
X92606484Y-119161000D01*
X92403436Y-119120611D01*
X92212167Y-119041385D01*
X92212166Y-119041385D01*
X92212165Y-119041384D01*
X92040027Y-118926365D01*
X91893635Y-118779973D01*
X91778616Y-118607835D01*
X91767086Y-118580000D01*
X91699389Y-118416564D01*
X91659000Y-118213516D01*
X91659000Y-118006484D01*
X91699389Y-117803436D01*
X91778615Y-117612167D01*
X91893635Y-117440027D01*
X92040027Y-117293635D01*
X92200336Y-117186520D01*
X92212165Y-117178616D01*
X92212167Y-117178615D01*
X92403436Y-117099389D01*
X92606484Y-117059000D01*
X92813516Y-117059000D01*
X93016564Y-117099389D01*
G37*
G36*
X99308228Y-116910703D02*
G01*
X99463100Y-116974853D01*
X99602481Y-117067985D01*
X99721015Y-117186519D01*
X99814147Y-117325900D01*
X99878297Y-117480772D01*
X99911000Y-117645184D01*
X99911000Y-117812816D01*
X99878297Y-117977228D01*
X99814147Y-118132100D01*
X99721015Y-118271481D01*
X99602481Y-118390015D01*
X99463100Y-118483147D01*
X99308228Y-118547297D01*
X99143816Y-118580000D01*
X98976184Y-118580000D01*
X98811772Y-118547297D01*
X98656900Y-118483147D01*
X98517519Y-118390015D01*
X98398985Y-118271481D01*
X98305853Y-118132100D01*
X98241703Y-117977228D01*
X98209000Y-117812816D01*
X98209000Y-117645184D01*
X98241703Y-117480772D01*
X98305853Y-117325900D01*
X98398985Y-117186519D01*
X98517519Y-117067985D01*
X98656900Y-116974853D01*
X98811772Y-116910703D01*
X98976184Y-116878000D01*
X99143816Y-116878000D01*
X99308228Y-116910703D01*
G37*
G36*
X172010564Y-115575389D02*
G01*
X172199904Y-115653816D01*
X172201835Y-115654616D01*
X172208396Y-115659000D01*
X172373973Y-115769635D01*
X172520365Y-115916027D01*
X172635385Y-116088167D01*
X172714611Y-116279436D01*
X172755000Y-116482484D01*
X172755000Y-116689516D01*
X172714611Y-116892564D01*
X172645671Y-117059000D01*
X172635384Y-117083835D01*
X172520365Y-117255973D01*
X172373973Y-117402365D01*
X172201835Y-117517384D01*
X172201834Y-117517385D01*
X172201833Y-117517385D01*
X172010564Y-117596611D01*
X171807516Y-117637000D01*
X171600484Y-117637000D01*
X171397436Y-117596611D01*
X171206167Y-117517385D01*
X171206166Y-117517385D01*
X171206165Y-117517384D01*
X171034027Y-117402365D01*
X170887635Y-117255973D01*
X170772616Y-117083835D01*
X170762329Y-117059000D01*
X170693389Y-116892564D01*
X170653000Y-116689516D01*
X170653000Y-116482484D01*
X170693389Y-116279436D01*
X170772615Y-116088167D01*
X170887635Y-115916027D01*
X171034027Y-115769635D01*
X171199604Y-115659000D01*
X171206165Y-115654616D01*
X171208096Y-115653816D01*
X171397436Y-115575389D01*
X171600484Y-115535000D01*
X171807516Y-115535000D01*
X172010564Y-115575389D01*
G37*
G36*
X146298228Y-114751703D02*
G01*
X146453100Y-114815853D01*
X146592481Y-114908985D01*
X146711015Y-115027519D01*
X146804147Y-115166900D01*
X146868297Y-115321772D01*
X146901000Y-115486184D01*
X146901000Y-115653816D01*
X146868297Y-115818228D01*
X146804147Y-115973100D01*
X146711015Y-116112481D01*
X146592481Y-116231015D01*
X146453100Y-116324147D01*
X146298228Y-116388297D01*
X146133816Y-116421000D01*
X145966184Y-116421000D01*
X145801772Y-116388297D01*
X145646900Y-116324147D01*
X145507519Y-116231015D01*
X145388985Y-116112481D01*
X145295853Y-115973100D01*
X145231703Y-115818228D01*
X145199000Y-115653816D01*
X145199000Y-115486184D01*
X145231703Y-115321772D01*
X145295853Y-115166900D01*
X145388985Y-115027519D01*
X145507519Y-114908985D01*
X145646900Y-114815853D01*
X145801772Y-114751703D01*
X145966184Y-114719000D01*
X146133816Y-114719000D01*
X146298228Y-114751703D01*
G37*
G36*
X153214564Y-114051389D02*
G01*
X153405833Y-114130615D01*
X153405835Y-114130616D01*
X153577973Y-114245635D01*
X153724365Y-114392027D01*
X153836449Y-114559772D01*
X153839385Y-114564167D01*
X153918611Y-114755436D01*
X153959000Y-114958484D01*
X153959000Y-115165516D01*
X153918611Y-115368564D01*
X153877003Y-115469015D01*
X153839384Y-115559835D01*
X153724365Y-115731973D01*
X153577973Y-115878365D01*
X153405835Y-115993384D01*
X153405834Y-115993385D01*
X153405833Y-115993385D01*
X153214564Y-116072611D01*
X153011516Y-116113000D01*
X152804484Y-116113000D01*
X152601436Y-116072611D01*
X152410167Y-115993385D01*
X152410166Y-115993385D01*
X152410165Y-115993384D01*
X152238027Y-115878365D01*
X152091635Y-115731973D01*
X151976616Y-115559835D01*
X151938997Y-115469015D01*
X151897389Y-115368564D01*
X151857000Y-115165516D01*
X151857000Y-114958484D01*
X151897389Y-114755436D01*
X151976615Y-114564167D01*
X151979552Y-114559772D01*
X152091635Y-114392027D01*
X152238027Y-114245635D01*
X152410165Y-114130616D01*
X152410167Y-114130615D01*
X152601436Y-114051389D01*
X152804484Y-114011000D01*
X153011516Y-114011000D01*
X153214564Y-114051389D01*
G37*
G36*
X158294564Y-114051389D02*
G01*
X158485833Y-114130615D01*
X158485835Y-114130616D01*
X158657973Y-114245635D01*
X158804365Y-114392027D01*
X158916449Y-114559772D01*
X158919385Y-114564167D01*
X158998611Y-114755436D01*
X159039000Y-114958484D01*
X159039000Y-115165516D01*
X158998611Y-115368564D01*
X158957003Y-115469015D01*
X158919384Y-115559835D01*
X158804365Y-115731973D01*
X158657973Y-115878365D01*
X158485835Y-115993384D01*
X158485834Y-115993385D01*
X158485833Y-115993385D01*
X158294564Y-116072611D01*
X158091516Y-116113000D01*
X157884484Y-116113000D01*
X157681436Y-116072611D01*
X157490167Y-115993385D01*
X157490166Y-115993385D01*
X157490165Y-115993384D01*
X157318027Y-115878365D01*
X157171635Y-115731973D01*
X157056616Y-115559835D01*
X157018997Y-115469015D01*
X156977389Y-115368564D01*
X156937000Y-115165516D01*
X156937000Y-114958484D01*
X156977389Y-114755436D01*
X157056615Y-114564167D01*
X157059552Y-114559772D01*
X157171635Y-114392027D01*
X157318027Y-114245635D01*
X157490165Y-114130616D01*
X157490167Y-114130615D01*
X157681436Y-114051389D01*
X157884484Y-114011000D01*
X158091516Y-114011000D01*
X158294564Y-114051389D01*
G37*
G36*
X163374564Y-114051389D02*
G01*
X163565833Y-114130615D01*
X163565835Y-114130616D01*
X163737973Y-114245635D01*
X163884365Y-114392027D01*
X163996449Y-114559772D01*
X163999385Y-114564167D01*
X164078611Y-114755436D01*
X164119000Y-114958484D01*
X164119000Y-115165516D01*
X164078611Y-115368564D01*
X164037003Y-115469015D01*
X163999384Y-115559835D01*
X163884365Y-115731973D01*
X163737973Y-115878365D01*
X163565835Y-115993384D01*
X163565834Y-115993385D01*
X163565833Y-115993385D01*
X163374564Y-116072611D01*
X163171516Y-116113000D01*
X162964484Y-116113000D01*
X162761436Y-116072611D01*
X162570167Y-115993385D01*
X162570166Y-115993385D01*
X162570165Y-115993384D01*
X162398027Y-115878365D01*
X162251635Y-115731973D01*
X162136616Y-115559835D01*
X162098997Y-115469015D01*
X162057389Y-115368564D01*
X162017000Y-115165516D01*
X162017000Y-114958484D01*
X162057389Y-114755436D01*
X162136615Y-114564167D01*
X162139552Y-114559772D01*
X162251635Y-114392027D01*
X162398027Y-114245635D01*
X162570165Y-114130616D01*
X162570167Y-114130615D01*
X162761436Y-114051389D01*
X162964484Y-114011000D01*
X163171516Y-114011000D01*
X163374564Y-114051389D01*
G37*
G36*
X110230228Y-113989703D02*
G01*
X110385100Y-114053853D01*
X110524481Y-114146985D01*
X110643015Y-114265519D01*
X110736147Y-114404900D01*
X110800297Y-114559772D01*
X110833000Y-114724184D01*
X110833000Y-114891816D01*
X110800297Y-115056228D01*
X110736147Y-115211100D01*
X110643015Y-115350481D01*
X110524481Y-115469015D01*
X110385100Y-115562147D01*
X110230228Y-115626297D01*
X110065816Y-115659000D01*
X109898184Y-115659000D01*
X109733772Y-115626297D01*
X109578900Y-115562147D01*
X109439519Y-115469015D01*
X109320985Y-115350481D01*
X109227853Y-115211100D01*
X109163703Y-115056228D01*
X109131000Y-114891816D01*
X109131000Y-114724184D01*
X109163703Y-114559772D01*
X109227853Y-114404900D01*
X109320985Y-114265519D01*
X109439519Y-114146985D01*
X109578900Y-114053853D01*
X109733772Y-113989703D01*
X109898184Y-113957000D01*
X110065816Y-113957000D01*
X110230228Y-113989703D01*
G37*
G36*
X99308228Y-113989703D02*
G01*
X99463100Y-114053853D01*
X99602481Y-114146985D01*
X99721015Y-114265519D01*
X99814147Y-114404900D01*
X99878297Y-114559772D01*
X99911000Y-114724184D01*
X99911000Y-114891816D01*
X99878297Y-115056228D01*
X99814147Y-115211100D01*
X99721015Y-115350481D01*
X99602481Y-115469015D01*
X99463100Y-115562147D01*
X99308228Y-115626297D01*
X99143816Y-115659000D01*
X98976184Y-115659000D01*
X98811772Y-115626297D01*
X98656900Y-115562147D01*
X98517519Y-115469015D01*
X98398985Y-115350481D01*
X98305853Y-115211100D01*
X98241703Y-115056228D01*
X98209000Y-114891816D01*
X98209000Y-114724184D01*
X98241703Y-114559772D01*
X98305853Y-114404900D01*
X98398985Y-114265519D01*
X98517519Y-114146985D01*
X98656900Y-114053853D01*
X98811772Y-113989703D01*
X98976184Y-113957000D01*
X99143816Y-113957000D01*
X99308228Y-113989703D01*
G37*
G36*
X120898228Y-113989703D02*
G01*
X121053100Y-114053853D01*
X121192481Y-114146985D01*
X121311015Y-114265519D01*
X121404147Y-114404900D01*
X121468297Y-114559772D01*
X121501000Y-114724184D01*
X121501000Y-114891816D01*
X121468297Y-115056228D01*
X121404147Y-115211100D01*
X121311015Y-115350481D01*
X121192481Y-115469015D01*
X121053100Y-115562147D01*
X120898228Y-115626297D01*
X120733816Y-115659000D01*
X120566184Y-115659000D01*
X120401772Y-115626297D01*
X120246900Y-115562147D01*
X120107519Y-115469015D01*
X119988985Y-115350481D01*
X119895853Y-115211100D01*
X119831703Y-115056228D01*
X119799000Y-114891816D01*
X119799000Y-114724184D01*
X119831703Y-114559772D01*
X119895853Y-114404900D01*
X119988985Y-114265519D01*
X120107519Y-114146985D01*
X120246900Y-114053853D01*
X120401772Y-113989703D01*
X120566184Y-113957000D01*
X120733816Y-113957000D01*
X120898228Y-113989703D01*
G37*
G36*
X114606564Y-112019389D02*
G01*
X114797833Y-112098615D01*
X114797835Y-112098616D01*
X114913608Y-112175973D01*
X114969973Y-112213635D01*
X115116365Y-112360027D01*
X115231385Y-112532167D01*
X115310611Y-112723436D01*
X115351000Y-112926484D01*
X115351000Y-113133516D01*
X115310611Y-113336564D01*
X115283990Y-113400833D01*
X115231384Y-113527835D01*
X115116365Y-113699973D01*
X114969973Y-113846365D01*
X114797835Y-113961384D01*
X114797834Y-113961385D01*
X114797833Y-113961385D01*
X114606564Y-114040611D01*
X114403516Y-114081000D01*
X114196484Y-114081000D01*
X113993436Y-114040611D01*
X113802167Y-113961385D01*
X113802166Y-113961385D01*
X113802165Y-113961384D01*
X113630027Y-113846365D01*
X113483635Y-113699973D01*
X113368616Y-113527835D01*
X113316010Y-113400833D01*
X113289389Y-113336564D01*
X113249000Y-113133516D01*
X113249000Y-112926484D01*
X113289389Y-112723436D01*
X113368615Y-112532167D01*
X113483635Y-112360027D01*
X113630027Y-112213635D01*
X113686392Y-112175973D01*
X113802165Y-112098616D01*
X113802167Y-112098615D01*
X113993436Y-112019389D01*
X114196484Y-111979000D01*
X114403516Y-111979000D01*
X114606564Y-112019389D01*
G37*
G36*
X93016564Y-112019389D02*
G01*
X93207833Y-112098615D01*
X93207835Y-112098616D01*
X93323608Y-112175973D01*
X93379973Y-112213635D01*
X93526365Y-112360027D01*
X93641385Y-112532167D01*
X93720611Y-112723436D01*
X93761000Y-112926484D01*
X93761000Y-113133516D01*
X93720611Y-113336564D01*
X93693990Y-113400833D01*
X93641384Y-113527835D01*
X93526365Y-113699973D01*
X93379973Y-113846365D01*
X93207835Y-113961384D01*
X93207834Y-113961385D01*
X93207833Y-113961385D01*
X93016564Y-114040611D01*
X92813516Y-114081000D01*
X92606484Y-114081000D01*
X92403436Y-114040611D01*
X92212167Y-113961385D01*
X92212166Y-113961385D01*
X92212165Y-113961384D01*
X92040027Y-113846365D01*
X91893635Y-113699973D01*
X91778616Y-113527835D01*
X91726010Y-113400833D01*
X91699389Y-113336564D01*
X91659000Y-113133516D01*
X91659000Y-112926484D01*
X91699389Y-112723436D01*
X91778615Y-112532167D01*
X91893635Y-112360027D01*
X92040027Y-112213635D01*
X92096392Y-112175973D01*
X92212165Y-112098616D01*
X92212167Y-112098615D01*
X92403436Y-112019389D01*
X92606484Y-111979000D01*
X92813516Y-111979000D01*
X93016564Y-112019389D01*
G37*
G36*
X103938564Y-112019389D02*
G01*
X104129833Y-112098615D01*
X104129835Y-112098616D01*
X104245608Y-112175973D01*
X104301973Y-112213635D01*
X104448365Y-112360027D01*
X104563385Y-112532167D01*
X104642611Y-112723436D01*
X104683000Y-112926484D01*
X104683000Y-113133516D01*
X104642611Y-113336564D01*
X104615990Y-113400833D01*
X104563384Y-113527835D01*
X104448365Y-113699973D01*
X104301973Y-113846365D01*
X104129835Y-113961384D01*
X104129834Y-113961385D01*
X104129833Y-113961385D01*
X103938564Y-114040611D01*
X103735516Y-114081000D01*
X103528484Y-114081000D01*
X103325436Y-114040611D01*
X103134167Y-113961385D01*
X103134166Y-113961385D01*
X103134165Y-113961384D01*
X102962027Y-113846365D01*
X102815635Y-113699973D01*
X102700616Y-113527835D01*
X102648010Y-113400833D01*
X102621389Y-113336564D01*
X102581000Y-113133516D01*
X102581000Y-112926484D01*
X102621389Y-112723436D01*
X102700615Y-112532167D01*
X102815635Y-112360027D01*
X102962027Y-112213635D01*
X103018392Y-112175973D01*
X103134165Y-112098616D01*
X103134167Y-112098615D01*
X103325436Y-112019389D01*
X103528484Y-111979000D01*
X103735516Y-111979000D01*
X103938564Y-112019389D01*
G37*
G36*
X137212564Y-111892389D02*
G01*
X137403833Y-111971615D01*
X137403835Y-111971616D01*
X137575973Y-112086635D01*
X137722365Y-112233027D01*
X137807224Y-112360027D01*
X137837385Y-112405167D01*
X137916611Y-112596436D01*
X137957000Y-112799484D01*
X137957000Y-113006516D01*
X137916611Y-113209564D01*
X137837385Y-113400833D01*
X137837384Y-113400835D01*
X137722365Y-113572973D01*
X137575973Y-113719365D01*
X137403835Y-113834384D01*
X137403834Y-113834385D01*
X137403833Y-113834385D01*
X137212564Y-113913611D01*
X137009516Y-113954000D01*
X136802484Y-113954000D01*
X136599436Y-113913611D01*
X136408167Y-113834385D01*
X136408166Y-113834385D01*
X136408165Y-113834384D01*
X136236027Y-113719365D01*
X136089635Y-113572973D01*
X135974616Y-113400835D01*
X135974615Y-113400833D01*
X135895389Y-113209564D01*
X135855000Y-113006516D01*
X135855000Y-112799484D01*
X135895389Y-112596436D01*
X135974615Y-112405167D01*
X136004777Y-112360027D01*
X136089635Y-112233027D01*
X136236027Y-112086635D01*
X136408165Y-111971616D01*
X136408167Y-111971615D01*
X136599436Y-111892389D01*
X136802484Y-111852000D01*
X137009516Y-111852000D01*
X137212564Y-111892389D01*
G37*
G36*
X132132564Y-111892389D02*
G01*
X132323833Y-111971615D01*
X132323835Y-111971616D01*
X132495973Y-112086635D01*
X132642365Y-112233027D01*
X132727224Y-112360027D01*
X132757385Y-112405167D01*
X132836611Y-112596436D01*
X132877000Y-112799484D01*
X132877000Y-113006516D01*
X132836611Y-113209564D01*
X132757385Y-113400833D01*
X132757384Y-113400835D01*
X132642365Y-113572973D01*
X132495973Y-113719365D01*
X132323835Y-113834384D01*
X132323834Y-113834385D01*
X132323833Y-113834385D01*
X132132564Y-113913611D01*
X131929516Y-113954000D01*
X131722484Y-113954000D01*
X131519436Y-113913611D01*
X131328167Y-113834385D01*
X131328166Y-113834385D01*
X131328165Y-113834384D01*
X131156027Y-113719365D01*
X131009635Y-113572973D01*
X130894616Y-113400835D01*
X130894615Y-113400833D01*
X130815389Y-113209564D01*
X130775000Y-113006516D01*
X130775000Y-112799484D01*
X130815389Y-112596436D01*
X130894615Y-112405167D01*
X130924777Y-112360027D01*
X131009635Y-112233027D01*
X131156027Y-112086635D01*
X131328165Y-111971616D01*
X131328167Y-111971615D01*
X131519436Y-111892389D01*
X131722484Y-111852000D01*
X131929516Y-111852000D01*
X132132564Y-111892389D01*
G37*
G36*
X127052564Y-111892389D02*
G01*
X127243833Y-111971615D01*
X127243835Y-111971616D01*
X127415973Y-112086635D01*
X127562365Y-112233027D01*
X127647224Y-112360027D01*
X127677385Y-112405167D01*
X127756611Y-112596436D01*
X127797000Y-112799484D01*
X127797000Y-113006516D01*
X127756611Y-113209564D01*
X127677385Y-113400833D01*
X127677384Y-113400835D01*
X127562365Y-113572973D01*
X127415973Y-113719365D01*
X127243835Y-113834384D01*
X127243834Y-113834385D01*
X127243833Y-113834385D01*
X127052564Y-113913611D01*
X126849516Y-113954000D01*
X126642484Y-113954000D01*
X126439436Y-113913611D01*
X126248167Y-113834385D01*
X126248166Y-113834385D01*
X126248165Y-113834384D01*
X126076027Y-113719365D01*
X125929635Y-113572973D01*
X125814616Y-113400835D01*
X125814615Y-113400833D01*
X125735389Y-113209564D01*
X125695000Y-113006516D01*
X125695000Y-112799484D01*
X125735389Y-112596436D01*
X125814615Y-112405167D01*
X125844777Y-112360027D01*
X125929635Y-112233027D01*
X126076027Y-112086635D01*
X126248165Y-111971616D01*
X126248167Y-111971615D01*
X126439436Y-111892389D01*
X126642484Y-111852000D01*
X126849516Y-111852000D01*
X127052564Y-111892389D01*
G37*
G36*
X172010564Y-110495389D02*
G01*
X172201833Y-110574615D01*
X172201835Y-110574616D01*
X172373973Y-110689635D01*
X172520365Y-110836027D01*
X172635385Y-111008167D01*
X172714611Y-111199436D01*
X172755000Y-111402484D01*
X172755000Y-111609516D01*
X172714611Y-111812564D01*
X172645671Y-111979000D01*
X172635384Y-112003835D01*
X172520365Y-112175973D01*
X172373973Y-112322365D01*
X172201835Y-112437384D01*
X172201834Y-112437385D01*
X172201833Y-112437385D01*
X172010564Y-112516611D01*
X171807516Y-112557000D01*
X171600484Y-112557000D01*
X171397436Y-112516611D01*
X171206167Y-112437385D01*
X171206166Y-112437385D01*
X171206165Y-112437384D01*
X171034027Y-112322365D01*
X170887635Y-112175973D01*
X170772616Y-112003835D01*
X170762329Y-111979000D01*
X170693389Y-111812564D01*
X170653000Y-111609516D01*
X170653000Y-111402484D01*
X170693389Y-111199436D01*
X170772615Y-111008167D01*
X170887635Y-110836027D01*
X171034027Y-110689635D01*
X171206165Y-110574616D01*
X171206167Y-110574615D01*
X171397436Y-110495389D01*
X171600484Y-110455000D01*
X171807516Y-110455000D01*
X172010564Y-110495389D01*
G37*
G36*
X105404228Y-108869703D02*
G01*
X105559100Y-108933853D01*
X105698481Y-109026985D01*
X105817015Y-109145519D01*
X105910147Y-109284900D01*
X105974297Y-109439772D01*
X106007000Y-109604184D01*
X106007000Y-109771816D01*
X105974297Y-109936228D01*
X105910147Y-110091100D01*
X105817015Y-110230481D01*
X105698481Y-110349015D01*
X105559100Y-110442147D01*
X105404228Y-110506297D01*
X105239816Y-110539000D01*
X105072184Y-110539000D01*
X104907772Y-110506297D01*
X104752900Y-110442147D01*
X104613519Y-110349015D01*
X104494985Y-110230481D01*
X104401853Y-110091100D01*
X104337703Y-109936228D01*
X104305000Y-109771816D01*
X104305000Y-109604184D01*
X104337703Y-109439772D01*
X104401853Y-109284900D01*
X104494985Y-109145519D01*
X104613519Y-109026985D01*
X104752900Y-108933853D01*
X104907772Y-108869703D01*
X105072184Y-108837000D01*
X105239816Y-108837000D01*
X105404228Y-108869703D01*
G37*
G36*
X116072228Y-108869703D02*
G01*
X116227100Y-108933853D01*
X116366481Y-109026985D01*
X116485015Y-109145519D01*
X116578147Y-109284900D01*
X116642297Y-109439772D01*
X116675000Y-109604184D01*
X116675000Y-109771816D01*
X116642297Y-109936228D01*
X116578147Y-110091100D01*
X116485015Y-110230481D01*
X116366481Y-110349015D01*
X116227100Y-110442147D01*
X116072228Y-110506297D01*
X115907816Y-110539000D01*
X115740184Y-110539000D01*
X115575772Y-110506297D01*
X115420900Y-110442147D01*
X115281519Y-110349015D01*
X115162985Y-110230481D01*
X115069853Y-110091100D01*
X115005703Y-109936228D01*
X114973000Y-109771816D01*
X114973000Y-109604184D01*
X115005703Y-109439772D01*
X115069853Y-109284900D01*
X115162985Y-109145519D01*
X115281519Y-109026985D01*
X115420900Y-108933853D01*
X115575772Y-108869703D01*
X115740184Y-108837000D01*
X115907816Y-108837000D01*
X116072228Y-108869703D01*
G37*
G36*
X154426228Y-107385703D02*
G01*
X154581100Y-107449853D01*
X154720481Y-107542985D01*
X154839015Y-107661519D01*
X154932147Y-107800900D01*
X154996297Y-107955772D01*
X155029000Y-108120184D01*
X155029000Y-108287816D01*
X154996297Y-108452228D01*
X154932147Y-108607100D01*
X154839015Y-108746481D01*
X154720481Y-108865015D01*
X154581100Y-108958147D01*
X154426228Y-109022297D01*
X154261816Y-109055000D01*
X154094184Y-109055000D01*
X153929772Y-109022297D01*
X153774900Y-108958147D01*
X153635519Y-108865015D01*
X153516985Y-108746481D01*
X153423853Y-108607100D01*
X153359703Y-108452228D01*
X153327000Y-108287816D01*
X153327000Y-108120184D01*
X153359703Y-107955772D01*
X153423853Y-107800900D01*
X153516985Y-107661519D01*
X153635519Y-107542985D01*
X153774900Y-107449853D01*
X153929772Y-107385703D01*
X154094184Y-107353000D01*
X154261816Y-107353000D01*
X154426228Y-107385703D01*
G37*
G36*
X159426228Y-107385703D02*
G01*
X159581100Y-107449853D01*
X159720481Y-107542985D01*
X159839015Y-107661519D01*
X159932147Y-107800900D01*
X159996297Y-107955772D01*
X160029000Y-108120184D01*
X160029000Y-108287816D01*
X159996297Y-108452228D01*
X159932147Y-108607100D01*
X159839015Y-108746481D01*
X159720481Y-108865015D01*
X159581100Y-108958147D01*
X159426228Y-109022297D01*
X159261816Y-109055000D01*
X159094184Y-109055000D01*
X158929772Y-109022297D01*
X158774900Y-108958147D01*
X158635519Y-108865015D01*
X158516985Y-108746481D01*
X158423853Y-108607100D01*
X158359703Y-108452228D01*
X158327000Y-108287816D01*
X158327000Y-108120184D01*
X158359703Y-107955772D01*
X158423853Y-107800900D01*
X158516985Y-107661519D01*
X158635519Y-107542985D01*
X158774900Y-107449853D01*
X158929772Y-107385703D01*
X159094184Y-107353000D01*
X159261816Y-107353000D01*
X159426228Y-107385703D01*
G37*
G36*
X166618228Y-107258703D02*
G01*
X166773100Y-107322853D01*
X166912481Y-107415985D01*
X167031015Y-107534519D01*
X167124147Y-107673900D01*
X167188297Y-107828772D01*
X167221000Y-107993184D01*
X167221000Y-108160816D01*
X167188297Y-108325228D01*
X167124147Y-108480100D01*
X167031015Y-108619481D01*
X166912481Y-108738015D01*
X166773100Y-108831147D01*
X166618228Y-108895297D01*
X166453816Y-108928000D01*
X166286184Y-108928000D01*
X166121772Y-108895297D01*
X165966900Y-108831147D01*
X165827519Y-108738015D01*
X165708985Y-108619481D01*
X165615853Y-108480100D01*
X165551703Y-108325228D01*
X165519000Y-108160816D01*
X165519000Y-107993184D01*
X165551703Y-107828772D01*
X165615853Y-107673900D01*
X165708985Y-107534519D01*
X165827519Y-107415985D01*
X165966900Y-107322853D01*
X166121772Y-107258703D01*
X166286184Y-107226000D01*
X166453816Y-107226000D01*
X166618228Y-107258703D01*
G37*
G36*
X139694228Y-106877703D02*
G01*
X139849100Y-106941853D01*
X139988481Y-107034985D01*
X140107015Y-107153519D01*
X140200147Y-107292900D01*
X140264297Y-107447772D01*
X140297000Y-107612184D01*
X140297000Y-107779816D01*
X140264297Y-107944228D01*
X140200147Y-108099100D01*
X140107015Y-108238481D01*
X139988481Y-108357015D01*
X139849100Y-108450147D01*
X139694228Y-108514297D01*
X139529816Y-108547000D01*
X139362184Y-108547000D01*
X139197772Y-108514297D01*
X139042900Y-108450147D01*
X138903519Y-108357015D01*
X138784985Y-108238481D01*
X138691853Y-108099100D01*
X138627703Y-107944228D01*
X138595000Y-107779816D01*
X138595000Y-107612184D01*
X138627703Y-107447772D01*
X138691853Y-107292900D01*
X138784985Y-107153519D01*
X138903519Y-107034985D01*
X139042900Y-106941853D01*
X139197772Y-106877703D01*
X139362184Y-106845000D01*
X139529816Y-106845000D01*
X139694228Y-106877703D01*
G37*
G36*
X146298228Y-106877703D02*
G01*
X146453100Y-106941853D01*
X146592481Y-107034985D01*
X146711015Y-107153519D01*
X146804147Y-107292900D01*
X146868297Y-107447772D01*
X146901000Y-107612184D01*
X146901000Y-107779816D01*
X146868297Y-107944228D01*
X146804147Y-108099100D01*
X146711015Y-108238481D01*
X146592481Y-108357015D01*
X146453100Y-108450147D01*
X146298228Y-108514297D01*
X146133816Y-108547000D01*
X145966184Y-108547000D01*
X145801772Y-108514297D01*
X145646900Y-108450147D01*
X145507519Y-108357015D01*
X145388985Y-108238481D01*
X145295853Y-108099100D01*
X145231703Y-107944228D01*
X145199000Y-107779816D01*
X145199000Y-107612184D01*
X145231703Y-107447772D01*
X145295853Y-107292900D01*
X145388985Y-107153519D01*
X145507519Y-107034985D01*
X145646900Y-106941853D01*
X145801772Y-106877703D01*
X145966184Y-106845000D01*
X146133816Y-106845000D01*
X146298228Y-106877703D01*
G37*
G36*
X132074228Y-106877703D02*
G01*
X132229100Y-106941853D01*
X132368481Y-107034985D01*
X132487015Y-107153519D01*
X132580147Y-107292900D01*
X132644297Y-107447772D01*
X132677000Y-107612184D01*
X132677000Y-107779816D01*
X132644297Y-107944228D01*
X132580147Y-108099100D01*
X132487015Y-108238481D01*
X132368481Y-108357015D01*
X132229100Y-108450147D01*
X132074228Y-108514297D01*
X131909816Y-108547000D01*
X131742184Y-108547000D01*
X131577772Y-108514297D01*
X131422900Y-108450147D01*
X131283519Y-108357015D01*
X131164985Y-108238481D01*
X131071853Y-108099100D01*
X131007703Y-107944228D01*
X130975000Y-107779816D01*
X130975000Y-107612184D01*
X131007703Y-107447772D01*
X131071853Y-107292900D01*
X131164985Y-107153519D01*
X131283519Y-107034985D01*
X131422900Y-106941853D01*
X131577772Y-106877703D01*
X131742184Y-106845000D01*
X131909816Y-106845000D01*
X132074228Y-106877703D01*
G37*
G36*
X94577000Y-108293000D02*
G01*
X92875000Y-108293000D01*
X92875000Y-106591000D01*
X94577000Y-106591000D01*
X94577000Y-108293000D01*
G37*
G36*
X171952228Y-106496703D02*
G01*
X172107100Y-106560853D01*
X172246481Y-106653985D01*
X172365015Y-106772519D01*
X172458147Y-106911900D01*
X172522297Y-107066772D01*
X172555000Y-107231184D01*
X172555000Y-107398816D01*
X172522297Y-107563228D01*
X172458147Y-107718100D01*
X172365015Y-107857481D01*
X172246481Y-107976015D01*
X172107100Y-108069147D01*
X171952228Y-108133297D01*
X171787816Y-108166000D01*
X171620184Y-108166000D01*
X171455772Y-108133297D01*
X171300900Y-108069147D01*
X171161519Y-107976015D01*
X171042985Y-107857481D01*
X170949853Y-107718100D01*
X170885703Y-107563228D01*
X170853000Y-107398816D01*
X170853000Y-107231184D01*
X170885703Y-107066772D01*
X170949853Y-106911900D01*
X171042985Y-106772519D01*
X171161519Y-106653985D01*
X171300900Y-106560853D01*
X171455772Y-106496703D01*
X171620184Y-106464000D01*
X171787816Y-106464000D01*
X171952228Y-106496703D01*
G37*
G36*
X110230228Y-106369703D02*
G01*
X110385100Y-106433853D01*
X110524481Y-106526985D01*
X110643015Y-106645519D01*
X110736147Y-106784900D01*
X110800297Y-106939772D01*
X110833000Y-107104184D01*
X110833000Y-107271816D01*
X110800297Y-107436228D01*
X110736147Y-107591100D01*
X110643015Y-107730481D01*
X110524481Y-107849015D01*
X110385100Y-107942147D01*
X110230228Y-108006297D01*
X110065816Y-108039000D01*
X109898184Y-108039000D01*
X109733772Y-108006297D01*
X109578900Y-107942147D01*
X109439519Y-107849015D01*
X109320985Y-107730481D01*
X109227853Y-107591100D01*
X109163703Y-107436228D01*
X109131000Y-107271816D01*
X109131000Y-107104184D01*
X109163703Y-106939772D01*
X109227853Y-106784900D01*
X109320985Y-106645519D01*
X109439519Y-106526985D01*
X109578900Y-106433853D01*
X109733772Y-106369703D01*
X109898184Y-106337000D01*
X110065816Y-106337000D01*
X110230228Y-106369703D01*
G37*
G36*
X105404228Y-106369703D02*
G01*
X105559100Y-106433853D01*
X105698481Y-106526985D01*
X105817015Y-106645519D01*
X105910147Y-106784900D01*
X105974297Y-106939772D01*
X106007000Y-107104184D01*
X106007000Y-107271816D01*
X105974297Y-107436228D01*
X105910147Y-107591100D01*
X105817015Y-107730481D01*
X105698481Y-107849015D01*
X105559100Y-107942147D01*
X105404228Y-108006297D01*
X105239816Y-108039000D01*
X105072184Y-108039000D01*
X104907772Y-108006297D01*
X104752900Y-107942147D01*
X104613519Y-107849015D01*
X104494985Y-107730481D01*
X104401853Y-107591100D01*
X104337703Y-107436228D01*
X104305000Y-107271816D01*
X104305000Y-107104184D01*
X104337703Y-106939772D01*
X104401853Y-106784900D01*
X104494985Y-106645519D01*
X104613519Y-106526985D01*
X104752900Y-106433853D01*
X104907772Y-106369703D01*
X105072184Y-106337000D01*
X105239816Y-106337000D01*
X105404228Y-106369703D01*
G37*
G36*
X116072228Y-106369703D02*
G01*
X116227100Y-106433853D01*
X116366481Y-106526985D01*
X116485015Y-106645519D01*
X116578147Y-106784900D01*
X116642297Y-106939772D01*
X116675000Y-107104184D01*
X116675000Y-107271816D01*
X116642297Y-107436228D01*
X116578147Y-107591100D01*
X116485015Y-107730481D01*
X116366481Y-107849015D01*
X116227100Y-107942147D01*
X116072228Y-108006297D01*
X115907816Y-108039000D01*
X115740184Y-108039000D01*
X115575772Y-108006297D01*
X115420900Y-107942147D01*
X115281519Y-107849015D01*
X115162985Y-107730481D01*
X115069853Y-107591100D01*
X115005703Y-107436228D01*
X114973000Y-107271816D01*
X114973000Y-107104184D01*
X115005703Y-106939772D01*
X115069853Y-106784900D01*
X115162985Y-106645519D01*
X115281519Y-106526985D01*
X115420900Y-106433853D01*
X115575772Y-106369703D01*
X115740184Y-106337000D01*
X115907816Y-106337000D01*
X116072228Y-106369703D01*
G37*
G36*
X99308228Y-106369703D02*
G01*
X99463100Y-106433853D01*
X99602481Y-106526985D01*
X99721015Y-106645519D01*
X99814147Y-106784900D01*
X99878297Y-106939772D01*
X99911000Y-107104184D01*
X99911000Y-107271816D01*
X99878297Y-107436228D01*
X99814147Y-107591100D01*
X99721015Y-107730481D01*
X99602481Y-107849015D01*
X99463100Y-107942147D01*
X99308228Y-108006297D01*
X99143816Y-108039000D01*
X98976184Y-108039000D01*
X98811772Y-108006297D01*
X98656900Y-107942147D01*
X98517519Y-107849015D01*
X98398985Y-107730481D01*
X98305853Y-107591100D01*
X98241703Y-107436228D01*
X98209000Y-107271816D01*
X98209000Y-107104184D01*
X98241703Y-106939772D01*
X98305853Y-106784900D01*
X98398985Y-106645519D01*
X98517519Y-106526985D01*
X98656900Y-106433853D01*
X98811772Y-106369703D01*
X98976184Y-106337000D01*
X99143816Y-106337000D01*
X99308228Y-106369703D01*
G37*
G36*
X120898228Y-106369703D02*
G01*
X121053100Y-106433853D01*
X121192481Y-106526985D01*
X121311015Y-106645519D01*
X121404147Y-106784900D01*
X121468297Y-106939772D01*
X121501000Y-107104184D01*
X121501000Y-107271816D01*
X121468297Y-107436228D01*
X121404147Y-107591100D01*
X121311015Y-107730481D01*
X121192481Y-107849015D01*
X121053100Y-107942147D01*
X120898228Y-108006297D01*
X120733816Y-108039000D01*
X120566184Y-108039000D01*
X120401772Y-108006297D01*
X120246900Y-107942147D01*
X120107519Y-107849015D01*
X119988985Y-107730481D01*
X119895853Y-107591100D01*
X119831703Y-107436228D01*
X119799000Y-107271816D01*
X119799000Y-107104184D01*
X119831703Y-106939772D01*
X119895853Y-106784900D01*
X119988985Y-106645519D01*
X120107519Y-106526985D01*
X120246900Y-106433853D01*
X120401772Y-106369703D01*
X120566184Y-106337000D01*
X120733816Y-106337000D01*
X120898228Y-106369703D01*
G37*
G36*
X93974228Y-104623703D02*
G01*
X94129100Y-104687853D01*
X94268481Y-104780985D01*
X94387015Y-104899519D01*
X94480147Y-105038900D01*
X94544297Y-105193772D01*
X94577000Y-105358184D01*
X94577000Y-105525816D01*
X94544297Y-105690228D01*
X94480147Y-105845100D01*
X94387015Y-105984481D01*
X94268481Y-106103015D01*
X94129100Y-106196147D01*
X93974228Y-106260297D01*
X93809816Y-106293000D01*
X93642184Y-106293000D01*
X93477772Y-106260297D01*
X93322900Y-106196147D01*
X93183519Y-106103015D01*
X93064985Y-105984481D01*
X92971853Y-105845100D01*
X92907703Y-105690228D01*
X92875000Y-105525816D01*
X92875000Y-105358184D01*
X92907703Y-105193772D01*
X92971853Y-105038900D01*
X93064985Y-104899519D01*
X93183519Y-104780985D01*
X93322900Y-104687853D01*
X93477772Y-104623703D01*
X93642184Y-104591000D01*
X93809816Y-104591000D01*
X93974228Y-104623703D01*
G37*
G36*
X154426228Y-102305703D02*
G01*
X154581100Y-102369853D01*
X154720481Y-102462985D01*
X154839015Y-102581519D01*
X154932147Y-102720900D01*
X154996297Y-102875772D01*
X155029000Y-103040184D01*
X155029000Y-103207816D01*
X154996297Y-103372228D01*
X154932147Y-103527100D01*
X154839015Y-103666481D01*
X154720481Y-103785015D01*
X154581100Y-103878147D01*
X154426228Y-103942297D01*
X154261816Y-103975000D01*
X154094184Y-103975000D01*
X153929772Y-103942297D01*
X153774900Y-103878147D01*
X153635519Y-103785015D01*
X153516985Y-103666481D01*
X153423853Y-103527100D01*
X153359703Y-103372228D01*
X153327000Y-103207816D01*
X153327000Y-103040184D01*
X153359703Y-102875772D01*
X153423853Y-102720900D01*
X153516985Y-102581519D01*
X153635519Y-102462985D01*
X153774900Y-102369853D01*
X153929772Y-102305703D01*
X154094184Y-102273000D01*
X154261816Y-102273000D01*
X154426228Y-102305703D01*
G37*
G36*
X162046228Y-102305703D02*
G01*
X162201100Y-102369853D01*
X162340481Y-102462985D01*
X162459015Y-102581519D01*
X162552147Y-102720900D01*
X162616297Y-102875772D01*
X162649000Y-103040184D01*
X162649000Y-103207816D01*
X162616297Y-103372228D01*
X162552147Y-103527100D01*
X162459015Y-103666481D01*
X162340481Y-103785015D01*
X162201100Y-103878147D01*
X162046228Y-103942297D01*
X161881816Y-103975000D01*
X161714184Y-103975000D01*
X161549772Y-103942297D01*
X161394900Y-103878147D01*
X161255519Y-103785015D01*
X161136985Y-103666481D01*
X161043853Y-103527100D01*
X160979703Y-103372228D01*
X160947000Y-103207816D01*
X160947000Y-103040184D01*
X160979703Y-102875772D01*
X161043853Y-102720900D01*
X161136985Y-102581519D01*
X161255519Y-102462985D01*
X161394900Y-102369853D01*
X161549772Y-102305703D01*
X161714184Y-102273000D01*
X161881816Y-102273000D01*
X162046228Y-102305703D01*
G37*
G36*
X166618228Y-102258703D02*
G01*
X166773100Y-102322853D01*
X166912481Y-102415985D01*
X167031015Y-102534519D01*
X167124147Y-102673900D01*
X167188297Y-102828772D01*
X167221000Y-102993184D01*
X167221000Y-103160816D01*
X167188297Y-103325228D01*
X167124147Y-103480100D01*
X167031015Y-103619481D01*
X166912481Y-103738015D01*
X166773100Y-103831147D01*
X166618228Y-103895297D01*
X166453816Y-103928000D01*
X166286184Y-103928000D01*
X166121772Y-103895297D01*
X165966900Y-103831147D01*
X165827519Y-103738015D01*
X165708985Y-103619481D01*
X165615853Y-103480100D01*
X165551703Y-103325228D01*
X165519000Y-103160816D01*
X165519000Y-102993184D01*
X165551703Y-102828772D01*
X165615853Y-102673900D01*
X165708985Y-102534519D01*
X165827519Y-102415985D01*
X165966900Y-102322853D01*
X166121772Y-102258703D01*
X166286184Y-102226000D01*
X166453816Y-102226000D01*
X166618228Y-102258703D01*
G37*
G36*
X146298228Y-101877703D02*
G01*
X146453100Y-101941853D01*
X146592481Y-102034985D01*
X146711015Y-102153519D01*
X146804147Y-102292900D01*
X146868297Y-102447772D01*
X146901000Y-102612184D01*
X146901000Y-102779816D01*
X146868297Y-102944228D01*
X146804147Y-103099100D01*
X146711015Y-103238481D01*
X146592481Y-103357015D01*
X146453100Y-103450147D01*
X146298228Y-103514297D01*
X146133816Y-103547000D01*
X145966184Y-103547000D01*
X145801772Y-103514297D01*
X145646900Y-103450147D01*
X145507519Y-103357015D01*
X145388985Y-103238481D01*
X145295853Y-103099100D01*
X145231703Y-102944228D01*
X145199000Y-102779816D01*
X145199000Y-102612184D01*
X145231703Y-102447772D01*
X145295853Y-102292900D01*
X145388985Y-102153519D01*
X145507519Y-102034985D01*
X145646900Y-101941853D01*
X145801772Y-101877703D01*
X145966184Y-101845000D01*
X146133816Y-101845000D01*
X146298228Y-101877703D01*
G37*
G36*
X105404228Y-101543703D02*
G01*
X105559100Y-101607853D01*
X105698481Y-101700985D01*
X105817015Y-101819519D01*
X105910147Y-101958900D01*
X105974297Y-102113772D01*
X106007000Y-102278184D01*
X106007000Y-102445816D01*
X105974297Y-102610228D01*
X105910147Y-102765100D01*
X105817015Y-102904481D01*
X105698481Y-103023015D01*
X105559100Y-103116147D01*
X105404228Y-103180297D01*
X105239816Y-103213000D01*
X105072184Y-103213000D01*
X104907772Y-103180297D01*
X104752900Y-103116147D01*
X104613519Y-103023015D01*
X104494985Y-102904481D01*
X104401853Y-102765100D01*
X104337703Y-102610228D01*
X104305000Y-102445816D01*
X104305000Y-102278184D01*
X104337703Y-102113772D01*
X104401853Y-101958900D01*
X104494985Y-101819519D01*
X104613519Y-101700985D01*
X104752900Y-101607853D01*
X104907772Y-101543703D01*
X105072184Y-101511000D01*
X105239816Y-101511000D01*
X105404228Y-101543703D01*
G37*
G36*
X113024228Y-101543703D02*
G01*
X113179100Y-101607853D01*
X113318481Y-101700985D01*
X113437015Y-101819519D01*
X113530147Y-101958900D01*
X113594297Y-102113772D01*
X113627000Y-102278184D01*
X113627000Y-102445816D01*
X113594297Y-102610228D01*
X113530147Y-102765100D01*
X113437015Y-102904481D01*
X113318481Y-103023015D01*
X113179100Y-103116147D01*
X113024228Y-103180297D01*
X112859816Y-103213000D01*
X112692184Y-103213000D01*
X112527772Y-103180297D01*
X112372900Y-103116147D01*
X112233519Y-103023015D01*
X112114985Y-102904481D01*
X112021853Y-102765100D01*
X111957703Y-102610228D01*
X111925000Y-102445816D01*
X111925000Y-102278184D01*
X111957703Y-102113772D01*
X112021853Y-101958900D01*
X112114985Y-101819519D01*
X112233519Y-101700985D01*
X112372900Y-101607853D01*
X112527772Y-101543703D01*
X112692184Y-101511000D01*
X112859816Y-101511000D01*
X113024228Y-101543703D01*
G37*
G36*
X115564228Y-101543703D02*
G01*
X115719100Y-101607853D01*
X115858481Y-101700985D01*
X115977015Y-101819519D01*
X116070147Y-101958900D01*
X116134297Y-102113772D01*
X116167000Y-102278184D01*
X116167000Y-102445816D01*
X116134297Y-102610228D01*
X116070147Y-102765100D01*
X115977015Y-102904481D01*
X115858481Y-103023015D01*
X115719100Y-103116147D01*
X115564228Y-103180297D01*
X115399816Y-103213000D01*
X115232184Y-103213000D01*
X115067772Y-103180297D01*
X114912900Y-103116147D01*
X114773519Y-103023015D01*
X114654985Y-102904481D01*
X114561853Y-102765100D01*
X114497703Y-102610228D01*
X114465000Y-102445816D01*
X114465000Y-102278184D01*
X114497703Y-102113772D01*
X114561853Y-101958900D01*
X114654985Y-101819519D01*
X114773519Y-101700985D01*
X114912900Y-101607853D01*
X115067772Y-101543703D01*
X115232184Y-101511000D01*
X115399816Y-101511000D01*
X115564228Y-101543703D01*
G37*
G36*
X110484228Y-101543703D02*
G01*
X110639100Y-101607853D01*
X110778481Y-101700985D01*
X110897015Y-101819519D01*
X110990147Y-101958900D01*
X111054297Y-102113772D01*
X111087000Y-102278184D01*
X111087000Y-102445816D01*
X111054297Y-102610228D01*
X110990147Y-102765100D01*
X110897015Y-102904481D01*
X110778481Y-103023015D01*
X110639100Y-103116147D01*
X110484228Y-103180297D01*
X110319816Y-103213000D01*
X110152184Y-103213000D01*
X109987772Y-103180297D01*
X109832900Y-103116147D01*
X109693519Y-103023015D01*
X109574985Y-102904481D01*
X109481853Y-102765100D01*
X109417703Y-102610228D01*
X109385000Y-102445816D01*
X109385000Y-102278184D01*
X109417703Y-102113772D01*
X109481853Y-101958900D01*
X109574985Y-101819519D01*
X109693519Y-101700985D01*
X109832900Y-101607853D01*
X109987772Y-101543703D01*
X110152184Y-101511000D01*
X110319816Y-101511000D01*
X110484228Y-101543703D01*
G37*
G36*
X107944228Y-101543703D02*
G01*
X108099100Y-101607853D01*
X108238481Y-101700985D01*
X108357015Y-101819519D01*
X108450147Y-101958900D01*
X108514297Y-102113772D01*
X108547000Y-102278184D01*
X108547000Y-102445816D01*
X108514297Y-102610228D01*
X108450147Y-102765100D01*
X108357015Y-102904481D01*
X108238481Y-103023015D01*
X108099100Y-103116147D01*
X107944228Y-103180297D01*
X107779816Y-103213000D01*
X107612184Y-103213000D01*
X107447772Y-103180297D01*
X107292900Y-103116147D01*
X107153519Y-103023015D01*
X107034985Y-102904481D01*
X106941853Y-102765100D01*
X106877703Y-102610228D01*
X106845000Y-102445816D01*
X106845000Y-102278184D01*
X106877703Y-102113772D01*
X106941853Y-101958900D01*
X107034985Y-101819519D01*
X107153519Y-101700985D01*
X107292900Y-101607853D01*
X107447772Y-101543703D01*
X107612184Y-101511000D01*
X107779816Y-101511000D01*
X107944228Y-101543703D01*
G37*
G36*
X102864228Y-101543703D02*
G01*
X103019100Y-101607853D01*
X103158481Y-101700985D01*
X103277015Y-101819519D01*
X103370147Y-101958900D01*
X103434297Y-102113772D01*
X103467000Y-102278184D01*
X103467000Y-102445816D01*
X103434297Y-102610228D01*
X103370147Y-102765100D01*
X103277015Y-102904481D01*
X103158481Y-103023015D01*
X103019100Y-103116147D01*
X102864228Y-103180297D01*
X102699816Y-103213000D01*
X102532184Y-103213000D01*
X102367772Y-103180297D01*
X102212900Y-103116147D01*
X102073519Y-103023015D01*
X101954985Y-102904481D01*
X101861853Y-102765100D01*
X101797703Y-102610228D01*
X101765000Y-102445816D01*
X101765000Y-102278184D01*
X101797703Y-102113772D01*
X101861853Y-101958900D01*
X101954985Y-101819519D01*
X102073519Y-101700985D01*
X102212900Y-101607853D01*
X102367772Y-101543703D01*
X102532184Y-101511000D01*
X102699816Y-101511000D01*
X102864228Y-101543703D01*
G37*
G36*
X100927000Y-103213000D02*
G01*
X99225000Y-103213000D01*
X99225000Y-101511000D01*
X100927000Y-101511000D01*
X100927000Y-103213000D01*
G37*
G36*
X171952228Y-98876703D02*
G01*
X172107100Y-98940853D01*
X172246481Y-99033985D01*
X172365015Y-99152519D01*
X172458147Y-99291900D01*
X172522297Y-99446772D01*
X172555000Y-99611184D01*
X172555000Y-99778816D01*
X172522297Y-99943228D01*
X172458147Y-100098100D01*
X172365015Y-100237481D01*
X172246481Y-100356015D01*
X172107100Y-100449147D01*
X171952228Y-100513297D01*
X171787816Y-100546000D01*
X171620184Y-100546000D01*
X171455772Y-100513297D01*
X171300900Y-100449147D01*
X171161519Y-100356015D01*
X171042985Y-100237481D01*
X170949853Y-100098100D01*
X170885703Y-99943228D01*
X170853000Y-99778816D01*
X170853000Y-99611184D01*
X170885703Y-99446772D01*
X170949853Y-99291900D01*
X171042985Y-99152519D01*
X171161519Y-99033985D01*
X171300900Y-98940853D01*
X171455772Y-98876703D01*
X171620184Y-98844000D01*
X171787816Y-98844000D01*
X171952228Y-98876703D01*
G37*
G36*
X130989564Y-98049389D02*
G01*
X131180833Y-98128615D01*
X131180835Y-98128616D01*
X131352973Y-98243635D01*
X131499365Y-98390027D01*
X131551589Y-98468185D01*
X131614385Y-98562167D01*
X131693611Y-98753436D01*
X131734000Y-98956484D01*
X131734000Y-99163516D01*
X131693611Y-99366564D01*
X131614385Y-99557833D01*
X131614384Y-99557835D01*
X131499365Y-99729973D01*
X131352973Y-99876365D01*
X131180835Y-99991384D01*
X131180834Y-99991385D01*
X131180833Y-99991385D01*
X130989564Y-100070611D01*
X130786516Y-100111000D01*
X130579484Y-100111000D01*
X130376436Y-100070611D01*
X130185167Y-99991385D01*
X130185166Y-99991385D01*
X130185165Y-99991384D01*
X130013027Y-99876365D01*
X129866635Y-99729973D01*
X129751616Y-99557835D01*
X129751615Y-99557833D01*
X129672389Y-99366564D01*
X129632000Y-99163516D01*
X129632000Y-98956484D01*
X129672389Y-98753436D01*
X129751615Y-98562167D01*
X129814412Y-98468185D01*
X129866635Y-98390027D01*
X130013027Y-98243635D01*
X130185165Y-98128616D01*
X130185167Y-98128615D01*
X130376436Y-98049389D01*
X130579484Y-98009000D01*
X130786516Y-98009000D01*
X130989564Y-98049389D01*
G37*
G36*
X146298228Y-97733703D02*
G01*
X146453100Y-97797853D01*
X146592481Y-97890985D01*
X146711015Y-98009519D01*
X146804147Y-98148900D01*
X146868297Y-98303772D01*
X146901000Y-98468184D01*
X146901000Y-98635816D01*
X146868297Y-98800228D01*
X146804147Y-98955100D01*
X146711015Y-99094481D01*
X146592481Y-99213015D01*
X146453100Y-99306147D01*
X146298228Y-99370297D01*
X146133816Y-99403000D01*
X145966184Y-99403000D01*
X145801772Y-99370297D01*
X145646900Y-99306147D01*
X145507519Y-99213015D01*
X145388985Y-99094481D01*
X145295853Y-98955100D01*
X145231703Y-98800228D01*
X145199000Y-98635816D01*
X145199000Y-98468184D01*
X145231703Y-98303772D01*
X145295853Y-98148900D01*
X145388985Y-98009519D01*
X145507519Y-97890985D01*
X145646900Y-97797853D01*
X145801772Y-97733703D01*
X145966184Y-97701000D01*
X146133816Y-97701000D01*
X146298228Y-97733703D01*
G37*
G36*
X156934000Y-98387000D02*
G01*
X155232000Y-98387000D01*
X155232000Y-96685000D01*
X156934000Y-96685000D01*
X156934000Y-98387000D01*
G37*
G36*
X158871228Y-96717703D02*
G01*
X159026100Y-96781853D01*
X159165481Y-96874985D01*
X159284015Y-96993519D01*
X159377147Y-97132900D01*
X159441297Y-97287772D01*
X159474000Y-97452184D01*
X159474000Y-97619816D01*
X159441297Y-97784228D01*
X159377147Y-97939100D01*
X159284015Y-98078481D01*
X159165481Y-98197015D01*
X159026100Y-98290147D01*
X158871228Y-98354297D01*
X158706816Y-98387000D01*
X158539184Y-98387000D01*
X158374772Y-98354297D01*
X158219900Y-98290147D01*
X158080519Y-98197015D01*
X157961985Y-98078481D01*
X157868853Y-97939100D01*
X157804703Y-97784228D01*
X157772000Y-97619816D01*
X157772000Y-97452184D01*
X157804703Y-97287772D01*
X157868853Y-97132900D01*
X157961985Y-96993519D01*
X158080519Y-96874985D01*
X158219900Y-96781853D01*
X158374772Y-96717703D01*
X158539184Y-96685000D01*
X158706816Y-96685000D01*
X158871228Y-96717703D01*
G37*
G36*
X161411228Y-96717703D02*
G01*
X161566100Y-96781853D01*
X161705481Y-96874985D01*
X161824015Y-96993519D01*
X161917147Y-97132900D01*
X161981297Y-97287772D01*
X162014000Y-97452184D01*
X162014000Y-97619816D01*
X161981297Y-97784228D01*
X161917147Y-97939100D01*
X161824015Y-98078481D01*
X161705481Y-98197015D01*
X161566100Y-98290147D01*
X161411228Y-98354297D01*
X161246816Y-98387000D01*
X161079184Y-98387000D01*
X160914772Y-98354297D01*
X160759900Y-98290147D01*
X160620519Y-98197015D01*
X160501985Y-98078481D01*
X160408853Y-97939100D01*
X160344703Y-97784228D01*
X160312000Y-97619816D01*
X160312000Y-97452184D01*
X160344703Y-97287772D01*
X160408853Y-97132900D01*
X160501985Y-96993519D01*
X160620519Y-96874985D01*
X160759900Y-96781853D01*
X160914772Y-96717703D01*
X161079184Y-96685000D01*
X161246816Y-96685000D01*
X161411228Y-96717703D01*
G37*
G36*
X163951228Y-96717703D02*
G01*
X164106100Y-96781853D01*
X164245481Y-96874985D01*
X164364015Y-96993519D01*
X164457147Y-97132900D01*
X164521297Y-97287772D01*
X164554000Y-97452184D01*
X164554000Y-97619816D01*
X164521297Y-97784228D01*
X164457147Y-97939100D01*
X164364015Y-98078481D01*
X164245481Y-98197015D01*
X164106100Y-98290147D01*
X163951228Y-98354297D01*
X163786816Y-98387000D01*
X163619184Y-98387000D01*
X163454772Y-98354297D01*
X163299900Y-98290147D01*
X163160519Y-98197015D01*
X163041985Y-98078481D01*
X162948853Y-97939100D01*
X162884703Y-97784228D01*
X162852000Y-97619816D01*
X162852000Y-97452184D01*
X162884703Y-97287772D01*
X162948853Y-97132900D01*
X163041985Y-96993519D01*
X163160519Y-96874985D01*
X163299900Y-96781853D01*
X163454772Y-96717703D01*
X163619184Y-96685000D01*
X163786816Y-96685000D01*
X163951228Y-96717703D01*
G37*
G36*
X96006228Y-96423703D02*
G01*
X96161100Y-96487853D01*
X96300481Y-96580985D01*
X96419015Y-96699519D01*
X96512147Y-96838900D01*
X96576297Y-96993772D01*
X96609000Y-97158184D01*
X96609000Y-97325816D01*
X96576297Y-97490228D01*
X96512147Y-97645100D01*
X96419015Y-97784481D01*
X96300481Y-97903015D01*
X96161100Y-97996147D01*
X96006228Y-98060297D01*
X95841816Y-98093000D01*
X95674184Y-98093000D01*
X95509772Y-98060297D01*
X95354900Y-97996147D01*
X95215519Y-97903015D01*
X95096985Y-97784481D01*
X95003853Y-97645100D01*
X94939703Y-97490228D01*
X94907000Y-97325816D01*
X94907000Y-97158184D01*
X94939703Y-96993772D01*
X95003853Y-96838900D01*
X95096985Y-96699519D01*
X95215519Y-96580985D01*
X95354900Y-96487853D01*
X95509772Y-96423703D01*
X95674184Y-96391000D01*
X95841816Y-96391000D01*
X96006228Y-96423703D01*
G37*
G36*
X84449256Y-94022298D02*
G01*
X84555579Y-94043447D01*
X84856042Y-94167903D01*
X85126451Y-94348585D01*
X85356415Y-94578549D01*
X85409626Y-94658185D01*
X85537098Y-94848960D01*
X85661553Y-95149422D01*
X85725000Y-95468389D01*
X85725000Y-95793611D01*
X85705673Y-95890772D01*
X85661553Y-96112579D01*
X85537097Y-96413042D01*
X85356415Y-96683451D01*
X85126451Y-96913415D01*
X84856042Y-97094097D01*
X84555579Y-97218553D01*
X84449256Y-97239702D01*
X84236611Y-97282000D01*
X83911389Y-97282000D01*
X83698744Y-97239702D01*
X83592421Y-97218553D01*
X83291958Y-97094097D01*
X83021549Y-96913415D01*
X82791585Y-96683451D01*
X82610903Y-96413042D01*
X82486447Y-96112579D01*
X82442327Y-95890772D01*
X82423000Y-95793611D01*
X82423000Y-95468389D01*
X82486447Y-95149422D01*
X82610902Y-94848960D01*
X82738374Y-94658185D01*
X82791585Y-94578549D01*
X83021549Y-94348585D01*
X83291958Y-94167903D01*
X83592421Y-94043447D01*
X83698744Y-94022298D01*
X83911389Y-93980000D01*
X84236611Y-93980000D01*
X84449256Y-94022298D01*
G37*
G36*
X168904228Y-95320703D02*
G01*
X169059100Y-95384853D01*
X169198481Y-95477985D01*
X169317015Y-95596519D01*
X169410147Y-95735900D01*
X169474297Y-95890772D01*
X169507000Y-96055184D01*
X169507000Y-96222816D01*
X169474297Y-96387228D01*
X169410147Y-96542100D01*
X169317015Y-96681481D01*
X169198481Y-96800015D01*
X169059100Y-96893147D01*
X168904228Y-96957297D01*
X168739816Y-96990000D01*
X168572184Y-96990000D01*
X168407772Y-96957297D01*
X168252900Y-96893147D01*
X168113519Y-96800015D01*
X167994985Y-96681481D01*
X167901853Y-96542100D01*
X167837703Y-96387228D01*
X167805000Y-96222816D01*
X167805000Y-96055184D01*
X167837703Y-95890772D01*
X167901853Y-95735900D01*
X167994985Y-95596519D01*
X168113519Y-95477985D01*
X168252900Y-95384853D01*
X168407772Y-95320703D01*
X168572184Y-95288000D01*
X168739816Y-95288000D01*
X168904228Y-95320703D01*
G37*
G36*
X115564228Y-93923703D02*
G01*
X115719100Y-93987853D01*
X115858481Y-94080985D01*
X115977015Y-94199519D01*
X116070147Y-94338900D01*
X116134297Y-94493772D01*
X116167000Y-94658184D01*
X116167000Y-94825816D01*
X116134297Y-94990228D01*
X116070147Y-95145100D01*
X115977015Y-95284481D01*
X115858481Y-95403015D01*
X115719100Y-95496147D01*
X115564228Y-95560297D01*
X115399816Y-95593000D01*
X115232184Y-95593000D01*
X115067772Y-95560297D01*
X114912900Y-95496147D01*
X114773519Y-95403015D01*
X114654985Y-95284481D01*
X114561853Y-95145100D01*
X114497703Y-94990228D01*
X114465000Y-94825816D01*
X114465000Y-94658184D01*
X114497703Y-94493772D01*
X114561853Y-94338900D01*
X114654985Y-94199519D01*
X114773519Y-94080985D01*
X114912900Y-93987853D01*
X115067772Y-93923703D01*
X115232184Y-93891000D01*
X115399816Y-93891000D01*
X115564228Y-93923703D01*
G37*
G36*
X113024228Y-93923703D02*
G01*
X113179100Y-93987853D01*
X113318481Y-94080985D01*
X113437015Y-94199519D01*
X113530147Y-94338900D01*
X113594297Y-94493772D01*
X113627000Y-94658184D01*
X113627000Y-94825816D01*
X113594297Y-94990228D01*
X113530147Y-95145100D01*
X113437015Y-95284481D01*
X113318481Y-95403015D01*
X113179100Y-95496147D01*
X113024228Y-95560297D01*
X112859816Y-95593000D01*
X112692184Y-95593000D01*
X112527772Y-95560297D01*
X112372900Y-95496147D01*
X112233519Y-95403015D01*
X112114985Y-95284481D01*
X112021853Y-95145100D01*
X111957703Y-94990228D01*
X111925000Y-94825816D01*
X111925000Y-94658184D01*
X111957703Y-94493772D01*
X112021853Y-94338900D01*
X112114985Y-94199519D01*
X112233519Y-94080985D01*
X112372900Y-93987853D01*
X112527772Y-93923703D01*
X112692184Y-93891000D01*
X112859816Y-93891000D01*
X113024228Y-93923703D01*
G37*
G36*
X105404228Y-93923703D02*
G01*
X105559100Y-93987853D01*
X105698481Y-94080985D01*
X105817015Y-94199519D01*
X105910147Y-94338900D01*
X105974297Y-94493772D01*
X106007000Y-94658184D01*
X106007000Y-94825816D01*
X105974297Y-94990228D01*
X105910147Y-95145100D01*
X105817015Y-95284481D01*
X105698481Y-95403015D01*
X105559100Y-95496147D01*
X105404228Y-95560297D01*
X105239816Y-95593000D01*
X105072184Y-95593000D01*
X104907772Y-95560297D01*
X104752900Y-95496147D01*
X104613519Y-95403015D01*
X104494985Y-95284481D01*
X104401853Y-95145100D01*
X104337703Y-94990228D01*
X104305000Y-94825816D01*
X104305000Y-94658184D01*
X104337703Y-94493772D01*
X104401853Y-94338900D01*
X104494985Y-94199519D01*
X104613519Y-94080985D01*
X104752900Y-93987853D01*
X104907772Y-93923703D01*
X105072184Y-93891000D01*
X105239816Y-93891000D01*
X105404228Y-93923703D01*
G37*
G36*
X96006228Y-93923703D02*
G01*
X96161100Y-93987853D01*
X96300481Y-94080985D01*
X96419015Y-94199519D01*
X96512147Y-94338900D01*
X96576297Y-94493772D01*
X96609000Y-94658184D01*
X96609000Y-94825816D01*
X96576297Y-94990228D01*
X96512147Y-95145100D01*
X96419015Y-95284481D01*
X96300481Y-95403015D01*
X96161100Y-95496147D01*
X96006228Y-95560297D01*
X95841816Y-95593000D01*
X95674184Y-95593000D01*
X95509772Y-95560297D01*
X95354900Y-95496147D01*
X95215519Y-95403015D01*
X95096985Y-95284481D01*
X95003853Y-95145100D01*
X94939703Y-94990228D01*
X94907000Y-94825816D01*
X94907000Y-94658184D01*
X94939703Y-94493772D01*
X95003853Y-94338900D01*
X95096985Y-94199519D01*
X95215519Y-94080985D01*
X95354900Y-93987853D01*
X95509772Y-93923703D01*
X95674184Y-93891000D01*
X95841816Y-93891000D01*
X96006228Y-93923703D01*
G37*
G36*
X102864228Y-93923703D02*
G01*
X103019100Y-93987853D01*
X103158481Y-94080985D01*
X103277015Y-94199519D01*
X103370147Y-94338900D01*
X103434297Y-94493772D01*
X103467000Y-94658184D01*
X103467000Y-94825816D01*
X103434297Y-94990228D01*
X103370147Y-95145100D01*
X103277015Y-95284481D01*
X103158481Y-95403015D01*
X103019100Y-95496147D01*
X102864228Y-95560297D01*
X102699816Y-95593000D01*
X102532184Y-95593000D01*
X102367772Y-95560297D01*
X102212900Y-95496147D01*
X102073519Y-95403015D01*
X101954985Y-95284481D01*
X101861853Y-95145100D01*
X101797703Y-94990228D01*
X101765000Y-94825816D01*
X101765000Y-94658184D01*
X101797703Y-94493772D01*
X101861853Y-94338900D01*
X101954985Y-94199519D01*
X102073519Y-94080985D01*
X102212900Y-93987853D01*
X102367772Y-93923703D01*
X102532184Y-93891000D01*
X102699816Y-93891000D01*
X102864228Y-93923703D01*
G37*
G36*
X107944228Y-93923703D02*
G01*
X108099100Y-93987853D01*
X108238481Y-94080985D01*
X108357015Y-94199519D01*
X108450147Y-94338900D01*
X108514297Y-94493772D01*
X108547000Y-94658184D01*
X108547000Y-94825816D01*
X108514297Y-94990228D01*
X108450147Y-95145100D01*
X108357015Y-95284481D01*
X108238481Y-95403015D01*
X108099100Y-95496147D01*
X107944228Y-95560297D01*
X107779816Y-95593000D01*
X107612184Y-95593000D01*
X107447772Y-95560297D01*
X107292900Y-95496147D01*
X107153519Y-95403015D01*
X107034985Y-95284481D01*
X106941853Y-95145100D01*
X106877703Y-94990228D01*
X106845000Y-94825816D01*
X106845000Y-94658184D01*
X106877703Y-94493772D01*
X106941853Y-94338900D01*
X107034985Y-94199519D01*
X107153519Y-94080985D01*
X107292900Y-93987853D01*
X107447772Y-93923703D01*
X107612184Y-93891000D01*
X107779816Y-93891000D01*
X107944228Y-93923703D01*
G37*
G36*
X100324228Y-93923703D02*
G01*
X100479100Y-93987853D01*
X100618481Y-94080985D01*
X100737015Y-94199519D01*
X100830147Y-94338900D01*
X100894297Y-94493772D01*
X100927000Y-94658184D01*
X100927000Y-94825816D01*
X100894297Y-94990228D01*
X100830147Y-95145100D01*
X100737015Y-95284481D01*
X100618481Y-95403015D01*
X100479100Y-95496147D01*
X100324228Y-95560297D01*
X100159816Y-95593000D01*
X99992184Y-95593000D01*
X99827772Y-95560297D01*
X99672900Y-95496147D01*
X99533519Y-95403015D01*
X99414985Y-95284481D01*
X99321853Y-95145100D01*
X99257703Y-94990228D01*
X99225000Y-94825816D01*
X99225000Y-94658184D01*
X99257703Y-94493772D01*
X99321853Y-94338900D01*
X99414985Y-94199519D01*
X99533519Y-94080985D01*
X99672900Y-93987853D01*
X99827772Y-93923703D01*
X99992184Y-93891000D01*
X100159816Y-93891000D01*
X100324228Y-93923703D01*
G37*
G36*
X110484228Y-93923703D02*
G01*
X110639100Y-93987853D01*
X110778481Y-94080985D01*
X110897015Y-94199519D01*
X110990147Y-94338900D01*
X111054297Y-94493772D01*
X111087000Y-94658184D01*
X111087000Y-94825816D01*
X111054297Y-94990228D01*
X110990147Y-95145100D01*
X110897015Y-95284481D01*
X110778481Y-95403015D01*
X110639100Y-95496147D01*
X110484228Y-95560297D01*
X110319816Y-95593000D01*
X110152184Y-95593000D01*
X109987772Y-95560297D01*
X109832900Y-95496147D01*
X109693519Y-95403015D01*
X109574985Y-95284481D01*
X109481853Y-95145100D01*
X109417703Y-94990228D01*
X109385000Y-94825816D01*
X109385000Y-94658184D01*
X109417703Y-94493772D01*
X109481853Y-94338900D01*
X109574985Y-94199519D01*
X109693519Y-94080985D01*
X109832900Y-93987853D01*
X109987772Y-93923703D01*
X110152184Y-93891000D01*
X110319816Y-93891000D01*
X110484228Y-93923703D01*
G37*
G36*
X175222000Y-94577000D02*
G01*
X173520000Y-94577000D01*
X173520000Y-92875000D01*
X175222000Y-92875000D01*
X175222000Y-94577000D01*
G37*
G36*
X152013228Y-91597703D02*
G01*
X152168100Y-91661853D01*
X152307481Y-91754985D01*
X152426015Y-91873519D01*
X152519147Y-92012900D01*
X152583297Y-92167772D01*
X152616000Y-92332184D01*
X152616000Y-92499816D01*
X152583297Y-92664228D01*
X152519147Y-92819100D01*
X152426015Y-92958481D01*
X152307481Y-93077015D01*
X152168100Y-93170147D01*
X152013228Y-93234297D01*
X151848816Y-93267000D01*
X151681184Y-93267000D01*
X151516772Y-93234297D01*
X151361900Y-93170147D01*
X151222519Y-93077015D01*
X151103985Y-92958481D01*
X151010853Y-92819100D01*
X150946703Y-92664228D01*
X150914000Y-92499816D01*
X150914000Y-92332184D01*
X150946703Y-92167772D01*
X151010853Y-92012900D01*
X151103985Y-91873519D01*
X151222519Y-91754985D01*
X151361900Y-91661853D01*
X151516772Y-91597703D01*
X151681184Y-91565000D01*
X151848816Y-91565000D01*
X152013228Y-91597703D01*
G37*
G36*
X174619228Y-90407703D02*
G01*
X174774100Y-90471853D01*
X174913481Y-90564985D01*
X175032015Y-90683519D01*
X175125147Y-90822900D01*
X175189297Y-90977772D01*
X175222000Y-91142184D01*
X175222000Y-91309816D01*
X175189297Y-91474228D01*
X175125147Y-91629100D01*
X175032015Y-91768481D01*
X174913481Y-91887015D01*
X174774100Y-91980147D01*
X174619228Y-92044297D01*
X174454816Y-92077000D01*
X174287184Y-92077000D01*
X174122772Y-92044297D01*
X173967900Y-91980147D01*
X173828519Y-91887015D01*
X173709985Y-91768481D01*
X173616853Y-91629100D01*
X173552703Y-91474228D01*
X173520000Y-91309816D01*
X173520000Y-91142184D01*
X173552703Y-90977772D01*
X173616853Y-90822900D01*
X173709985Y-90683519D01*
X173828519Y-90564985D01*
X173967900Y-90471853D01*
X174122772Y-90407703D01*
X174287184Y-90375000D01*
X174454816Y-90375000D01*
X174619228Y-90407703D01*
G37*
G36*
X146298228Y-90113703D02*
G01*
X146453100Y-90177853D01*
X146592481Y-90270985D01*
X146711015Y-90389519D01*
X146804147Y-90528900D01*
X146868297Y-90683772D01*
X146901000Y-90848184D01*
X146901000Y-91015816D01*
X146868297Y-91180228D01*
X146804147Y-91335100D01*
X146711015Y-91474481D01*
X146592481Y-91593015D01*
X146453100Y-91686147D01*
X146298228Y-91750297D01*
X146133816Y-91783000D01*
X145966184Y-91783000D01*
X145801772Y-91750297D01*
X145646900Y-91686147D01*
X145507519Y-91593015D01*
X145388985Y-91474481D01*
X145295853Y-91335100D01*
X145231703Y-91180228D01*
X145199000Y-91015816D01*
X145199000Y-90848184D01*
X145231703Y-90683772D01*
X145295853Y-90528900D01*
X145388985Y-90389519D01*
X145507519Y-90270985D01*
X145646900Y-90177853D01*
X145801772Y-90113703D01*
X145966184Y-90081000D01*
X146133816Y-90081000D01*
X146298228Y-90113703D01*
G37*
G36*
X163951228Y-89097703D02*
G01*
X164106100Y-89161853D01*
X164245481Y-89254985D01*
X164364015Y-89373519D01*
X164457147Y-89512900D01*
X164521297Y-89667772D01*
X164554000Y-89832184D01*
X164554000Y-89999816D01*
X164521297Y-90164228D01*
X164457147Y-90319100D01*
X164364015Y-90458481D01*
X164245481Y-90577015D01*
X164106100Y-90670147D01*
X163951228Y-90734297D01*
X163786816Y-90767000D01*
X163619184Y-90767000D01*
X163454772Y-90734297D01*
X163299900Y-90670147D01*
X163160519Y-90577015D01*
X163041985Y-90458481D01*
X162948853Y-90319100D01*
X162884703Y-90164228D01*
X162852000Y-89999816D01*
X162852000Y-89832184D01*
X162884703Y-89667772D01*
X162948853Y-89512900D01*
X163041985Y-89373519D01*
X163160519Y-89254985D01*
X163299900Y-89161853D01*
X163454772Y-89097703D01*
X163619184Y-89065000D01*
X163786816Y-89065000D01*
X163951228Y-89097703D01*
G37*
G36*
X158871228Y-89097703D02*
G01*
X159026100Y-89161853D01*
X159165481Y-89254985D01*
X159284015Y-89373519D01*
X159377147Y-89512900D01*
X159441297Y-89667772D01*
X159474000Y-89832184D01*
X159474000Y-89999816D01*
X159441297Y-90164228D01*
X159377147Y-90319100D01*
X159284015Y-90458481D01*
X159165481Y-90577015D01*
X159026100Y-90670147D01*
X158871228Y-90734297D01*
X158706816Y-90767000D01*
X158539184Y-90767000D01*
X158374772Y-90734297D01*
X158219900Y-90670147D01*
X158080519Y-90577015D01*
X157961985Y-90458481D01*
X157868853Y-90319100D01*
X157804703Y-90164228D01*
X157772000Y-89999816D01*
X157772000Y-89832184D01*
X157804703Y-89667772D01*
X157868853Y-89512900D01*
X157961985Y-89373519D01*
X158080519Y-89254985D01*
X158219900Y-89161853D01*
X158374772Y-89097703D01*
X158539184Y-89065000D01*
X158706816Y-89065000D01*
X158871228Y-89097703D01*
G37*
G36*
X156331228Y-89097703D02*
G01*
X156486100Y-89161853D01*
X156625481Y-89254985D01*
X156744015Y-89373519D01*
X156837147Y-89512900D01*
X156901297Y-89667772D01*
X156934000Y-89832184D01*
X156934000Y-89999816D01*
X156901297Y-90164228D01*
X156837147Y-90319100D01*
X156744015Y-90458481D01*
X156625481Y-90577015D01*
X156486100Y-90670147D01*
X156331228Y-90734297D01*
X156166816Y-90767000D01*
X155999184Y-90767000D01*
X155834772Y-90734297D01*
X155679900Y-90670147D01*
X155540519Y-90577015D01*
X155421985Y-90458481D01*
X155328853Y-90319100D01*
X155264703Y-90164228D01*
X155232000Y-89999816D01*
X155232000Y-89832184D01*
X155264703Y-89667772D01*
X155328853Y-89512900D01*
X155421985Y-89373519D01*
X155540519Y-89254985D01*
X155679900Y-89161853D01*
X155834772Y-89097703D01*
X155999184Y-89065000D01*
X156166816Y-89065000D01*
X156331228Y-89097703D01*
G37*
G36*
X152013228Y-89097703D02*
G01*
X152168100Y-89161853D01*
X152307481Y-89254985D01*
X152426015Y-89373519D01*
X152519147Y-89512900D01*
X152583297Y-89667772D01*
X152616000Y-89832184D01*
X152616000Y-89999816D01*
X152583297Y-90164228D01*
X152519147Y-90319100D01*
X152426015Y-90458481D01*
X152307481Y-90577015D01*
X152168100Y-90670147D01*
X152013228Y-90734297D01*
X151848816Y-90767000D01*
X151681184Y-90767000D01*
X151516772Y-90734297D01*
X151361900Y-90670147D01*
X151222519Y-90577015D01*
X151103985Y-90458481D01*
X151010853Y-90319100D01*
X150946703Y-90164228D01*
X150914000Y-89999816D01*
X150914000Y-89832184D01*
X150946703Y-89667772D01*
X151010853Y-89512900D01*
X151103985Y-89373519D01*
X151222519Y-89254985D01*
X151361900Y-89161853D01*
X151516772Y-89097703D01*
X151681184Y-89065000D01*
X151848816Y-89065000D01*
X152013228Y-89097703D01*
G37*
G36*
X161411228Y-89097703D02*
G01*
X161566100Y-89161853D01*
X161705481Y-89254985D01*
X161824015Y-89373519D01*
X161917147Y-89512900D01*
X161981297Y-89667772D01*
X162014000Y-89832184D01*
X162014000Y-89999816D01*
X161981297Y-90164228D01*
X161917147Y-90319100D01*
X161824015Y-90458481D01*
X161705481Y-90577015D01*
X161566100Y-90670147D01*
X161411228Y-90734297D01*
X161246816Y-90767000D01*
X161079184Y-90767000D01*
X160914772Y-90734297D01*
X160759900Y-90670147D01*
X160620519Y-90577015D01*
X160501985Y-90458481D01*
X160408853Y-90319100D01*
X160344703Y-90164228D01*
X160312000Y-89999816D01*
X160312000Y-89832184D01*
X160344703Y-89667772D01*
X160408853Y-89512900D01*
X160501985Y-89373519D01*
X160620519Y-89254985D01*
X160759900Y-89161853D01*
X160914772Y-89097703D01*
X161079184Y-89065000D01*
X161246816Y-89065000D01*
X161411228Y-89097703D01*
G37*
G36*
X117654564Y-88143389D02*
G01*
X117845833Y-88222615D01*
X117845835Y-88222616D01*
X118017973Y-88337635D01*
X118164365Y-88484027D01*
X118267345Y-88638147D01*
X118279385Y-88656167D01*
X118358611Y-88847436D01*
X118399000Y-89050484D01*
X118399000Y-89257516D01*
X118358611Y-89460564D01*
X118279385Y-89651833D01*
X118279384Y-89651835D01*
X118164365Y-89823973D01*
X118017973Y-89970365D01*
X117845835Y-90085384D01*
X117845834Y-90085385D01*
X117845833Y-90085385D01*
X117654564Y-90164611D01*
X117451516Y-90205000D01*
X117244484Y-90205000D01*
X117041436Y-90164611D01*
X116850167Y-90085385D01*
X116850166Y-90085385D01*
X116850165Y-90085384D01*
X116678027Y-89970365D01*
X116531635Y-89823973D01*
X116416616Y-89651835D01*
X116416615Y-89651833D01*
X116337389Y-89460564D01*
X116297000Y-89257516D01*
X116297000Y-89050484D01*
X116337389Y-88847436D01*
X116416615Y-88656167D01*
X116428656Y-88638147D01*
X116531635Y-88484027D01*
X116678027Y-88337635D01*
X116850165Y-88222616D01*
X116850167Y-88222615D01*
X117041436Y-88143389D01*
X117244484Y-88103000D01*
X117451516Y-88103000D01*
X117654564Y-88143389D01*
G37*
G36*
X85142564Y-88143389D02*
G01*
X85333833Y-88222615D01*
X85333835Y-88222616D01*
X85505973Y-88337635D01*
X85652365Y-88484027D01*
X85755345Y-88638147D01*
X85767385Y-88656167D01*
X85846611Y-88847436D01*
X85887000Y-89050484D01*
X85887000Y-89257516D01*
X85846611Y-89460564D01*
X85767385Y-89651833D01*
X85767384Y-89651835D01*
X85652365Y-89823973D01*
X85505973Y-89970365D01*
X85333835Y-90085384D01*
X85333834Y-90085385D01*
X85333833Y-90085385D01*
X85142564Y-90164611D01*
X84939516Y-90205000D01*
X84732484Y-90205000D01*
X84529436Y-90164611D01*
X84338167Y-90085385D01*
X84338166Y-90085385D01*
X84338165Y-90085384D01*
X84166027Y-89970365D01*
X84019635Y-89823973D01*
X83904616Y-89651835D01*
X83904615Y-89651833D01*
X83825389Y-89460564D01*
X83785000Y-89257516D01*
X83785000Y-89050484D01*
X83825389Y-88847436D01*
X83904615Y-88656167D01*
X83916656Y-88638147D01*
X84019635Y-88484027D01*
X84166027Y-88337635D01*
X84338165Y-88222616D01*
X84338167Y-88222615D01*
X84529436Y-88143389D01*
X84732484Y-88103000D01*
X84939516Y-88103000D01*
X85142564Y-88143389D01*
G37*
G36*
X101398564Y-88143389D02*
G01*
X101589833Y-88222615D01*
X101589835Y-88222616D01*
X101761973Y-88337635D01*
X101908365Y-88484027D01*
X102011345Y-88638147D01*
X102023385Y-88656167D01*
X102102611Y-88847436D01*
X102143000Y-89050484D01*
X102143000Y-89257516D01*
X102102611Y-89460564D01*
X102023385Y-89651833D01*
X102023384Y-89651835D01*
X101908365Y-89823973D01*
X101761973Y-89970365D01*
X101589835Y-90085384D01*
X101589834Y-90085385D01*
X101589833Y-90085385D01*
X101398564Y-90164611D01*
X101195516Y-90205000D01*
X100988484Y-90205000D01*
X100785436Y-90164611D01*
X100594167Y-90085385D01*
X100594166Y-90085385D01*
X100594165Y-90085384D01*
X100422027Y-89970365D01*
X100275635Y-89823973D01*
X100160616Y-89651835D01*
X100160615Y-89651833D01*
X100081389Y-89460564D01*
X100041000Y-89257516D01*
X100041000Y-89050484D01*
X100081389Y-88847436D01*
X100160615Y-88656167D01*
X100172656Y-88638147D01*
X100275635Y-88484027D01*
X100422027Y-88337635D01*
X100594165Y-88222616D01*
X100594167Y-88222615D01*
X100785436Y-88143389D01*
X100988484Y-88103000D01*
X101195516Y-88103000D01*
X101398564Y-88143389D01*
G37*
G36*
X168904228Y-87700703D02*
G01*
X169059100Y-87764853D01*
X169198481Y-87857985D01*
X169317015Y-87976519D01*
X169410147Y-88115900D01*
X169474297Y-88270772D01*
X169507000Y-88435184D01*
X169507000Y-88602816D01*
X169474297Y-88767228D01*
X169410147Y-88922100D01*
X169317015Y-89061481D01*
X169198481Y-89180015D01*
X169059100Y-89273147D01*
X168904228Y-89337297D01*
X168739816Y-89370000D01*
X168572184Y-89370000D01*
X168407772Y-89337297D01*
X168252900Y-89273147D01*
X168113519Y-89180015D01*
X167994985Y-89061481D01*
X167901853Y-88922100D01*
X167837703Y-88767228D01*
X167805000Y-88602816D01*
X167805000Y-88435184D01*
X167837703Y-88270772D01*
X167901853Y-88115900D01*
X167994985Y-87976519D01*
X168113519Y-87857985D01*
X168252900Y-87764853D01*
X168407772Y-87700703D01*
X168572184Y-87668000D01*
X168739816Y-87668000D01*
X168904228Y-87700703D01*
G37*
G36*
X137662228Y-87493703D02*
G01*
X137817100Y-87557853D01*
X137956481Y-87650985D01*
X138075015Y-87769519D01*
X138168147Y-87908900D01*
X138232297Y-88063772D01*
X138265000Y-88228184D01*
X138265000Y-88395816D01*
X138232297Y-88560228D01*
X138168147Y-88715100D01*
X138075015Y-88854481D01*
X137956481Y-88973015D01*
X137817100Y-89066147D01*
X137662228Y-89130297D01*
X137497816Y-89163000D01*
X137330184Y-89163000D01*
X137165772Y-89130297D01*
X137010900Y-89066147D01*
X136871519Y-88973015D01*
X136752985Y-88854481D01*
X136659853Y-88715100D01*
X136595703Y-88560228D01*
X136563000Y-88395816D01*
X136563000Y-88228184D01*
X136595703Y-88063772D01*
X136659853Y-87908900D01*
X136752985Y-87769519D01*
X136871519Y-87650985D01*
X137010900Y-87557853D01*
X137165772Y-87493703D01*
X137330184Y-87461000D01*
X137497816Y-87461000D01*
X137662228Y-87493703D01*
G37*
G36*
X111976228Y-87065703D02*
G01*
X112131100Y-87129853D01*
X112270481Y-87222985D01*
X112389015Y-87341519D01*
X112482147Y-87480900D01*
X112546297Y-87635772D01*
X112579000Y-87800184D01*
X112579000Y-87967816D01*
X112546297Y-88132228D01*
X112482147Y-88287100D01*
X112389015Y-88426481D01*
X112270481Y-88545015D01*
X112131100Y-88638147D01*
X111976228Y-88702297D01*
X111811816Y-88735000D01*
X111644184Y-88735000D01*
X111479772Y-88702297D01*
X111324900Y-88638147D01*
X111185519Y-88545015D01*
X111066985Y-88426481D01*
X110973853Y-88287100D01*
X110909703Y-88132228D01*
X110877000Y-87967816D01*
X110877000Y-87800184D01*
X110909703Y-87635772D01*
X110973853Y-87480900D01*
X111066985Y-87341519D01*
X111185519Y-87222985D01*
X111324900Y-87129853D01*
X111479772Y-87065703D01*
X111644184Y-87033000D01*
X111811816Y-87033000D01*
X111976228Y-87065703D01*
G37*
G36*
X128232228Y-87065703D02*
G01*
X128387100Y-87129853D01*
X128526481Y-87222985D01*
X128645015Y-87341519D01*
X128738147Y-87480900D01*
X128802297Y-87635772D01*
X128835000Y-87800184D01*
X128835000Y-87967816D01*
X128802297Y-88132228D01*
X128738147Y-88287100D01*
X128645015Y-88426481D01*
X128526481Y-88545015D01*
X128387100Y-88638147D01*
X128232228Y-88702297D01*
X128067816Y-88735000D01*
X127900184Y-88735000D01*
X127735772Y-88702297D01*
X127580900Y-88638147D01*
X127441519Y-88545015D01*
X127322985Y-88426481D01*
X127229853Y-88287100D01*
X127165703Y-88132228D01*
X127133000Y-87967816D01*
X127133000Y-87800184D01*
X127165703Y-87635772D01*
X127229853Y-87480900D01*
X127322985Y-87341519D01*
X127441519Y-87222985D01*
X127580900Y-87129853D01*
X127735772Y-87065703D01*
X127900184Y-87033000D01*
X128067816Y-87033000D01*
X128232228Y-87065703D01*
G37*
G36*
X94323000Y-88735000D02*
G01*
X92621000Y-88735000D01*
X92621000Y-87033000D01*
X94323000Y-87033000D01*
X94323000Y-88735000D01*
G37*
G36*
X95720228Y-87065703D02*
G01*
X95875100Y-87129853D01*
X96014481Y-87222985D01*
X96133015Y-87341519D01*
X96226147Y-87480900D01*
X96290297Y-87635772D01*
X96323000Y-87800184D01*
X96323000Y-87967816D01*
X96290297Y-88132228D01*
X96226147Y-88287100D01*
X96133015Y-88426481D01*
X96014481Y-88545015D01*
X95875100Y-88638147D01*
X95720228Y-88702297D01*
X95555816Y-88735000D01*
X95388184Y-88735000D01*
X95223772Y-88702297D01*
X95068900Y-88638147D01*
X94929519Y-88545015D01*
X94810985Y-88426481D01*
X94717853Y-88287100D01*
X94653703Y-88132228D01*
X94621000Y-87967816D01*
X94621000Y-87800184D01*
X94653703Y-87635772D01*
X94717853Y-87480900D01*
X94810985Y-87341519D01*
X94929519Y-87222985D01*
X95068900Y-87129853D01*
X95223772Y-87065703D01*
X95388184Y-87033000D01*
X95555816Y-87033000D01*
X95720228Y-87065703D01*
G37*
G36*
X126835000Y-88735000D02*
G01*
X125133000Y-88735000D01*
X125133000Y-87033000D01*
X126835000Y-87033000D01*
X126835000Y-88735000D01*
G37*
G36*
X110579000Y-88735000D02*
G01*
X108877000Y-88735000D01*
X108877000Y-87033000D01*
X110579000Y-87033000D01*
X110579000Y-88735000D01*
G37*
G36*
X85142564Y-83063389D02*
G01*
X85333833Y-83142615D01*
X85333835Y-83142616D01*
X85505973Y-83257635D01*
X85652365Y-83404027D01*
X85717259Y-83501147D01*
X85767385Y-83576167D01*
X85846611Y-83767436D01*
X85887000Y-83970484D01*
X85887000Y-84177516D01*
X85846611Y-84380564D01*
X85767385Y-84571833D01*
X85767384Y-84571835D01*
X85652365Y-84743973D01*
X85505973Y-84890365D01*
X85333835Y-85005384D01*
X85333834Y-85005385D01*
X85333833Y-85005385D01*
X85142564Y-85084611D01*
X84939516Y-85125000D01*
X84732484Y-85125000D01*
X84529436Y-85084611D01*
X84338167Y-85005385D01*
X84338166Y-85005385D01*
X84338165Y-85005384D01*
X84166027Y-84890365D01*
X84019635Y-84743973D01*
X83904616Y-84571835D01*
X83904615Y-84571833D01*
X83825389Y-84380564D01*
X83785000Y-84177516D01*
X83785000Y-83970484D01*
X83825389Y-83767436D01*
X83904615Y-83576167D01*
X83954742Y-83501147D01*
X84019635Y-83404027D01*
X84166027Y-83257635D01*
X84338165Y-83142616D01*
X84338167Y-83142615D01*
X84529436Y-83063389D01*
X84732484Y-83023000D01*
X84939516Y-83023000D01*
X85142564Y-83063389D01*
G37*
G36*
X117654564Y-83063389D02*
G01*
X117845833Y-83142615D01*
X117845835Y-83142616D01*
X118017973Y-83257635D01*
X118164365Y-83404027D01*
X118229259Y-83501147D01*
X118279385Y-83576167D01*
X118358611Y-83767436D01*
X118399000Y-83970484D01*
X118399000Y-84177516D01*
X118358611Y-84380564D01*
X118279385Y-84571833D01*
X118279384Y-84571835D01*
X118164365Y-84743973D01*
X118017973Y-84890365D01*
X117845835Y-85005384D01*
X117845834Y-85005385D01*
X117845833Y-85005385D01*
X117654564Y-85084611D01*
X117451516Y-85125000D01*
X117244484Y-85125000D01*
X117041436Y-85084611D01*
X116850167Y-85005385D01*
X116850166Y-85005385D01*
X116850165Y-85005384D01*
X116678027Y-84890365D01*
X116531635Y-84743973D01*
X116416616Y-84571835D01*
X116416615Y-84571833D01*
X116337389Y-84380564D01*
X116297000Y-84177516D01*
X116297000Y-83970484D01*
X116337389Y-83767436D01*
X116416615Y-83576167D01*
X116466742Y-83501147D01*
X116531635Y-83404027D01*
X116678027Y-83257635D01*
X116850165Y-83142616D01*
X116850167Y-83142615D01*
X117041436Y-83063389D01*
X117244484Y-83023000D01*
X117451516Y-83023000D01*
X117654564Y-83063389D01*
G37*
G36*
X101398564Y-83063389D02*
G01*
X101589833Y-83142615D01*
X101589835Y-83142616D01*
X101761973Y-83257635D01*
X101908365Y-83404027D01*
X101973259Y-83501147D01*
X102023385Y-83576167D01*
X102102611Y-83767436D01*
X102143000Y-83970484D01*
X102143000Y-84177516D01*
X102102611Y-84380564D01*
X102023385Y-84571833D01*
X102023384Y-84571835D01*
X101908365Y-84743973D01*
X101761973Y-84890365D01*
X101589835Y-85005384D01*
X101589834Y-85005385D01*
X101589833Y-85005385D01*
X101398564Y-85084611D01*
X101195516Y-85125000D01*
X100988484Y-85125000D01*
X100785436Y-85084611D01*
X100594167Y-85005385D01*
X100594166Y-85005385D01*
X100594165Y-85005384D01*
X100422027Y-84890365D01*
X100275635Y-84743973D01*
X100160616Y-84571835D01*
X100160615Y-84571833D01*
X100081389Y-84380564D01*
X100041000Y-84177516D01*
X100041000Y-83970484D01*
X100081389Y-83767436D01*
X100160615Y-83576167D01*
X100210742Y-83501147D01*
X100275635Y-83404027D01*
X100422027Y-83257635D01*
X100594165Y-83142616D01*
X100594167Y-83142615D01*
X100785436Y-83063389D01*
X100988484Y-83023000D01*
X101195516Y-83023000D01*
X101398564Y-83063389D01*
G37*
G36*
X163812590Y-83304147D02*
G01*
X163965812Y-83334624D01*
X164129784Y-83402544D01*
X164277354Y-83501147D01*
X164402853Y-83626646D01*
X164501456Y-83774216D01*
X164569376Y-83938188D01*
X164604000Y-84112259D01*
X164604000Y-84289741D01*
X164569376Y-84463812D01*
X164501456Y-84627784D01*
X164402853Y-84775354D01*
X164277354Y-84900853D01*
X164129784Y-84999456D01*
X163965812Y-85067376D01*
X163816512Y-85097073D01*
X163791742Y-85102000D01*
X163614258Y-85102000D01*
X163589488Y-85097073D01*
X163440188Y-85067376D01*
X163276216Y-84999456D01*
X163128646Y-84900853D01*
X163003147Y-84775354D01*
X162904544Y-84627784D01*
X162836624Y-84463812D01*
X162802000Y-84289741D01*
X162802000Y-84112259D01*
X162836624Y-83938188D01*
X162904544Y-83774216D01*
X163003147Y-83626646D01*
X163128646Y-83501147D01*
X163276216Y-83402544D01*
X163440188Y-83334624D01*
X163593410Y-83304147D01*
X163614258Y-83300000D01*
X163791742Y-83300000D01*
X163812590Y-83304147D01*
G37*
G36*
X161272590Y-83304147D02*
G01*
X161425812Y-83334624D01*
X161589784Y-83402544D01*
X161737354Y-83501147D01*
X161862853Y-83626646D01*
X161961456Y-83774216D01*
X162029376Y-83938188D01*
X162064000Y-84112259D01*
X162064000Y-84289741D01*
X162029376Y-84463812D01*
X161961456Y-84627784D01*
X161862853Y-84775354D01*
X161737354Y-84900853D01*
X161589784Y-84999456D01*
X161425812Y-85067376D01*
X161276512Y-85097073D01*
X161251742Y-85102000D01*
X161074258Y-85102000D01*
X161049488Y-85097073D01*
X160900188Y-85067376D01*
X160736216Y-84999456D01*
X160588646Y-84900853D01*
X160463147Y-84775354D01*
X160364544Y-84627784D01*
X160296624Y-84463812D01*
X160262000Y-84289741D01*
X160262000Y-84112259D01*
X160296624Y-83938188D01*
X160364544Y-83774216D01*
X160463147Y-83626646D01*
X160588646Y-83501147D01*
X160736216Y-83402544D01*
X160900188Y-83334624D01*
X161053410Y-83304147D01*
X161074258Y-83300000D01*
X161251742Y-83300000D01*
X161272590Y-83304147D01*
G37*
G36*
X159524000Y-85102000D02*
G01*
X157722000Y-85102000D01*
X157722000Y-83300000D01*
X159524000Y-83300000D01*
X159524000Y-85102000D01*
G37*
G36*
X137662228Y-82493703D02*
G01*
X137817100Y-82557853D01*
X137956481Y-82650985D01*
X138075015Y-82769519D01*
X138168147Y-82908900D01*
X138232297Y-83063772D01*
X138265000Y-83228184D01*
X138265000Y-83395816D01*
X138232297Y-83560228D01*
X138168147Y-83715100D01*
X138075015Y-83854481D01*
X137956481Y-83973015D01*
X137817100Y-84066147D01*
X137662228Y-84130297D01*
X137497816Y-84163000D01*
X137330184Y-84163000D01*
X137165772Y-84130297D01*
X137010900Y-84066147D01*
X136871519Y-83973015D01*
X136752985Y-83854481D01*
X136659853Y-83715100D01*
X136595703Y-83560228D01*
X136563000Y-83395816D01*
X136563000Y-83228184D01*
X136595703Y-83063772D01*
X136659853Y-82908900D01*
X136752985Y-82769519D01*
X136871519Y-82650985D01*
X137010900Y-82557853D01*
X137165772Y-82493703D01*
X137330184Y-82461000D01*
X137497816Y-82461000D01*
X137662228Y-82493703D01*
G37*
G36*
X124962228Y-81731703D02*
G01*
X125117100Y-81795853D01*
X125256481Y-81888985D01*
X125375015Y-82007519D01*
X125468147Y-82146900D01*
X125532297Y-82301772D01*
X125565000Y-82466184D01*
X125565000Y-82633816D01*
X125532297Y-82798228D01*
X125468147Y-82953100D01*
X125375015Y-83092481D01*
X125256481Y-83211015D01*
X125117100Y-83304147D01*
X124962228Y-83368297D01*
X124797816Y-83401000D01*
X124630184Y-83401000D01*
X124465772Y-83368297D01*
X124310900Y-83304147D01*
X124171519Y-83211015D01*
X124052985Y-83092481D01*
X123959853Y-82953100D01*
X123895703Y-82798228D01*
X123863000Y-82633816D01*
X123863000Y-82466184D01*
X123895703Y-82301772D01*
X123959853Y-82146900D01*
X124052985Y-82007519D01*
X124171519Y-81888985D01*
X124310900Y-81795853D01*
X124465772Y-81731703D01*
X124630184Y-81699000D01*
X124797816Y-81699000D01*
X124962228Y-81731703D01*
G37*
G36*
X113278228Y-81731703D02*
G01*
X113433100Y-81795853D01*
X113572481Y-81888985D01*
X113691015Y-82007519D01*
X113784147Y-82146900D01*
X113848297Y-82301772D01*
X113881000Y-82466184D01*
X113881000Y-82633816D01*
X113848297Y-82798228D01*
X113784147Y-82953100D01*
X113691015Y-83092481D01*
X113572481Y-83211015D01*
X113433100Y-83304147D01*
X113278228Y-83368297D01*
X113113816Y-83401000D01*
X112946184Y-83401000D01*
X112781772Y-83368297D01*
X112626900Y-83304147D01*
X112487519Y-83211015D01*
X112368985Y-83092481D01*
X112275853Y-82953100D01*
X112211703Y-82798228D01*
X112179000Y-82633816D01*
X112179000Y-82466184D01*
X112211703Y-82301772D01*
X112275853Y-82146900D01*
X112368985Y-82007519D01*
X112487519Y-81888985D01*
X112626900Y-81795853D01*
X112781772Y-81731703D01*
X112946184Y-81699000D01*
X113113816Y-81699000D01*
X113278228Y-81731703D01*
G37*
G36*
X108706228Y-81731703D02*
G01*
X108861100Y-81795853D01*
X109000481Y-81888985D01*
X109119015Y-82007519D01*
X109212147Y-82146900D01*
X109276297Y-82301772D01*
X109309000Y-82466184D01*
X109309000Y-82633816D01*
X109276297Y-82798228D01*
X109212147Y-82953100D01*
X109119015Y-83092481D01*
X109000481Y-83211015D01*
X108861100Y-83304147D01*
X108706228Y-83368297D01*
X108541816Y-83401000D01*
X108374184Y-83401000D01*
X108209772Y-83368297D01*
X108054900Y-83304147D01*
X107915519Y-83211015D01*
X107796985Y-83092481D01*
X107703853Y-82953100D01*
X107639703Y-82798228D01*
X107607000Y-82633816D01*
X107607000Y-82466184D01*
X107639703Y-82301772D01*
X107703853Y-82146900D01*
X107796985Y-82007519D01*
X107915519Y-81888985D01*
X108054900Y-81795853D01*
X108209772Y-81731703D01*
X108374184Y-81699000D01*
X108541816Y-81699000D01*
X108706228Y-81731703D01*
G37*
G36*
X97022228Y-81731703D02*
G01*
X97177100Y-81795853D01*
X97316481Y-81888985D01*
X97435015Y-82007519D01*
X97528147Y-82146900D01*
X97592297Y-82301772D01*
X97625000Y-82466184D01*
X97625000Y-82633816D01*
X97592297Y-82798228D01*
X97528147Y-82953100D01*
X97435015Y-83092481D01*
X97316481Y-83211015D01*
X97177100Y-83304147D01*
X97022228Y-83368297D01*
X96857816Y-83401000D01*
X96690184Y-83401000D01*
X96525772Y-83368297D01*
X96370900Y-83304147D01*
X96231519Y-83211015D01*
X96112985Y-83092481D01*
X96019853Y-82953100D01*
X95955703Y-82798228D01*
X95923000Y-82633816D01*
X95923000Y-82466184D01*
X95955703Y-82301772D01*
X96019853Y-82146900D01*
X96112985Y-82007519D01*
X96231519Y-81888985D01*
X96370900Y-81795853D01*
X96525772Y-81731703D01*
X96690184Y-81699000D01*
X96857816Y-81699000D01*
X97022228Y-81731703D01*
G37*
G36*
X92450228Y-81731703D02*
G01*
X92605100Y-81795853D01*
X92744481Y-81888985D01*
X92863015Y-82007519D01*
X92956147Y-82146900D01*
X93020297Y-82301772D01*
X93053000Y-82466184D01*
X93053000Y-82633816D01*
X93020297Y-82798228D01*
X92956147Y-82953100D01*
X92863015Y-83092481D01*
X92744481Y-83211015D01*
X92605100Y-83304147D01*
X92450228Y-83368297D01*
X92285816Y-83401000D01*
X92118184Y-83401000D01*
X91953772Y-83368297D01*
X91798900Y-83304147D01*
X91659519Y-83211015D01*
X91540985Y-83092481D01*
X91447853Y-82953100D01*
X91383703Y-82798228D01*
X91351000Y-82633816D01*
X91351000Y-82466184D01*
X91383703Y-82301772D01*
X91447853Y-82146900D01*
X91540985Y-82007519D01*
X91659519Y-81888985D01*
X91798900Y-81795853D01*
X91953772Y-81731703D01*
X92118184Y-81699000D01*
X92285816Y-81699000D01*
X92450228Y-81731703D01*
G37*
G36*
X101398564Y-77983389D02*
G01*
X101589833Y-78062615D01*
X101589835Y-78062616D01*
X101710138Y-78143000D01*
X101761973Y-78177635D01*
X101908365Y-78324027D01*
X102023385Y-78496167D01*
X102102611Y-78687436D01*
X102143000Y-78890484D01*
X102143000Y-79097516D01*
X102102611Y-79300564D01*
X102056681Y-79411449D01*
X102023384Y-79491835D01*
X101908365Y-79663973D01*
X101761973Y-79810365D01*
X101589835Y-79925384D01*
X101589834Y-79925385D01*
X101589833Y-79925385D01*
X101398564Y-80004611D01*
X101195516Y-80045000D01*
X100988484Y-80045000D01*
X100785436Y-80004611D01*
X100594167Y-79925385D01*
X100594166Y-79925385D01*
X100594165Y-79925384D01*
X100422027Y-79810365D01*
X100275635Y-79663973D01*
X100160616Y-79491835D01*
X100127319Y-79411449D01*
X100081389Y-79300564D01*
X100041000Y-79097516D01*
X100041000Y-78890484D01*
X100081389Y-78687436D01*
X100160615Y-78496167D01*
X100275635Y-78324027D01*
X100422027Y-78177635D01*
X100473862Y-78143000D01*
X100594165Y-78062616D01*
X100594167Y-78062615D01*
X100785436Y-77983389D01*
X100988484Y-77943000D01*
X101195516Y-77943000D01*
X101398564Y-77983389D01*
G37*
G36*
X117654564Y-77983389D02*
G01*
X117845833Y-78062615D01*
X117845835Y-78062616D01*
X117966138Y-78143000D01*
X118017973Y-78177635D01*
X118164365Y-78324027D01*
X118279385Y-78496167D01*
X118358611Y-78687436D01*
X118399000Y-78890484D01*
X118399000Y-79097516D01*
X118358611Y-79300564D01*
X118312681Y-79411449D01*
X118279384Y-79491835D01*
X118164365Y-79663973D01*
X118017973Y-79810365D01*
X117845835Y-79925384D01*
X117845834Y-79925385D01*
X117845833Y-79925385D01*
X117654564Y-80004611D01*
X117451516Y-80045000D01*
X117244484Y-80045000D01*
X117041436Y-80004611D01*
X116850167Y-79925385D01*
X116850166Y-79925385D01*
X116850165Y-79925384D01*
X116678027Y-79810365D01*
X116531635Y-79663973D01*
X116416616Y-79491835D01*
X116383319Y-79411449D01*
X116337389Y-79300564D01*
X116297000Y-79097516D01*
X116297000Y-78890484D01*
X116337389Y-78687436D01*
X116416615Y-78496167D01*
X116531635Y-78324027D01*
X116678027Y-78177635D01*
X116729862Y-78143000D01*
X116850165Y-78062616D01*
X116850167Y-78062615D01*
X117041436Y-77983389D01*
X117244484Y-77943000D01*
X117451516Y-77943000D01*
X117654564Y-77983389D01*
G37*
G36*
X85142564Y-77983389D02*
G01*
X85333833Y-78062615D01*
X85333835Y-78062616D01*
X85454138Y-78143000D01*
X85505973Y-78177635D01*
X85652365Y-78324027D01*
X85767385Y-78496167D01*
X85846611Y-78687436D01*
X85887000Y-78890484D01*
X85887000Y-79097516D01*
X85846611Y-79300564D01*
X85800681Y-79411449D01*
X85767384Y-79491835D01*
X85652365Y-79663973D01*
X85505973Y-79810365D01*
X85333835Y-79925384D01*
X85333834Y-79925385D01*
X85333833Y-79925385D01*
X85142564Y-80004611D01*
X84939516Y-80045000D01*
X84732484Y-80045000D01*
X84529436Y-80004611D01*
X84338167Y-79925385D01*
X84338166Y-79925385D01*
X84338165Y-79925384D01*
X84166027Y-79810365D01*
X84019635Y-79663973D01*
X83904616Y-79491835D01*
X83871319Y-79411449D01*
X83825389Y-79300564D01*
X83785000Y-79097516D01*
X83785000Y-78890484D01*
X83825389Y-78687436D01*
X83904615Y-78496167D01*
X84019635Y-78324027D01*
X84166027Y-78177635D01*
X84217862Y-78143000D01*
X84338165Y-78062616D01*
X84338167Y-78062615D01*
X84529436Y-77983389D01*
X84732484Y-77943000D01*
X84939516Y-77943000D01*
X85142564Y-77983389D01*
G37*
G36*
X176778256Y-76750298D02*
G01*
X176884579Y-76771447D01*
X177185042Y-76895903D01*
X177455451Y-77076585D01*
X177685415Y-77306549D01*
X177685416Y-77306551D01*
X177866098Y-77576960D01*
X177990553Y-77877422D01*
X178050270Y-78177635D01*
X178054000Y-78196391D01*
X178054000Y-78521609D01*
X177990553Y-78840579D01*
X177866097Y-79141042D01*
X177685415Y-79411451D01*
X177455451Y-79641415D01*
X177185042Y-79822097D01*
X176884579Y-79946553D01*
X176778256Y-79967702D01*
X176565611Y-80010000D01*
X176240389Y-80010000D01*
X176027744Y-79967702D01*
X175921421Y-79946553D01*
X175620958Y-79822097D01*
X175350549Y-79641415D01*
X175120585Y-79411451D01*
X174939903Y-79141042D01*
X174815447Y-78840579D01*
X174752000Y-78521609D01*
X174752000Y-78196391D01*
X174755731Y-78177635D01*
X174815447Y-77877422D01*
X174939902Y-77576960D01*
X175120584Y-77306551D01*
X175120585Y-77306549D01*
X175350549Y-77076585D01*
X175620958Y-76895903D01*
X175921421Y-76771447D01*
X176027744Y-76750298D01*
X176240389Y-76708000D01*
X176565611Y-76708000D01*
X176778256Y-76750298D01*
G37*
G36*
X168142228Y-78175703D02*
G01*
X168297100Y-78239853D01*
X168436481Y-78332985D01*
X168555015Y-78451519D01*
X168648147Y-78590900D01*
X168712297Y-78745772D01*
X168745000Y-78910184D01*
X168745000Y-79077816D01*
X168712297Y-79242228D01*
X168648147Y-79397100D01*
X168555015Y-79536481D01*
X168436481Y-79655015D01*
X168297100Y-79748147D01*
X168142228Y-79812297D01*
X167977816Y-79845000D01*
X167810184Y-79845000D01*
X167645772Y-79812297D01*
X167490900Y-79748147D01*
X167351519Y-79655015D01*
X167232985Y-79536481D01*
X167139853Y-79397100D01*
X167075703Y-79242228D01*
X167043000Y-79077816D01*
X167043000Y-78910184D01*
X167075703Y-78745772D01*
X167139853Y-78590900D01*
X167232985Y-78451519D01*
X167351519Y-78332985D01*
X167490900Y-78239853D01*
X167645772Y-78175703D01*
X167810184Y-78143000D01*
X167977816Y-78143000D01*
X168142228Y-78175703D01*
G37*
G36*
X170642228Y-78175703D02*
G01*
X170797100Y-78239853D01*
X170936481Y-78332985D01*
X171055015Y-78451519D01*
X171148147Y-78590900D01*
X171212297Y-78745772D01*
X171245000Y-78910184D01*
X171245000Y-79077816D01*
X171212297Y-79242228D01*
X171148147Y-79397100D01*
X171055015Y-79536481D01*
X170936481Y-79655015D01*
X170797100Y-79748147D01*
X170642228Y-79812297D01*
X170477816Y-79845000D01*
X170310184Y-79845000D01*
X170145772Y-79812297D01*
X169990900Y-79748147D01*
X169851519Y-79655015D01*
X169732985Y-79536481D01*
X169639853Y-79397100D01*
X169575703Y-79242228D01*
X169543000Y-79077816D01*
X169543000Y-78910184D01*
X169575703Y-78745772D01*
X169639853Y-78590900D01*
X169732985Y-78451519D01*
X169851519Y-78332985D01*
X169990900Y-78239853D01*
X170145772Y-78175703D01*
X170310184Y-78143000D01*
X170477816Y-78143000D01*
X170642228Y-78175703D01*
G37*
G36*
X163824228Y-78175703D02*
G01*
X163979100Y-78239853D01*
X164118481Y-78332985D01*
X164237015Y-78451519D01*
X164330147Y-78590900D01*
X164394297Y-78745772D01*
X164427000Y-78910184D01*
X164427000Y-79077816D01*
X164394297Y-79242228D01*
X164330147Y-79397100D01*
X164237015Y-79536481D01*
X164118481Y-79655015D01*
X163979100Y-79748147D01*
X163824228Y-79812297D01*
X163659816Y-79845000D01*
X163492184Y-79845000D01*
X163327772Y-79812297D01*
X163172900Y-79748147D01*
X163033519Y-79655015D01*
X162914985Y-79536481D01*
X162821853Y-79397100D01*
X162757703Y-79242228D01*
X162725000Y-79077816D01*
X162725000Y-78910184D01*
X162757703Y-78745772D01*
X162821853Y-78590900D01*
X162914985Y-78451519D01*
X163033519Y-78332985D01*
X163172900Y-78239853D01*
X163327772Y-78175703D01*
X163492184Y-78143000D01*
X163659816Y-78143000D01*
X163824228Y-78175703D01*
G37*
G36*
X120194564Y-74300389D02*
G01*
X120385833Y-74379615D01*
X120385835Y-74379616D01*
X120397664Y-74387520D01*
X120557973Y-74494635D01*
X120704365Y-74641027D01*
X120819385Y-74813167D01*
X120898611Y-75004436D01*
X120939000Y-75207484D01*
X120939000Y-75414516D01*
X120898611Y-75617564D01*
X120830914Y-75781000D01*
X120819384Y-75808835D01*
X120704365Y-75980973D01*
X120557973Y-76127365D01*
X120385835Y-76242384D01*
X120385834Y-76242385D01*
X120385833Y-76242385D01*
X120194564Y-76321611D01*
X119991516Y-76362000D01*
X119784484Y-76362000D01*
X119581436Y-76321611D01*
X119390167Y-76242385D01*
X119390166Y-76242385D01*
X119390165Y-76242384D01*
X119218027Y-76127365D01*
X119071635Y-75980973D01*
X118956616Y-75808835D01*
X118945086Y-75781000D01*
X118877389Y-75617564D01*
X118837000Y-75414516D01*
X118837000Y-75207484D01*
X118877389Y-75004436D01*
X118956615Y-74813167D01*
X119071635Y-74641027D01*
X119218027Y-74494635D01*
X119378336Y-74387520D01*
X119390165Y-74379616D01*
X119390167Y-74379615D01*
X119581436Y-74300389D01*
X119784484Y-74260000D01*
X119991516Y-74260000D01*
X120194564Y-74300389D01*
G37*
G36*
X103938564Y-74300389D02*
G01*
X104129833Y-74379615D01*
X104129835Y-74379616D01*
X104141664Y-74387520D01*
X104301973Y-74494635D01*
X104448365Y-74641027D01*
X104563385Y-74813167D01*
X104642611Y-75004436D01*
X104683000Y-75207484D01*
X104683000Y-75414516D01*
X104642611Y-75617564D01*
X104574914Y-75781000D01*
X104563384Y-75808835D01*
X104448365Y-75980973D01*
X104301973Y-76127365D01*
X104129835Y-76242384D01*
X104129834Y-76242385D01*
X104129833Y-76242385D01*
X103938564Y-76321611D01*
X103735516Y-76362000D01*
X103528484Y-76362000D01*
X103325436Y-76321611D01*
X103134167Y-76242385D01*
X103134166Y-76242385D01*
X103134165Y-76242384D01*
X102962027Y-76127365D01*
X102815635Y-75980973D01*
X102700616Y-75808835D01*
X102689086Y-75781000D01*
X102621389Y-75617564D01*
X102581000Y-75414516D01*
X102581000Y-75207484D01*
X102621389Y-75004436D01*
X102700615Y-74813167D01*
X102815635Y-74641027D01*
X102962027Y-74494635D01*
X103122336Y-74387520D01*
X103134165Y-74379616D01*
X103134167Y-74379615D01*
X103325436Y-74300389D01*
X103528484Y-74260000D01*
X103735516Y-74260000D01*
X103938564Y-74300389D01*
G37*
G36*
X87682564Y-74300389D02*
G01*
X87873833Y-74379615D01*
X87873835Y-74379616D01*
X87885664Y-74387520D01*
X88045973Y-74494635D01*
X88192365Y-74641027D01*
X88307385Y-74813167D01*
X88386611Y-75004436D01*
X88427000Y-75207484D01*
X88427000Y-75414516D01*
X88386611Y-75617564D01*
X88318914Y-75781000D01*
X88307384Y-75808835D01*
X88192365Y-75980973D01*
X88045973Y-76127365D01*
X87873835Y-76242384D01*
X87873834Y-76242385D01*
X87873833Y-76242385D01*
X87682564Y-76321611D01*
X87479516Y-76362000D01*
X87272484Y-76362000D01*
X87069436Y-76321611D01*
X86878167Y-76242385D01*
X86878166Y-76242385D01*
X86878165Y-76242384D01*
X86706027Y-76127365D01*
X86559635Y-75980973D01*
X86444616Y-75808835D01*
X86433086Y-75781000D01*
X86365389Y-75617564D01*
X86325000Y-75414516D01*
X86325000Y-75207484D01*
X86365389Y-75004436D01*
X86444615Y-74813167D01*
X86559635Y-74641027D01*
X86706027Y-74494635D01*
X86866336Y-74387520D01*
X86878165Y-74379616D01*
X86878167Y-74379615D01*
X87069436Y-74300389D01*
X87272484Y-74260000D01*
X87479516Y-74260000D01*
X87682564Y-74300389D01*
G37*
G36*
X144197564Y-73919389D02*
G01*
X144388833Y-73998615D01*
X144388835Y-73998616D01*
X144509138Y-74079000D01*
X144560973Y-74113635D01*
X144707365Y-74260027D01*
X144822385Y-74432167D01*
X144901611Y-74623436D01*
X144942000Y-74826484D01*
X144942000Y-75033516D01*
X144901611Y-75236564D01*
X144827902Y-75414514D01*
X144822384Y-75427835D01*
X144707365Y-75599973D01*
X144560973Y-75746365D01*
X144388835Y-75861384D01*
X144388834Y-75861385D01*
X144388833Y-75861385D01*
X144197564Y-75940611D01*
X143994516Y-75981000D01*
X143787484Y-75981000D01*
X143584436Y-75940611D01*
X143393167Y-75861385D01*
X143393166Y-75861385D01*
X143393165Y-75861384D01*
X143221027Y-75746365D01*
X143074635Y-75599973D01*
X142959616Y-75427835D01*
X142954098Y-75414514D01*
X142880389Y-75236564D01*
X142840000Y-75033516D01*
X142840000Y-74826484D01*
X142880389Y-74623436D01*
X142959615Y-74432167D01*
X143074635Y-74260027D01*
X143221027Y-74113635D01*
X143272862Y-74079000D01*
X143393165Y-73998616D01*
X143393167Y-73998615D01*
X143584436Y-73919389D01*
X143787484Y-73879000D01*
X143994516Y-73879000D01*
X144197564Y-73919389D01*
G37*
G36*
X156712228Y-74111703D02*
G01*
X156867100Y-74175853D01*
X157006481Y-74268985D01*
X157125015Y-74387519D01*
X157218147Y-74526900D01*
X157282297Y-74681772D01*
X157315000Y-74846184D01*
X157315000Y-75013816D01*
X157282297Y-75178228D01*
X157218147Y-75333100D01*
X157125015Y-75472481D01*
X157006481Y-75591015D01*
X156867100Y-75684147D01*
X156712228Y-75748297D01*
X156547816Y-75781000D01*
X156380184Y-75781000D01*
X156215772Y-75748297D01*
X156060900Y-75684147D01*
X155921519Y-75591015D01*
X155802985Y-75472481D01*
X155709853Y-75333100D01*
X155645703Y-75178228D01*
X155613000Y-75013816D01*
X155613000Y-74846184D01*
X155645703Y-74681772D01*
X155709853Y-74526900D01*
X155802985Y-74387519D01*
X155921519Y-74268985D01*
X156060900Y-74175853D01*
X156215772Y-74111703D01*
X156380184Y-74079000D01*
X156547816Y-74079000D01*
X156712228Y-74111703D01*
G37*
G36*
X92450228Y-74111703D02*
G01*
X92605100Y-74175853D01*
X92744481Y-74268985D01*
X92863015Y-74387519D01*
X92956147Y-74526900D01*
X93020297Y-74681772D01*
X93053000Y-74846184D01*
X93053000Y-75013816D01*
X93020297Y-75178228D01*
X92956147Y-75333100D01*
X92863015Y-75472481D01*
X92744481Y-75591015D01*
X92605100Y-75684147D01*
X92450228Y-75748297D01*
X92285816Y-75781000D01*
X92118184Y-75781000D01*
X91953772Y-75748297D01*
X91798900Y-75684147D01*
X91659519Y-75591015D01*
X91540985Y-75472481D01*
X91447853Y-75333100D01*
X91383703Y-75178228D01*
X91351000Y-75013816D01*
X91351000Y-74846184D01*
X91383703Y-74681772D01*
X91447853Y-74526900D01*
X91540985Y-74387519D01*
X91659519Y-74268985D01*
X91798900Y-74175853D01*
X91953772Y-74111703D01*
X92118184Y-74079000D01*
X92285816Y-74079000D01*
X92450228Y-74111703D01*
G37*
G36*
X97022228Y-74111703D02*
G01*
X97177100Y-74175853D01*
X97316481Y-74268985D01*
X97435015Y-74387519D01*
X97528147Y-74526900D01*
X97592297Y-74681772D01*
X97625000Y-74846184D01*
X97625000Y-75013816D01*
X97592297Y-75178228D01*
X97528147Y-75333100D01*
X97435015Y-75472481D01*
X97316481Y-75591015D01*
X97177100Y-75684147D01*
X97022228Y-75748297D01*
X96857816Y-75781000D01*
X96690184Y-75781000D01*
X96525772Y-75748297D01*
X96370900Y-75684147D01*
X96231519Y-75591015D01*
X96112985Y-75472481D01*
X96019853Y-75333100D01*
X95955703Y-75178228D01*
X95923000Y-75013816D01*
X95923000Y-74846184D01*
X95955703Y-74681772D01*
X96019853Y-74526900D01*
X96112985Y-74387519D01*
X96231519Y-74268985D01*
X96370900Y-74175853D01*
X96525772Y-74111703D01*
X96690184Y-74079000D01*
X96857816Y-74079000D01*
X97022228Y-74111703D01*
G37*
G36*
X108706228Y-74111703D02*
G01*
X108861100Y-74175853D01*
X109000481Y-74268985D01*
X109119015Y-74387519D01*
X109212147Y-74526900D01*
X109276297Y-74681772D01*
X109309000Y-74846184D01*
X109309000Y-75013816D01*
X109276297Y-75178228D01*
X109212147Y-75333100D01*
X109119015Y-75472481D01*
X109000481Y-75591015D01*
X108861100Y-75684147D01*
X108706228Y-75748297D01*
X108541816Y-75781000D01*
X108374184Y-75781000D01*
X108209772Y-75748297D01*
X108054900Y-75684147D01*
X107915519Y-75591015D01*
X107796985Y-75472481D01*
X107703853Y-75333100D01*
X107639703Y-75178228D01*
X107607000Y-75013816D01*
X107607000Y-74846184D01*
X107639703Y-74681772D01*
X107703853Y-74526900D01*
X107796985Y-74387519D01*
X107915519Y-74268985D01*
X108054900Y-74175853D01*
X108209772Y-74111703D01*
X108374184Y-74079000D01*
X108541816Y-74079000D01*
X108706228Y-74111703D01*
G37*
G36*
X124962228Y-74111703D02*
G01*
X125117100Y-74175853D01*
X125256481Y-74268985D01*
X125375015Y-74387519D01*
X125468147Y-74526900D01*
X125532297Y-74681772D01*
X125565000Y-74846184D01*
X125565000Y-75013816D01*
X125532297Y-75178228D01*
X125468147Y-75333100D01*
X125375015Y-75472481D01*
X125256481Y-75591015D01*
X125117100Y-75684147D01*
X124962228Y-75748297D01*
X124797816Y-75781000D01*
X124630184Y-75781000D01*
X124465772Y-75748297D01*
X124310900Y-75684147D01*
X124171519Y-75591015D01*
X124052985Y-75472481D01*
X123959853Y-75333100D01*
X123895703Y-75178228D01*
X123863000Y-75013816D01*
X123863000Y-74846184D01*
X123895703Y-74681772D01*
X123959853Y-74526900D01*
X124052985Y-74387519D01*
X124171519Y-74268985D01*
X124310900Y-74175853D01*
X124465772Y-74111703D01*
X124630184Y-74079000D01*
X124797816Y-74079000D01*
X124962228Y-74111703D01*
G37*
G36*
X113278228Y-74111703D02*
G01*
X113433100Y-74175853D01*
X113572481Y-74268985D01*
X113691015Y-74387519D01*
X113784147Y-74526900D01*
X113848297Y-74681772D01*
X113881000Y-74846184D01*
X113881000Y-75013816D01*
X113848297Y-75178228D01*
X113784147Y-75333100D01*
X113691015Y-75472481D01*
X113572481Y-75591015D01*
X113433100Y-75684147D01*
X113278228Y-75748297D01*
X113113816Y-75781000D01*
X112946184Y-75781000D01*
X112781772Y-75748297D01*
X112626900Y-75684147D01*
X112487519Y-75591015D01*
X112368985Y-75472481D01*
X112275853Y-75333100D01*
X112211703Y-75178228D01*
X112179000Y-75013816D01*
X112179000Y-74846184D01*
X112211703Y-74681772D01*
X112275853Y-74526900D01*
X112368985Y-74387519D01*
X112487519Y-74268985D01*
X112626900Y-74175853D01*
X112781772Y-74111703D01*
X112946184Y-74079000D01*
X113113816Y-74079000D01*
X113278228Y-74111703D01*
G37*
G36*
X154172228Y-74111703D02*
G01*
X154327100Y-74175853D01*
X154466481Y-74268985D01*
X154585015Y-74387519D01*
X154678147Y-74526900D01*
X154742297Y-74681772D01*
X154775000Y-74846184D01*
X154775000Y-75013816D01*
X154742297Y-75178228D01*
X154678147Y-75333100D01*
X154585015Y-75472481D01*
X154466481Y-75591015D01*
X154327100Y-75684147D01*
X154172228Y-75748297D01*
X154007816Y-75781000D01*
X153840184Y-75781000D01*
X153675772Y-75748297D01*
X153520900Y-75684147D01*
X153381519Y-75591015D01*
X153262985Y-75472481D01*
X153169853Y-75333100D01*
X153105703Y-75178228D01*
X153073000Y-75013816D01*
X153073000Y-74846184D01*
X153105703Y-74681772D01*
X153169853Y-74526900D01*
X153262985Y-74387519D01*
X153381519Y-74268985D01*
X153520900Y-74175853D01*
X153675772Y-74111703D01*
X153840184Y-74079000D01*
X154007816Y-74079000D01*
X154172228Y-74111703D01*
G37*
G36*
X149695000Y-75781000D02*
G01*
X147993000Y-75781000D01*
X147993000Y-74079000D01*
X149695000Y-74079000D01*
X149695000Y-75781000D01*
G37*
G36*
X151632228Y-74111703D02*
G01*
X151787100Y-74175853D01*
X151926481Y-74268985D01*
X152045015Y-74387519D01*
X152138147Y-74526900D01*
X152202297Y-74681772D01*
X152235000Y-74846184D01*
X152235000Y-75013816D01*
X152202297Y-75178228D01*
X152138147Y-75333100D01*
X152045015Y-75472481D01*
X151926481Y-75591015D01*
X151787100Y-75684147D01*
X151632228Y-75748297D01*
X151467816Y-75781000D01*
X151300184Y-75781000D01*
X151135772Y-75748297D01*
X150980900Y-75684147D01*
X150841519Y-75591015D01*
X150722985Y-75472481D01*
X150629853Y-75333100D01*
X150565703Y-75178228D01*
X150533000Y-75013816D01*
X150533000Y-74846184D01*
X150565703Y-74681772D01*
X150629853Y-74526900D01*
X150722985Y-74387519D01*
X150841519Y-74268985D01*
X150980900Y-74175853D01*
X151135772Y-74111703D01*
X151300184Y-74079000D01*
X151467816Y-74079000D01*
X151632228Y-74111703D01*
G37*
G36*
X137662228Y-71571703D02*
G01*
X137817100Y-71635853D01*
X137956481Y-71728985D01*
X138075015Y-71847519D01*
X138168147Y-71986900D01*
X138232297Y-72141772D01*
X138265000Y-72306184D01*
X138265000Y-72473816D01*
X138232297Y-72638228D01*
X138168147Y-72793100D01*
X138075015Y-72932481D01*
X137956481Y-73051015D01*
X137817100Y-73144147D01*
X137662228Y-73208297D01*
X137497816Y-73241000D01*
X137330184Y-73241000D01*
X137165772Y-73208297D01*
X137010900Y-73144147D01*
X136871519Y-73051015D01*
X136752985Y-72932481D01*
X136659853Y-72793100D01*
X136595703Y-72638228D01*
X136563000Y-72473816D01*
X136563000Y-72306184D01*
X136595703Y-72141772D01*
X136659853Y-71986900D01*
X136752985Y-71847519D01*
X136871519Y-71728985D01*
X137010900Y-71635853D01*
X137165772Y-71571703D01*
X137330184Y-71539000D01*
X137497816Y-71539000D01*
X137662228Y-71571703D01*
G37*
G36*
X112066564Y-70363389D02*
G01*
X112257833Y-70442615D01*
X112257835Y-70442616D01*
X112373608Y-70519973D01*
X112429973Y-70557635D01*
X112576365Y-70704027D01*
X112691385Y-70876167D01*
X112770611Y-71067436D01*
X112811000Y-71270484D01*
X112811000Y-71477516D01*
X112770611Y-71680564D01*
X112701456Y-71847519D01*
X112691384Y-71871835D01*
X112576365Y-72043973D01*
X112429973Y-72190365D01*
X112257835Y-72305384D01*
X112257834Y-72305385D01*
X112257833Y-72305385D01*
X112066564Y-72384611D01*
X111863516Y-72425000D01*
X111656484Y-72425000D01*
X111453436Y-72384611D01*
X111262167Y-72305385D01*
X111262166Y-72305385D01*
X111262165Y-72305384D01*
X111090027Y-72190365D01*
X110943635Y-72043973D01*
X110828616Y-71871835D01*
X110818544Y-71847519D01*
X110749389Y-71680564D01*
X110709000Y-71477516D01*
X110709000Y-71270484D01*
X110749389Y-71067436D01*
X110828615Y-70876167D01*
X110943635Y-70704027D01*
X111090027Y-70557635D01*
X111146392Y-70519973D01*
X111262165Y-70442616D01*
X111262167Y-70442615D01*
X111453436Y-70363389D01*
X111656484Y-70323000D01*
X111863516Y-70323000D01*
X112066564Y-70363389D01*
G37*
G36*
X128322564Y-70363389D02*
G01*
X128513833Y-70442615D01*
X128513835Y-70442616D01*
X128629608Y-70519973D01*
X128685973Y-70557635D01*
X128832365Y-70704027D01*
X128947385Y-70876167D01*
X129026611Y-71067436D01*
X129067000Y-71270484D01*
X129067000Y-71477516D01*
X129026611Y-71680564D01*
X128957456Y-71847519D01*
X128947384Y-71871835D01*
X128832365Y-72043973D01*
X128685973Y-72190365D01*
X128513835Y-72305384D01*
X128513834Y-72305385D01*
X128513833Y-72305385D01*
X128322564Y-72384611D01*
X128119516Y-72425000D01*
X127912484Y-72425000D01*
X127709436Y-72384611D01*
X127518167Y-72305385D01*
X127518166Y-72305385D01*
X127518165Y-72305384D01*
X127346027Y-72190365D01*
X127199635Y-72043973D01*
X127084616Y-71871835D01*
X127074544Y-71847519D01*
X127005389Y-71680564D01*
X126965000Y-71477516D01*
X126965000Y-71270484D01*
X127005389Y-71067436D01*
X127084615Y-70876167D01*
X127199635Y-70704027D01*
X127346027Y-70557635D01*
X127402392Y-70519973D01*
X127518165Y-70442616D01*
X127518167Y-70442615D01*
X127709436Y-70363389D01*
X127912484Y-70323000D01*
X128119516Y-70323000D01*
X128322564Y-70363389D01*
G37*
G36*
X95810564Y-70363389D02*
G01*
X96001833Y-70442615D01*
X96001835Y-70442616D01*
X96117608Y-70519973D01*
X96173973Y-70557635D01*
X96320365Y-70704027D01*
X96435385Y-70876167D01*
X96514611Y-71067436D01*
X96555000Y-71270484D01*
X96555000Y-71477516D01*
X96514611Y-71680564D01*
X96445456Y-71847519D01*
X96435384Y-71871835D01*
X96320365Y-72043973D01*
X96173973Y-72190365D01*
X96001835Y-72305384D01*
X96001834Y-72305385D01*
X96001833Y-72305385D01*
X95810564Y-72384611D01*
X95607516Y-72425000D01*
X95400484Y-72425000D01*
X95197436Y-72384611D01*
X95006167Y-72305385D01*
X95006166Y-72305385D01*
X95006165Y-72305384D01*
X94834027Y-72190365D01*
X94687635Y-72043973D01*
X94572616Y-71871835D01*
X94562544Y-71847519D01*
X94493389Y-71680564D01*
X94453000Y-71477516D01*
X94453000Y-71270484D01*
X94493389Y-71067436D01*
X94572615Y-70876167D01*
X94687635Y-70704027D01*
X94834027Y-70557635D01*
X94890392Y-70519973D01*
X95006165Y-70442616D01*
X95006167Y-70442615D01*
X95197436Y-70363389D01*
X95400484Y-70323000D01*
X95607516Y-70323000D01*
X95810564Y-70363389D01*
G37*
G36*
X163824228Y-70555703D02*
G01*
X163979100Y-70619853D01*
X164118481Y-70712985D01*
X164237015Y-70831519D01*
X164330147Y-70970900D01*
X164394297Y-71125772D01*
X164427000Y-71290184D01*
X164427000Y-71457816D01*
X164394297Y-71622228D01*
X164330147Y-71777100D01*
X164237015Y-71916481D01*
X164118481Y-72035015D01*
X163979100Y-72128147D01*
X163824228Y-72192297D01*
X163659816Y-72225000D01*
X163492184Y-72225000D01*
X163327772Y-72192297D01*
X163172900Y-72128147D01*
X163033519Y-72035015D01*
X162914985Y-71916481D01*
X162821853Y-71777100D01*
X162757703Y-71622228D01*
X162725000Y-71457816D01*
X162725000Y-71290184D01*
X162757703Y-71125772D01*
X162821853Y-70970900D01*
X162914985Y-70831519D01*
X163033519Y-70712985D01*
X163172900Y-70619853D01*
X163327772Y-70555703D01*
X163492184Y-70523000D01*
X163659816Y-70523000D01*
X163824228Y-70555703D01*
G37*
G36*
X103938564Y-69220389D02*
G01*
X104129833Y-69299615D01*
X104129835Y-69299616D01*
X104208480Y-69352165D01*
X104301973Y-69414635D01*
X104448365Y-69561027D01*
X104563385Y-69733167D01*
X104642611Y-69924436D01*
X104683000Y-70127484D01*
X104683000Y-70334516D01*
X104642611Y-70537564D01*
X104589260Y-70666365D01*
X104563384Y-70728835D01*
X104448365Y-70900973D01*
X104301973Y-71047365D01*
X104129835Y-71162384D01*
X104129834Y-71162385D01*
X104129833Y-71162385D01*
X103938564Y-71241611D01*
X103735516Y-71282000D01*
X103528484Y-71282000D01*
X103325436Y-71241611D01*
X103134167Y-71162385D01*
X103134166Y-71162385D01*
X103134165Y-71162384D01*
X102962027Y-71047365D01*
X102815635Y-70900973D01*
X102700616Y-70728835D01*
X102674740Y-70666365D01*
X102621389Y-70537564D01*
X102581000Y-70334516D01*
X102581000Y-70127484D01*
X102621389Y-69924436D01*
X102700615Y-69733167D01*
X102815635Y-69561027D01*
X102962027Y-69414635D01*
X103055520Y-69352165D01*
X103134165Y-69299616D01*
X103134167Y-69299615D01*
X103325436Y-69220389D01*
X103528484Y-69180000D01*
X103735516Y-69180000D01*
X103938564Y-69220389D01*
G37*
G36*
X120194564Y-69220389D02*
G01*
X120385833Y-69299615D01*
X120385835Y-69299616D01*
X120464480Y-69352165D01*
X120557973Y-69414635D01*
X120704365Y-69561027D01*
X120819385Y-69733167D01*
X120898611Y-69924436D01*
X120939000Y-70127484D01*
X120939000Y-70334516D01*
X120898611Y-70537564D01*
X120845260Y-70666365D01*
X120819384Y-70728835D01*
X120704365Y-70900973D01*
X120557973Y-71047365D01*
X120385835Y-71162384D01*
X120385834Y-71162385D01*
X120385833Y-71162385D01*
X120194564Y-71241611D01*
X119991516Y-71282000D01*
X119784484Y-71282000D01*
X119581436Y-71241611D01*
X119390167Y-71162385D01*
X119390166Y-71162385D01*
X119390165Y-71162384D01*
X119218027Y-71047365D01*
X119071635Y-70900973D01*
X118956616Y-70728835D01*
X118930740Y-70666365D01*
X118877389Y-70537564D01*
X118837000Y-70334516D01*
X118837000Y-70127484D01*
X118877389Y-69924436D01*
X118956615Y-69733167D01*
X119071635Y-69561027D01*
X119218027Y-69414635D01*
X119311520Y-69352165D01*
X119390165Y-69299616D01*
X119390167Y-69299615D01*
X119581436Y-69220389D01*
X119784484Y-69180000D01*
X119991516Y-69180000D01*
X120194564Y-69220389D01*
G37*
G36*
X87682564Y-69220389D02*
G01*
X87873833Y-69299615D01*
X87873835Y-69299616D01*
X87952480Y-69352165D01*
X88045973Y-69414635D01*
X88192365Y-69561027D01*
X88307385Y-69733167D01*
X88386611Y-69924436D01*
X88427000Y-70127484D01*
X88427000Y-70334516D01*
X88386611Y-70537564D01*
X88333260Y-70666365D01*
X88307384Y-70728835D01*
X88192365Y-70900973D01*
X88045973Y-71047365D01*
X87873835Y-71162384D01*
X87873834Y-71162385D01*
X87873833Y-71162385D01*
X87682564Y-71241611D01*
X87479516Y-71282000D01*
X87272484Y-71282000D01*
X87069436Y-71241611D01*
X86878167Y-71162385D01*
X86878166Y-71162385D01*
X86878165Y-71162384D01*
X86706027Y-71047365D01*
X86559635Y-70900973D01*
X86444616Y-70728835D01*
X86418740Y-70666365D01*
X86365389Y-70537564D01*
X86325000Y-70334516D01*
X86325000Y-70127484D01*
X86365389Y-69924436D01*
X86444615Y-69733167D01*
X86559635Y-69561027D01*
X86706027Y-69414635D01*
X86799520Y-69352165D01*
X86878165Y-69299616D01*
X86878167Y-69299615D01*
X87069436Y-69220389D01*
X87272484Y-69180000D01*
X87479516Y-69180000D01*
X87682564Y-69220389D01*
G37*
G36*
X172010564Y-68839389D02*
G01*
X172201833Y-68918615D01*
X172201835Y-68918616D01*
X172373973Y-69033635D01*
X172520365Y-69180027D01*
X172635385Y-69352167D01*
X172714611Y-69543436D01*
X172755000Y-69746484D01*
X172755000Y-69953516D01*
X172714611Y-70156564D01*
X172645671Y-70323000D01*
X172635384Y-70347835D01*
X172520365Y-70519973D01*
X172373973Y-70666365D01*
X172201835Y-70781384D01*
X172201834Y-70781385D01*
X172201833Y-70781385D01*
X172010564Y-70860611D01*
X171807516Y-70901000D01*
X171600484Y-70901000D01*
X171397436Y-70860611D01*
X171206167Y-70781385D01*
X171206166Y-70781385D01*
X171206165Y-70781384D01*
X171034027Y-70666365D01*
X170887635Y-70519973D01*
X170772616Y-70347835D01*
X170762329Y-70323000D01*
X170693389Y-70156564D01*
X170653000Y-69953516D01*
X170653000Y-69746484D01*
X170693389Y-69543436D01*
X170772615Y-69352167D01*
X170887635Y-69180027D01*
X171034027Y-69033635D01*
X171206165Y-68918616D01*
X171206167Y-68918615D01*
X171397436Y-68839389D01*
X171600484Y-68799000D01*
X171807516Y-68799000D01*
X172010564Y-68839389D01*
G37*
G36*
X144197564Y-68839389D02*
G01*
X144388833Y-68918615D01*
X144388835Y-68918616D01*
X144560973Y-69033635D01*
X144707365Y-69180027D01*
X144822385Y-69352167D01*
X144901611Y-69543436D01*
X144942000Y-69746484D01*
X144942000Y-69953516D01*
X144901611Y-70156564D01*
X144832671Y-70323000D01*
X144822384Y-70347835D01*
X144707365Y-70519973D01*
X144560973Y-70666365D01*
X144388835Y-70781384D01*
X144388834Y-70781385D01*
X144388833Y-70781385D01*
X144197564Y-70860611D01*
X143994516Y-70901000D01*
X143787484Y-70901000D01*
X143584436Y-70860611D01*
X143393167Y-70781385D01*
X143393166Y-70781385D01*
X143393165Y-70781384D01*
X143221027Y-70666365D01*
X143074635Y-70519973D01*
X142959616Y-70347835D01*
X142949329Y-70323000D01*
X142880389Y-70156564D01*
X142840000Y-69953516D01*
X142840000Y-69746484D01*
X142880389Y-69543436D01*
X142959615Y-69352167D01*
X143074635Y-69180027D01*
X143221027Y-69033635D01*
X143393165Y-68918616D01*
X143393167Y-68918615D01*
X143584436Y-68839389D01*
X143787484Y-68799000D01*
X143994516Y-68799000D01*
X144197564Y-68839389D01*
G37*
G36*
X149092228Y-66491703D02*
G01*
X149247100Y-66555853D01*
X149386481Y-66648985D01*
X149505015Y-66767519D01*
X149598147Y-66906900D01*
X149662297Y-67061772D01*
X149695000Y-67226184D01*
X149695000Y-67393816D01*
X149662297Y-67558228D01*
X149598147Y-67713100D01*
X149505015Y-67852481D01*
X149386481Y-67971015D01*
X149247100Y-68064147D01*
X149092228Y-68128297D01*
X148927816Y-68161000D01*
X148760184Y-68161000D01*
X148595772Y-68128297D01*
X148440900Y-68064147D01*
X148301519Y-67971015D01*
X148182985Y-67852481D01*
X148089853Y-67713100D01*
X148025703Y-67558228D01*
X147993000Y-67393816D01*
X147993000Y-67226184D01*
X148025703Y-67061772D01*
X148089853Y-66906900D01*
X148182985Y-66767519D01*
X148301519Y-66648985D01*
X148440900Y-66555853D01*
X148595772Y-66491703D01*
X148760184Y-66459000D01*
X148927816Y-66459000D01*
X149092228Y-66491703D01*
G37*
G36*
X151632228Y-66491703D02*
G01*
X151787100Y-66555853D01*
X151926481Y-66648985D01*
X152045015Y-66767519D01*
X152138147Y-66906900D01*
X152202297Y-67061772D01*
X152235000Y-67226184D01*
X152235000Y-67393816D01*
X152202297Y-67558228D01*
X152138147Y-67713100D01*
X152045015Y-67852481D01*
X151926481Y-67971015D01*
X151787100Y-68064147D01*
X151632228Y-68128297D01*
X151467816Y-68161000D01*
X151300184Y-68161000D01*
X151135772Y-68128297D01*
X150980900Y-68064147D01*
X150841519Y-67971015D01*
X150722985Y-67852481D01*
X150629853Y-67713100D01*
X150565703Y-67558228D01*
X150533000Y-67393816D01*
X150533000Y-67226184D01*
X150565703Y-67061772D01*
X150629853Y-66906900D01*
X150722985Y-66767519D01*
X150841519Y-66648985D01*
X150980900Y-66555853D01*
X151135772Y-66491703D01*
X151300184Y-66459000D01*
X151467816Y-66459000D01*
X151632228Y-66491703D01*
G37*
G36*
X154172228Y-66491703D02*
G01*
X154327100Y-66555853D01*
X154466481Y-66648985D01*
X154585015Y-66767519D01*
X154678147Y-66906900D01*
X154742297Y-67061772D01*
X154775000Y-67226184D01*
X154775000Y-67393816D01*
X154742297Y-67558228D01*
X154678147Y-67713100D01*
X154585015Y-67852481D01*
X154466481Y-67971015D01*
X154327100Y-68064147D01*
X154172228Y-68128297D01*
X154007816Y-68161000D01*
X153840184Y-68161000D01*
X153675772Y-68128297D01*
X153520900Y-68064147D01*
X153381519Y-67971015D01*
X153262985Y-67852481D01*
X153169853Y-67713100D01*
X153105703Y-67558228D01*
X153073000Y-67393816D01*
X153073000Y-67226184D01*
X153105703Y-67061772D01*
X153169853Y-66906900D01*
X153262985Y-66767519D01*
X153381519Y-66648985D01*
X153520900Y-66555853D01*
X153675772Y-66491703D01*
X153840184Y-66459000D01*
X154007816Y-66459000D01*
X154172228Y-66491703D01*
G37*
G36*
X156712228Y-66491703D02*
G01*
X156867100Y-66555853D01*
X157006481Y-66648985D01*
X157125015Y-66767519D01*
X157218147Y-66906900D01*
X157282297Y-67061772D01*
X157315000Y-67226184D01*
X157315000Y-67393816D01*
X157282297Y-67558228D01*
X157218147Y-67713100D01*
X157125015Y-67852481D01*
X157006481Y-67971015D01*
X156867100Y-68064147D01*
X156712228Y-68128297D01*
X156547816Y-68161000D01*
X156380184Y-68161000D01*
X156215772Y-68128297D01*
X156060900Y-68064147D01*
X155921519Y-67971015D01*
X155802985Y-67852481D01*
X155709853Y-67713100D01*
X155645703Y-67558228D01*
X155613000Y-67393816D01*
X155613000Y-67226184D01*
X155645703Y-67061772D01*
X155709853Y-66906900D01*
X155802985Y-66767519D01*
X155921519Y-66648985D01*
X156060900Y-66555853D01*
X156215772Y-66491703D01*
X156380184Y-66459000D01*
X156547816Y-66459000D01*
X156712228Y-66491703D01*
G37*
G36*
X90259000Y-65875000D02*
G01*
X88557000Y-65875000D01*
X88557000Y-64173000D01*
X90259000Y-64173000D01*
X90259000Y-65875000D01*
G37*
G36*
X92156228Y-64205703D02*
G01*
X92311100Y-64269853D01*
X92450481Y-64362985D01*
X92569015Y-64481519D01*
X92662147Y-64620900D01*
X92726297Y-64775772D01*
X92759000Y-64940184D01*
X92759000Y-65107816D01*
X92726297Y-65272228D01*
X92662147Y-65427100D01*
X92569015Y-65566481D01*
X92450481Y-65685015D01*
X92311100Y-65778147D01*
X92156228Y-65842297D01*
X91991816Y-65875000D01*
X91824184Y-65875000D01*
X91659772Y-65842297D01*
X91504900Y-65778147D01*
X91365519Y-65685015D01*
X91246985Y-65566481D01*
X91153853Y-65427100D01*
X91089703Y-65272228D01*
X91057000Y-65107816D01*
X91057000Y-64940184D01*
X91089703Y-64775772D01*
X91153853Y-64620900D01*
X91246985Y-64481519D01*
X91365519Y-64362985D01*
X91504900Y-64269853D01*
X91659772Y-64205703D01*
X91824184Y-64173000D01*
X91991816Y-64173000D01*
X92156228Y-64205703D01*
G37*
G36*
X108666228Y-64205703D02*
G01*
X108821100Y-64269853D01*
X108960481Y-64362985D01*
X109079015Y-64481519D01*
X109172147Y-64620900D01*
X109236297Y-64775772D01*
X109269000Y-64940184D01*
X109269000Y-65107816D01*
X109236297Y-65272228D01*
X109172147Y-65427100D01*
X109079015Y-65566481D01*
X108960481Y-65685015D01*
X108821100Y-65778147D01*
X108666228Y-65842297D01*
X108501816Y-65875000D01*
X108334184Y-65875000D01*
X108169772Y-65842297D01*
X108014900Y-65778147D01*
X107875519Y-65685015D01*
X107756985Y-65566481D01*
X107663853Y-65427100D01*
X107599703Y-65272228D01*
X107567000Y-65107816D01*
X107567000Y-64940184D01*
X107599703Y-64775772D01*
X107663853Y-64620900D01*
X107756985Y-64481519D01*
X107875519Y-64362985D01*
X108014900Y-64269853D01*
X108169772Y-64205703D01*
X108334184Y-64173000D01*
X108501816Y-64173000D01*
X108666228Y-64205703D01*
G37*
G36*
X106769000Y-65875000D02*
G01*
X105067000Y-65875000D01*
X105067000Y-64173000D01*
X106769000Y-64173000D01*
X106769000Y-65875000D01*
G37*
G36*
X123279000Y-65875000D02*
G01*
X121577000Y-65875000D01*
X121577000Y-64173000D01*
X123279000Y-64173000D01*
X123279000Y-65875000D01*
G37*
G36*
X125176228Y-64205703D02*
G01*
X125331100Y-64269853D01*
X125470481Y-64362985D01*
X125589015Y-64481519D01*
X125682147Y-64620900D01*
X125746297Y-64775772D01*
X125779000Y-64940184D01*
X125779000Y-65107816D01*
X125746297Y-65272228D01*
X125682147Y-65427100D01*
X125589015Y-65566481D01*
X125470481Y-65685015D01*
X125331100Y-65778147D01*
X125176228Y-65842297D01*
X125011816Y-65875000D01*
X124844184Y-65875000D01*
X124679772Y-65842297D01*
X124524900Y-65778147D01*
X124385519Y-65685015D01*
X124266985Y-65566481D01*
X124173853Y-65427100D01*
X124109703Y-65272228D01*
X124077000Y-65107816D01*
X124077000Y-64940184D01*
X124109703Y-64775772D01*
X124173853Y-64620900D01*
X124266985Y-64481519D01*
X124385519Y-64362985D01*
X124524900Y-64269853D01*
X124679772Y-64205703D01*
X124844184Y-64173000D01*
X125011816Y-64173000D01*
X125176228Y-64205703D01*
G37*
G36*
X172010564Y-63759389D02*
G01*
X172201833Y-63838615D01*
X172201835Y-63838616D01*
X172373973Y-63953635D01*
X172520365Y-64100027D01*
X172633839Y-64269852D01*
X172635385Y-64272167D01*
X172714611Y-64463436D01*
X172755000Y-64666484D01*
X172755000Y-64873516D01*
X172714611Y-65076564D01*
X172635385Y-65267833D01*
X172635384Y-65267835D01*
X172520365Y-65439973D01*
X172373973Y-65586365D01*
X172201835Y-65701384D01*
X172201834Y-65701385D01*
X172201833Y-65701385D01*
X172010564Y-65780611D01*
X171807516Y-65821000D01*
X171600484Y-65821000D01*
X171397436Y-65780611D01*
X171206167Y-65701385D01*
X171206166Y-65701385D01*
X171206165Y-65701384D01*
X171034027Y-65586365D01*
X170887635Y-65439973D01*
X170772616Y-65267835D01*
X170772615Y-65267833D01*
X170693389Y-65076564D01*
X170653000Y-64873516D01*
X170653000Y-64666484D01*
X170693389Y-64463436D01*
X170772615Y-64272167D01*
X170774162Y-64269852D01*
X170887635Y-64100027D01*
X171034027Y-63953635D01*
X171206165Y-63838616D01*
X171206167Y-63838615D01*
X171397436Y-63759389D01*
X171600484Y-63719000D01*
X171807516Y-63719000D01*
X172010564Y-63759389D01*
G37*
G36*
X144197564Y-63759389D02*
G01*
X144388833Y-63838615D01*
X144388835Y-63838616D01*
X144560973Y-63953635D01*
X144707365Y-64100027D01*
X144820839Y-64269852D01*
X144822385Y-64272167D01*
X144901611Y-64463436D01*
X144942000Y-64666484D01*
X144942000Y-64873516D01*
X144901611Y-65076564D01*
X144822385Y-65267833D01*
X144822384Y-65267835D01*
X144707365Y-65439973D01*
X144560973Y-65586365D01*
X144388835Y-65701384D01*
X144388834Y-65701385D01*
X144388833Y-65701385D01*
X144197564Y-65780611D01*
X143994516Y-65821000D01*
X143787484Y-65821000D01*
X143584436Y-65780611D01*
X143393167Y-65701385D01*
X143393166Y-65701385D01*
X143393165Y-65701384D01*
X143221027Y-65586365D01*
X143074635Y-65439973D01*
X142959616Y-65267835D01*
X142959615Y-65267833D01*
X142880389Y-65076564D01*
X142840000Y-64873516D01*
X142840000Y-64666484D01*
X142880389Y-64463436D01*
X142959615Y-64272167D01*
X142961162Y-64269852D01*
X143074635Y-64100027D01*
X143221027Y-63953635D01*
X143393165Y-63838616D01*
X143393167Y-63838615D01*
X143584436Y-63759389D01*
X143787484Y-63719000D01*
X143994516Y-63719000D01*
X144197564Y-63759389D01*
G37*
G36*
X164427000Y-65621000D02*
G01*
X162725000Y-65621000D01*
X162725000Y-63919000D01*
X164427000Y-63919000D01*
X164427000Y-65621000D01*
G37*
G36*
X166324228Y-63951703D02*
G01*
X166479100Y-64015853D01*
X166618481Y-64108985D01*
X166737015Y-64227519D01*
X166830147Y-64366900D01*
X166894297Y-64521772D01*
X166927000Y-64686184D01*
X166927000Y-64853816D01*
X166894297Y-65018228D01*
X166830147Y-65173100D01*
X166737015Y-65312481D01*
X166618481Y-65431015D01*
X166479100Y-65524147D01*
X166324228Y-65588297D01*
X166159816Y-65621000D01*
X165992184Y-65621000D01*
X165827772Y-65588297D01*
X165672900Y-65524147D01*
X165533519Y-65431015D01*
X165414985Y-65312481D01*
X165321853Y-65173100D01*
X165257703Y-65018228D01*
X165225000Y-64853816D01*
X165225000Y-64686184D01*
X165257703Y-64521772D01*
X165321853Y-64366900D01*
X165414985Y-64227519D01*
X165533519Y-64108985D01*
X165672900Y-64015853D01*
X165827772Y-63951703D01*
X165992184Y-63919000D01*
X166159816Y-63919000D01*
X166324228Y-63951703D01*
G37*
G36*
X137662228Y-63951703D02*
G01*
X137817100Y-64015853D01*
X137956481Y-64108985D01*
X138075015Y-64227519D01*
X138168147Y-64366900D01*
X138232297Y-64521772D01*
X138265000Y-64686184D01*
X138265000Y-64853816D01*
X138232297Y-65018228D01*
X138168147Y-65173100D01*
X138075015Y-65312481D01*
X137956481Y-65431015D01*
X137817100Y-65524147D01*
X137662228Y-65588297D01*
X137497816Y-65621000D01*
X137330184Y-65621000D01*
X137165772Y-65588297D01*
X137010900Y-65524147D01*
X136871519Y-65431015D01*
X136752985Y-65312481D01*
X136659853Y-65173100D01*
X136595703Y-65018228D01*
X136563000Y-64853816D01*
X136563000Y-64686184D01*
X136595703Y-64521772D01*
X136659853Y-64366900D01*
X136752985Y-64227519D01*
X136871519Y-64108985D01*
X137010900Y-64015853D01*
X137165772Y-63951703D01*
X137330184Y-63919000D01*
X137497816Y-63919000D01*
X137662228Y-63951703D01*
G37*
G36*
X151124228Y-61665703D02*
G01*
X151279100Y-61729853D01*
X151418481Y-61822985D01*
X151537015Y-61941519D01*
X151630147Y-62080900D01*
X151694297Y-62235772D01*
X151727000Y-62400184D01*
X151727000Y-62567816D01*
X151694297Y-62732228D01*
X151630147Y-62887100D01*
X151537015Y-63026481D01*
X151418481Y-63145015D01*
X151279100Y-63238147D01*
X151124228Y-63302297D01*
X150959816Y-63335000D01*
X150792184Y-63335000D01*
X150627772Y-63302297D01*
X150472900Y-63238147D01*
X150333519Y-63145015D01*
X150214985Y-63026481D01*
X150121853Y-62887100D01*
X150057703Y-62732228D01*
X150025000Y-62567816D01*
X150025000Y-62400184D01*
X150057703Y-62235772D01*
X150121853Y-62080900D01*
X150214985Y-61941519D01*
X150333519Y-61822985D01*
X150472900Y-61729853D01*
X150627772Y-61665703D01*
X150792184Y-61633000D01*
X150959816Y-61633000D01*
X151124228Y-61665703D01*
G37*
G36*
X148624228Y-61665703D02*
G01*
X148779100Y-61729853D01*
X148918481Y-61822985D01*
X149037015Y-61941519D01*
X149130147Y-62080900D01*
X149194297Y-62235772D01*
X149227000Y-62400184D01*
X149227000Y-62567816D01*
X149194297Y-62732228D01*
X149130147Y-62887100D01*
X149037015Y-63026481D01*
X148918481Y-63145015D01*
X148779100Y-63238147D01*
X148624228Y-63302297D01*
X148459816Y-63335000D01*
X148292184Y-63335000D01*
X148127772Y-63302297D01*
X147972900Y-63238147D01*
X147833519Y-63145015D01*
X147714985Y-63026481D01*
X147621853Y-62887100D01*
X147557703Y-62732228D01*
X147525000Y-62567816D01*
X147525000Y-62400184D01*
X147557703Y-62235772D01*
X147621853Y-62080900D01*
X147714985Y-61941519D01*
X147833519Y-61822985D01*
X147972900Y-61729853D01*
X148127772Y-61665703D01*
X148292184Y-61633000D01*
X148459816Y-61633000D01*
X148624228Y-61665703D01*
G37*
G36*
X154680228Y-61665703D02*
G01*
X154835100Y-61729853D01*
X154974481Y-61822985D01*
X155093015Y-61941519D01*
X155186147Y-62080900D01*
X155250297Y-62235772D01*
X155283000Y-62400184D01*
X155283000Y-62567816D01*
X155250297Y-62732228D01*
X155186147Y-62887100D01*
X155093015Y-63026481D01*
X154974481Y-63145015D01*
X154835100Y-63238147D01*
X154680228Y-63302297D01*
X154515816Y-63335000D01*
X154348184Y-63335000D01*
X154183772Y-63302297D01*
X154028900Y-63238147D01*
X153889519Y-63145015D01*
X153770985Y-63026481D01*
X153677853Y-62887100D01*
X153613703Y-62732228D01*
X153581000Y-62567816D01*
X153581000Y-62400184D01*
X153613703Y-62235772D01*
X153677853Y-62080900D01*
X153770985Y-61941519D01*
X153889519Y-61822985D01*
X154028900Y-61729853D01*
X154183772Y-61665703D01*
X154348184Y-61633000D01*
X154515816Y-61633000D01*
X154680228Y-61665703D01*
G37*
G36*
X157180228Y-61665703D02*
G01*
X157335100Y-61729853D01*
X157474481Y-61822985D01*
X157593015Y-61941519D01*
X157686147Y-62080900D01*
X157750297Y-62235772D01*
X157783000Y-62400184D01*
X157783000Y-62567816D01*
X157750297Y-62732228D01*
X157686147Y-62887100D01*
X157593015Y-63026481D01*
X157474481Y-63145015D01*
X157335100Y-63238147D01*
X157180228Y-63302297D01*
X157015816Y-63335000D01*
X156848184Y-63335000D01*
X156683772Y-63302297D01*
X156528900Y-63238147D01*
X156389519Y-63145015D01*
X156270985Y-63026481D01*
X156177853Y-62887100D01*
X156113703Y-62732228D01*
X156081000Y-62567816D01*
X156081000Y-62400184D01*
X156113703Y-62235772D01*
X156177853Y-62080900D01*
X156270985Y-61941519D01*
X156389519Y-61822985D01*
X156528900Y-61729853D01*
X156683772Y-61665703D01*
X156848184Y-61633000D01*
X157015816Y-61633000D01*
X157180228Y-61665703D01*
G37*
M02*
